solid OpenSCAD_Model
  facet normal 1 0 0
    outer loop
      vertex 114.3 41.7512 92.5512
      vertex 114.3 39.37 90.17
      vertex 114.3 41.7512 0
    endloop
  endfacet
  facet normal 1 0 0
    outer loop
      vertex 114.3 41.7512 92.5512
      vertex 114.3 0 90.17
      vertex 114.3 39.37 90.17
    endloop
  endfacet
  facet normal 1 -0 0
    outer loop
      vertex 114.3 -2.38125 92.5512
      vertex 114.3 0 90.17
      vertex 114.3 41.7512 92.5512
    endloop
  endfacet
  facet normal 1 0 0
    outer loop
      vertex 114.3 -2.38125 0
      vertex 114.3 0 90.17
      vertex 114.3 -2.38125 92.5512
    endloop
  endfacet
  facet normal 1 0 0
    outer loop
      vertex 114.3 0 90.17
      vertex 114.3 -2.38125 0
      vertex 114.3 0 0
    endloop
  endfacet
  facet normal 1 0 0
    outer loop
      vertex 114.3 41.7512 0
      vertex 114.3 39.37 90.17
      vertex 114.3 39.37 0
    endloop
  endfacet
  facet normal -0 0 1
    outer loop
      vertex 0 41.7512 92.5512
      vertex 38.1 -2.38125 92.5512
      vertex 38.1 41.7512 92.5512
    endloop
  endfacet
  facet normal 0 0 1
    outer loop
      vertex 38.1 -2.38125 92.5512
      vertex 0 41.7512 92.5512
      vertex 0 -2.38125 92.5512
    endloop
  endfacet
  facet normal 0 0 1
    outer loop
      vertex 96.393 12.5841 92.5512
      vertex 95.25 12.5841 92.5512
      vertex 96.393 11.8221 92.5512
    endloop
  endfacet
  facet normal 0 0 1
    outer loop
      vertex 99.5424 20.1561 92.5512
      vertex 98.1456 19.1911 92.5512
      vertex 99.5424 18.2516 92.5512
    endloop
  endfacet
  facet normal -0 0 1
    outer loop
      vertex 99.2377 22.4707 92.5512
      vertex 99.5424 21.3502 92.5512
      vertex 99.828 22.5978 92.5512
    endloop
  endfacet
  facet normal 0 0 1
    outer loop
      vertex 98.8122 22.5409 92.5512
      vertex 99.5424 21.3502 92.5512
      vertex 99.2377 22.4707 92.5512
    endloop
  endfacet
  facet normal 0 0 1
    outer loop
      vertex 97.4596 19.8259 92.5512
      vertex 98.8122 22.5409 92.5512
      vertex 98.3994 22.7502 92.5512
    endloop
  endfacet
  facet normal 0 0 1
    outer loop
      vertex 96.1643 22.3948 92.5512
      vertex 98.3994 22.7502 92.5512
      vertex 97.9867 23.0932 92.5512
    endloop
  endfacet
  facet normal 0 0 1
    outer loop
      vertex 96.1643 22.3948 92.5512
      vertex 97.9867 23.0932 92.5512
      vertex 97.5611 23.5629 92.5512
    endloop
  endfacet
  facet normal 0 0 1
    outer loop
      vertex 98.3994 22.7502 92.5512
      vertex 96.1643 22.3948 92.5512
      vertex 97.4596 19.8259 92.5512
    endloop
  endfacet
  facet normal 0 0 1
    outer loop
      vertex 96.1643 22.3948 92.5512
      vertex 97.5611 23.5629 92.5512
      vertex 97.0406 24.2043 92.5512
    endloop
  endfacet
  facet normal 0 0 1
    outer loop
      vertex 96.1643 22.3948 92.5512
      vertex 97.0406 24.2043 92.5512
      vertex 96.6976 24.6043 92.5512
    endloop
  endfacet
  facet normal 0 0 1
    outer loop
      vertex 96.1643 22.3948 92.5512
      vertex 96.6976 24.6043 92.5512
      vertex 96.4371 24.8268 92.5512
    endloop
  endfacet
  facet normal 0 0 1
    outer loop
      vertex 96.1643 22.3948 92.5512
      vertex 96.4371 24.8268 92.5512
      vertex 96.1643 24.9853 92.5512
    endloop
  endfacet
  facet normal 0 0 1
    outer loop
      vertex 98.8122 22.5409 92.5512
      vertex 97.4596 19.8259 92.5512
      vertex 99.5424 21.3502 92.5512
    endloop
  endfacet
  facet normal 0 0 1
    outer loop
      vertex 95.25 21.4262 92.5512
      vertex 96.1643 22.3948 92.5512
      vertex 95.25 22.3948 92.5512
    endloop
  endfacet
  facet normal 0 0 1
    outer loop
      vertex 96.1643 22.3948 92.5512
      vertex 95.25 21.4262 92.5512
      vertex 97.4596 19.8259 92.5512
    endloop
  endfacet
  facet normal 0 0 1
    outer loop
      vertex 114.3 -2.38125 92.5512
      vertex 100.584 23.5757 92.5512
      vertex 100.609 13.829 92.5512
    endloop
  endfacet
  facet normal 0 0 1
    outer loop
      vertex 99.5424 20.1561 92.5512
      vertex 100.584 23.5757 92.5512
      vertex 100.279 22.9788 92.5512
    endloop
  endfacet
  facet normal 0 0 1
    outer loop
      vertex 99.5424 21.3502 92.5512
      vertex 100.279 22.9788 92.5512
      vertex 99.828 22.5978 92.5512
    endloop
  endfacet
  facet normal 0 0 1
    outer loop
      vertex 100.279 22.9788 92.5512
      vertex 99.5424 21.3502 92.5512
      vertex 99.5424 20.1561 92.5512
    endloop
  endfacet
  facet normal 0 0 1
    outer loop
      vertex 100.584 23.5757 92.5512
      vertex 99.5424 20.1561 92.5512
      vertex 99.5424 18.2516 92.5512
    endloop
  endfacet
  facet normal 0 0 1
    outer loop
      vertex 100.584 23.5757 92.5512
      vertex 99.5424 18.2516 92.5512
      vertex 100.609 13.829 92.5512
    endloop
  endfacet
  facet normal -0 0 1
    outer loop
      vertex 99.5424 17.0323 92.5512
      vertex 100.609 13.829 92.5512
      vertex 99.5424 18.2516 92.5512
    endloop
  endfacet
  facet normal 0 0 1
    outer loop
      vertex 97.2309 16.1913 92.5512
      vertex 99.5424 17.0323 92.5512
      vertex 97.4851 18.5818 92.5512
    endloop
  endfacet
  facet normal 0 0 1
    outer loop
      vertex 99.5424 17.0323 92.5512
      vertex 97.2309 16.1913 92.5512
      vertex 100.609 13.829 92.5512
    endloop
  endfacet
  facet normal 0 0 1
    outer loop
      vertex 97.4851 18.5818 92.5512
      vertex 96.393 16.1913 92.5512
      vertex 97.2309 16.1913 92.5512
    endloop
  endfacet
  facet normal -0 0 1
    outer loop
      vertex 95.25 16.9563 92.5512
      vertex 96.393 16.1913 92.5512
      vertex 97.4851 18.5818 92.5512
    endloop
  endfacet
  facet normal 0 0 1
    outer loop
      vertex 95.25 13.6511 92.5512
      vertex 96.393 16.1913 92.5512
      vertex 95.25 16.9563 92.5512
    endloop
  endfacet
  facet normal 0 0 1
    outer loop
      vertex 96.393 16.1913 92.5512
      vertex 95.25 13.6511 92.5512
      vertex 96.393 13.6511 92.5512
    endloop
  endfacet
  facet normal 0 0 1
    outer loop
      vertex 100.584 23.5757 92.5512
      vertex 114.3 41.7512 92.5512
      vertex 100.685 24.3505 92.5512
    endloop
  endfacet
  facet normal 0 0 1
    outer loop
      vertex 114.3 41.7512 92.5512
      vertex 100.584 25.0996 92.5512
      vertex 100.685 24.3505 92.5512
    endloop
  endfacet
  facet normal 0 0 1
    outer loop
      vertex 114.3 41.7512 92.5512
      vertex 100.279 25.6713 92.5512
      vertex 100.584 25.0996 92.5512
    endloop
  endfacet
  facet normal 0 0 1
    outer loop
      vertex 114.3 41.7512 92.5512
      vertex 99.7772 26.0585 92.5512
      vertex 100.279 25.6713 92.5512
    endloop
  endfacet
  facet normal 0 0 1
    outer loop
      vertex 114.3 41.7512 92.5512
      vertex 99.085 26.2554 92.5512
      vertex 99.7772 26.0585 92.5512
    endloop
  endfacet
  facet normal 0 0 1
    outer loop
      vertex 99.7521 24.0202 92.5512
      vertex 98.8568 23.7156 92.5512
      vertex 99.0153 23.6393 92.5512
    endloop
  endfacet
  facet normal -0 0 1
    outer loop
      vertex 97.3708 25.2837 92.5512
      vertex 99.0343 25.138 92.5512
      vertex 99.085 26.2554 92.5512
    endloop
  endfacet
  facet normal 0 0 1
    outer loop
      vertex 99.3645 25.0365 92.5512
      vertex 98.6979 23.8172 92.5512
      vertex 98.8568 23.7156 92.5512
    endloop
  endfacet
  facet normal 0 0 1
    outer loop
      vertex 99.3645 25.0365 92.5512
      vertex 98.5265 23.9695 92.5512
      vertex 98.6979 23.8172 92.5512
    endloop
  endfacet
  facet normal 0 0 1
    outer loop
      vertex 99.0343 25.138 92.5512
      vertex 98.2851 24.2171 92.5512
      vertex 98.5265 23.9695 92.5512
    endloop
  endfacet
  facet normal 0 0 1
    outer loop
      vertex 99.0343 25.138 92.5512
      vertex 97.9169 24.6551 92.5512
      vertex 98.2851 24.2171 92.5512
    endloop
  endfacet
  facet normal 0 0 1
    outer loop
      vertex 99.0343 25.138 92.5512
      vertex 97.3708 25.2837 92.5512
      vertex 97.9169 24.6551 92.5512
    endloop
  endfacet
  facet normal -0 0 1
    outer loop
      vertex 96.012 26.3061 92.5512
      vertex 99.085 26.2554 92.5512
      vertex 114.3 41.7512 92.5512
    endloop
  endfacet
  facet normal 0 0 1
    outer loop
      vertex 99.085 26.2554 92.5512
      vertex 96.9007 25.7477 92.5512
      vertex 97.3708 25.2837 92.5512
    endloop
  endfacet
  facet normal 0 0 1
    outer loop
      vertex 99.085 26.2554 92.5512
      vertex 96.4627 26.0651 92.5512
      vertex 96.9007 25.7477 92.5512
    endloop
  endfacet
  facet normal 0 0 1
    outer loop
      vertex 99.085 26.2554 92.5512
      vertex 96.012 26.3061 92.5512
      vertex 96.4627 26.0651 92.5512
    endloop
  endfacet
  facet normal 0 0 1
    outer loop
      vertex 114.3 41.7512 92.5512
      vertex 95.25 26.3061 92.5512
      vertex 96.012 26.3061 92.5512
    endloop
  endfacet
  facet normal 0 0 1
    outer loop
      vertex 76.2 41.7512 92.5512
      vertex 95.25 22.3948 92.5512
      vertex 95.25 26.3061 92.5512
    endloop
  endfacet
  facet normal 0 0 1
    outer loop
      vertex 95.25 22.3948 92.5512
      vertex 76.2 41.7512 92.5512
      vertex 95.25 21.4262 92.5512
    endloop
  endfacet
  facet normal 0 0 1
    outer loop
      vertex 95.25 21.4262 92.5512
      vertex 76.2 41.7512 92.5512
      vertex 95.25 20.2581 92.5512
    endloop
  endfacet
  facet normal 0 0 1
    outer loop
      vertex 76.2 -2.38125 92.5512
      vertex 95.25 20.2581 92.5512
      vertex 76.2 41.7512 92.5512
    endloop
  endfacet
  facet normal 0 0 1
    outer loop
      vertex 95.25 20.2581 92.5512
      vertex 76.2 -2.38125 92.5512
      vertex 95.25 18.1501 92.5512
    endloop
  endfacet
  facet normal 0 0 1
    outer loop
      vertex 95.25 18.1501 92.5512
      vertex 76.2 -2.38125 92.5512
      vertex 95.25 16.9563 92.5512
    endloop
  endfacet
  facet normal 0 0 1
    outer loop
      vertex 95.25 16.9563 92.5512
      vertex 76.2 -2.38125 92.5512
      vertex 95.25 13.6511 92.5512
    endloop
  endfacet
  facet normal -0 0 1
    outer loop
      vertex 76.2 41.7512 92.5512
      vertex 95.25 26.3061 92.5512
      vertex 114.3 41.7512 92.5512
    endloop
  endfacet
  facet normal 0 0 1
    outer loop
      vertex 114.3 41.7512 92.5512
      vertex 100.584 23.5757 92.5512
      vertex 114.3 -2.38125 92.5512
    endloop
  endfacet
  facet normal -0 0 1
    outer loop
      vertex 100.609 12.5841 92.5512
      vertex 114.3 -2.38125 92.5512
      vertex 100.609 13.829 92.5512
    endloop
  endfacet
  facet normal 0 0 1
    outer loop
      vertex 97.2309 11.8221 92.5512
      vertex 100.609 12.5841 92.5512
      vertex 97.2309 12.5841 92.5512
    endloop
  endfacet
  facet normal 0 0 1
    outer loop
      vertex 100.609 12.5841 92.5512
      vertex 97.2309 11.8221 92.5512
      vertex 114.3 -2.38125 92.5512
    endloop
  endfacet
  facet normal -0 0 1
    outer loop
      vertex 96.393 11.8221 92.5512
      vertex 114.3 -2.38125 92.5512
      vertex 97.2309 11.8221 92.5512
    endloop
  endfacet
  facet normal 0 0 1
    outer loop
      vertex 76.2 -2.38125 92.5512
      vertex 96.393 11.8221 92.5512
      vertex 95.25 12.5841 92.5512
    endloop
  endfacet
  facet normal 0 0 1
    outer loop
      vertex 96.393 11.8221 92.5512
      vertex 76.2 -2.38125 92.5512
      vertex 114.3 -2.38125 92.5512
    endloop
  endfacet
  facet normal 0 0 1
    outer loop
      vertex 95.25 13.6511 92.5512
      vertex 76.2 -2.38125 92.5512
      vertex 95.25 12.5841 92.5512
    endloop
  endfacet
  facet normal 0 0 1
    outer loop
      vertex 99.5931 24.8838 92.5512
      vertex 99.7962 24.3505 92.5512
      vertex 99.7455 24.6617 92.5512
    endloop
  endfacet
  facet normal 0 0 1
    outer loop
      vertex 98.8568 23.7156 92.5512
      vertex 99.7521 24.0202 92.5512
      vertex 99.7962 24.3505 92.5512
    endloop
  endfacet
  facet normal 0 0 1
    outer loop
      vertex 99.3645 25.0365 92.5512
      vertex 99.7962 24.3505 92.5512
      vertex 99.5931 24.8838 92.5512
    endloop
  endfacet
  facet normal 0 -0 1
    outer loop
      vertex 99.187 23.6141 92.5512
      vertex 99.7521 24.0202 92.5512
      vertex 99.0153 23.6393 92.5512
    endloop
  endfacet
  facet normal 0 0 1
    outer loop
      vertex 98.8568 23.7156 92.5512
      vertex 99.7962 24.3505 92.5512
      vertex 99.3645 25.0365 92.5512
    endloop
  endfacet
  facet normal 0 0 1
    outer loop
      vertex 99.7521 24.0202 92.5512
      vertex 99.187 23.6141 92.5512
      vertex 99.6187 23.7916 92.5512
    endloop
  endfacet
  facet normal 0 0 1
    outer loop
      vertex 98.5265 23.9695 92.5512
      vertex 99.3645 25.0365 92.5512
      vertex 99.0343 25.138 92.5512
    endloop
  endfacet
  facet normal 0 0 1
    outer loop
      vertex 99.6187 23.7916 92.5512
      vertex 99.187 23.6141 92.5512
      vertex 99.4346 23.6582 92.5512
    endloop
  endfacet
  facet normal 0 0 1
    outer loop
      vertex 96.7991 19.1911 92.5512
      vertex 95.25 20.2581 92.5512
      vertex 95.25 18.1501 92.5512
    endloop
  endfacet
  facet normal 0 0 1
    outer loop
      vertex 99.3645 13.7464 92.5512
      vertex 99.5234 13.6255 92.5512
      vertex 99.6439 13.6003 92.5512
    endloop
  endfacet
  facet normal 0 0 1
    outer loop
      vertex 99.3645 13.7464 92.5512
      vertex 99.3137 13.6511 92.5512
      vertex 99.5234 13.6255 92.5512
    endloop
  endfacet
  facet normal 0 0 1
    outer loop
      vertex 98.9835 13.9813 92.5512
      vertex 99.3137 13.6511 92.5512
      vertex 99.3645 13.7464 92.5512
    endloop
  endfacet
  facet normal 0 0 1
    outer loop
      vertex 97.2309 13.6511 92.5512
      vertex 98.9835 13.9813 92.5512
      vertex 97.2309 15.2514 92.5512
    endloop
  endfacet
  facet normal 0 0 1
    outer loop
      vertex 98.9835 13.9813 92.5512
      vertex 97.2309 13.6511 92.5512
      vertex 99.3137 13.6511 92.5512
    endloop
  endfacet
  facet normal 0 0 -1
    outer loop
      vertex 0 39.37 0
      vertex 114.3 41.7512 0
      vertex 114.3 39.37 0
    endloop
  endfacet
  facet normal -0 0 -1
    outer loop
      vertex 114.3 41.7512 0
      vertex 0 39.37 0
      vertex 0 41.7512 0
    endloop
  endfacet
  facet normal 0 0 -1
    outer loop
      vertex 0 -2.38125 0
      vertex 114.3 0 0
      vertex 114.3 -2.38125 0
    endloop
  endfacet
  facet normal -0 0 -1
    outer loop
      vertex 114.3 0 0
      vertex 0 -2.38125 0
      vertex 0 0 0
    endloop
  endfacet
  facet normal -1 0 0
    outer loop
      vertex 0 0 0
      vertex 0 -2.38125 0
      vertex 0 0 90.17
    endloop
  endfacet
  facet normal -1 0 0
    outer loop
      vertex 0 39.37 90.17
      vertex 0 41.7512 0
      vertex 0 39.37 0
    endloop
  endfacet
  facet normal -1 0 0
    outer loop
      vertex 0 41.7512 0
      vertex 0 39.37 90.17
      vertex 0 41.7512 92.5512
    endloop
  endfacet
  facet normal -1 0 0
    outer loop
      vertex 0 0 90.17
      vertex 0 41.7512 92.5512
      vertex 0 39.37 90.17
    endloop
  endfacet
  facet normal -1 0 0
    outer loop
      vertex 0 0 90.17
      vertex 0 -2.38125 92.5512
      vertex 0 41.7512 92.5512
    endloop
  endfacet
  facet normal -1 0 0
    outer loop
      vertex 0 -2.38125 92.5512
      vertex 0 0 90.17
      vertex 0 -2.38125 0
    endloop
  endfacet
  facet normal 0 1 0
    outer loop
      vertex 114.3 41.7512 92.5512
      vertex 76.2 41.7512 44.45
      vertex 76.2 41.7512 92.5512
    endloop
  endfacet
  facet normal 0 1 0
    outer loop
      vertex 76.2 41.7512 44.45
      vertex 114.3 41.7512 0
      vertex 38.1 41.7512 44.45
    endloop
  endfacet
  facet normal 0 1 -0
    outer loop
      vertex 114.3 41.7512 0
      vertex 76.2 41.7512 44.45
      vertex 114.3 41.7512 92.5512
    endloop
  endfacet
  facet normal 0 1 -0
    outer loop
      vertex 38.1 41.7512 44.45
      vertex 0 41.7512 92.5512
      vertex 38.1 41.7512 92.5512
    endloop
  endfacet
  facet normal 0 1 0
    outer loop
      vertex 38.1 41.7512 44.45
      vertex 0 41.7512 0
      vertex 0 41.7512 92.5512
    endloop
  endfacet
  facet normal 0 1 0
    outer loop
      vertex 0 41.7512 0
      vertex 38.1 41.7512 44.45
      vertex 114.3 41.7512 0
    endloop
  endfacet
  facet normal 0 -1 0
    outer loop
      vertex 0 -2.38125 92.5512
      vertex 38.1 -2.38125 44.45
      vertex 38.1 -2.38125 92.5512
    endloop
  endfacet
  facet normal 0 -1 -0
    outer loop
      vertex 38.1 -2.38125 44.45
      vertex 0 -2.38125 0
      vertex 76.2 -2.38125 44.45
    endloop
  endfacet
  facet normal 0 -1 0
    outer loop
      vertex 0 -2.38125 0
      vertex 38.1 -2.38125 44.45
      vertex 0 -2.38125 92.5512
    endloop
  endfacet
  facet normal 0 -1 0
    outer loop
      vertex 76.2 -2.38125 44.45
      vertex 114.3 -2.38125 92.5512
      vertex 76.2 -2.38125 92.5512
    endloop
  endfacet
  facet normal 0 -1 0
    outer loop
      vertex 76.2 -2.38125 44.45
      vertex 114.3 -2.38125 0
      vertex 114.3 -2.38125 92.5512
    endloop
  endfacet
  facet normal 0 -1 0
    outer loop
      vertex 114.3 -2.38125 0
      vertex 76.2 -2.38125 44.45
      vertex 0 -2.38125 0
    endloop
  endfacet
  facet normal 0 0 -1
    outer loop
      vertex 0 0 90.17
      vertex 38.1 39.37 90.17
      vertex 38.1 0 90.17
    endloop
  endfacet
  facet normal -0 0 -1
    outer loop
      vertex 38.1 39.37 90.17
      vertex 0 0 90.17
      vertex 0 39.37 90.17
    endloop
  endfacet
  facet normal 0 0 -1
    outer loop
      vertex 76.2 0 90.17
      vertex 114.3 39.37 90.17
      vertex 114.3 0 90.17
    endloop
  endfacet
  facet normal -0 0 -1
    outer loop
      vertex 114.3 39.37 90.17
      vertex 76.2 0 90.17
      vertex 76.2 39.37 90.17
    endloop
  endfacet
  facet normal 0 -1 0
    outer loop
      vertex 0 39.37 90.17
      vertex 38.1 39.37 44.45
      vertex 38.1 39.37 90.17
    endloop
  endfacet
  facet normal 0 -1 -0
    outer loop
      vertex 38.1 39.37 44.45
      vertex 0 39.37 0
      vertex 76.2 39.37 44.45
    endloop
  endfacet
  facet normal 0 -1 0
    outer loop
      vertex 0 39.37 0
      vertex 38.1 39.37 44.45
      vertex 0 39.37 90.17
    endloop
  endfacet
  facet normal 0 -1 0
    outer loop
      vertex 76.2 39.37 44.45
      vertex 114.3 39.37 90.17
      vertex 76.2 39.37 90.17
    endloop
  endfacet
  facet normal 0 -1 0
    outer loop
      vertex 76.2 39.37 44.45
      vertex 114.3 39.37 0
      vertex 114.3 39.37 90.17
    endloop
  endfacet
  facet normal 0 -1 0
    outer loop
      vertex 114.3 39.37 0
      vertex 76.2 39.37 44.45
      vertex 0 39.37 0
    endloop
  endfacet
  facet normal 0 1 0
    outer loop
      vertex 114.3 0 90.17
      vertex 76.2 0 44.45
      vertex 76.2 0 90.17
    endloop
  endfacet
  facet normal 0 1 0
    outer loop
      vertex 76.2 0 44.45
      vertex 114.3 0 0
      vertex 38.1 0 44.45
    endloop
  endfacet
  facet normal 0 1 -0
    outer loop
      vertex 114.3 0 0
      vertex 76.2 0 44.45
      vertex 114.3 0 90.17
    endloop
  endfacet
  facet normal 0 1 -0
    outer loop
      vertex 38.1 0 44.45
      vertex 0 0 90.17
      vertex 38.1 0 90.17
    endloop
  endfacet
  facet normal 0 1 0
    outer loop
      vertex 38.1 0 44.45
      vertex 0 0 0
      vertex 0 0 90.17
    endloop
  endfacet
  facet normal 0 1 0
    outer loop
      vertex 0 0 0
      vertex 38.1 0 44.45
      vertex 114.3 0 0
    endloop
  endfacet
  facet normal -1 0 0
    outer loop
      vertex 76.2 0 44.45
      vertex 76.2 -2.38125 44.45
      vertex 76.2 0 90.17
    endloop
  endfacet
  facet normal -1 0 0
    outer loop
      vertex 76.2 39.37 90.17
      vertex 76.2 41.7512 44.45
      vertex 76.2 39.37 44.45
    endloop
  endfacet
  facet normal -1 0 0
    outer loop
      vertex 76.2 41.7512 44.45
      vertex 76.2 39.37 90.17
      vertex 76.2 41.7512 92.5512
    endloop
  endfacet
  facet normal -1 0 0
    outer loop
      vertex 76.2 0 90.17
      vertex 76.2 41.7512 92.5512
      vertex 76.2 39.37 90.17
    endloop
  endfacet
  facet normal -1 0 0
    outer loop
      vertex 76.2 0 90.17
      vertex 76.2 -2.38125 92.5512
      vertex 76.2 41.7512 92.5512
    endloop
  endfacet
  facet normal -1 0 0
    outer loop
      vertex 76.2 -2.38125 92.5512
      vertex 76.2 0 90.17
      vertex 76.2 -2.38125 44.45
    endloop
  endfacet
  facet normal -0 0 1
    outer loop
      vertex 38.1 41.7512 44.45
      vertex 76.2 39.37 44.45
      vertex 76.2 41.7512 44.45
    endloop
  endfacet
  facet normal 0 0 1
    outer loop
      vertex 76.2 39.37 44.45
      vertex 38.1 41.7512 44.45
      vertex 38.1 39.37 44.45
    endloop
  endfacet
  facet normal -0 0 1
    outer loop
      vertex 38.1 0 44.45
      vertex 76.2 -2.38125 44.45
      vertex 76.2 0 44.45
    endloop
  endfacet
  facet normal 0 0 1
    outer loop
      vertex 76.2 -2.38125 44.45
      vertex 38.1 0 44.45
      vertex 38.1 -2.38125 44.45
    endloop
  endfacet
  facet normal 1 0 0
    outer loop
      vertex 38.1 41.7512 92.5512
      vertex 38.1 39.37 90.17
      vertex 38.1 41.7512 44.45
    endloop
  endfacet
  facet normal 1 0 0
    outer loop
      vertex 38.1 41.7512 92.5512
      vertex 38.1 0 90.17
      vertex 38.1 39.37 90.17
    endloop
  endfacet
  facet normal 1 -0 0
    outer loop
      vertex 38.1 -2.38125 92.5512
      vertex 38.1 0 90.17
      vertex 38.1 41.7512 92.5512
    endloop
  endfacet
  facet normal 1 0 0
    outer loop
      vertex 38.1 -2.38125 44.45
      vertex 38.1 0 90.17
      vertex 38.1 -2.38125 92.5512
    endloop
  endfacet
  facet normal 1 0 0
    outer loop
      vertex 38.1 0 90.17
      vertex 38.1 -2.38125 44.45
      vertex 38.1 0 44.45
    endloop
  endfacet
  facet normal 1 0 0
    outer loop
      vertex 38.1 41.7512 44.45
      vertex 38.1 39.37 90.17
      vertex 38.1 39.37 44.45
    endloop
  endfacet
  facet normal -0 0 1
    outer loop
      vertex 99.7455 24.6617 91.2812
      vertex 100.685 24.3505 91.2812
      vertex 100.584 25.0996 91.2812
    endloop
  endfacet
  facet normal 0 0 1
    outer loop
      vertex 99.5931 24.8838 91.2812
      vertex 100.584 25.0996 91.2812
      vertex 100.279 25.6713 91.2812
    endloop
  endfacet
  facet normal 0 0 1
    outer loop
      vertex 99.7521 24.0202 91.2812
      vertex 100.685 24.3505 91.2812
      vertex 99.7962 24.3505 91.2812
    endloop
  endfacet
  facet normal 0 0 1
    outer loop
      vertex 100.685 24.3505 91.2812
      vertex 99.7521 24.0202 91.2812
      vertex 100.584 23.5757 91.2812
    endloop
  endfacet
  facet normal -0 0 1
    outer loop
      vertex 99.6187 23.7916 91.2812
      vertex 100.584 23.5757 91.2812
      vertex 99.7521 24.0202 91.2812
    endloop
  endfacet
  facet normal 0 0 1
    outer loop
      vertex 99.3645 25.0365 91.2812
      vertex 100.279 25.6713 91.2812
      vertex 99.7772 26.0585 91.2812
    endloop
  endfacet
  facet normal 0 0 1
    outer loop
      vertex 100.685 24.3505 91.2812
      vertex 99.7455 24.6617 91.2812
      vertex 99.7962 24.3505 91.2812
    endloop
  endfacet
  facet normal 0 0 1
    outer loop
      vertex 100.584 25.0996 91.2812
      vertex 99.5931 24.8838 91.2812
      vertex 99.7455 24.6617 91.2812
    endloop
  endfacet
  facet normal 0 0 1
    outer loop
      vertex 100.279 25.6713 91.2812
      vertex 99.3645 25.0365 91.2812
      vertex 99.5931 24.8838 91.2812
    endloop
  endfacet
  facet normal 0 0 1
    outer loop
      vertex 99.0343 25.138 91.2812
      vertex 99.7772 26.0585 91.2812
      vertex 99.085 26.2554 91.2812
    endloop
  endfacet
  facet normal 0 0 1
    outer loop
      vertex 99.7772 26.0585 91.2812
      vertex 99.0343 25.138 91.2812
      vertex 99.3645 25.0365 91.2812
    endloop
  endfacet
  facet normal 0 0 1
    outer loop
      vertex 100.584 23.5757 91.2812
      vertex 99.6187 23.7916 91.2812
      vertex 100.279 22.9788 91.2812
    endloop
  endfacet
  facet normal -0 0 1
    outer loop
      vertex 99.4346 23.6582 91.2812
      vertex 100.279 22.9788 91.2812
      vertex 99.6187 23.7916 91.2812
    endloop
  endfacet
  facet normal 0 0 1
    outer loop
      vertex 100.279 22.9788 91.2812
      vertex 99.4346 23.6582 91.2812
      vertex 99.828 22.5978 91.2812
    endloop
  endfacet
  facet normal 0 0 1
    outer loop
      vertex 99.4346 23.6582 91.2812
      vertex 99.2377 22.4707 91.2812
      vertex 99.828 22.5978 91.2812
    endloop
  endfacet
  facet normal -0 0 1
    outer loop
      vertex 99.187 23.6141 91.2812
      vertex 99.2377 22.4707 91.2812
      vertex 99.4346 23.6582 91.2812
    endloop
  endfacet
  facet normal 0 0 1
    outer loop
      vertex 98.8122 22.5409 91.2812
      vertex 99.187 23.6141 91.2812
      vertex 99.0153 23.6393 91.2812
    endloop
  endfacet
  facet normal 0 0 1
    outer loop
      vertex 98.3994 22.7502 91.2812
      vertex 99.0153 23.6393 91.2812
      vertex 98.8568 23.7156 91.2812
    endloop
  endfacet
  facet normal 0 0 1
    outer loop
      vertex 99.187 23.6141 91.2812
      vertex 98.8122 22.5409 91.2812
      vertex 99.2377 22.4707 91.2812
    endloop
  endfacet
  facet normal 0 0 1
    outer loop
      vertex 97.9867 23.0932 91.2812
      vertex 98.8568 23.7156 91.2812
      vertex 98.6979 23.8172 91.2812
    endloop
  endfacet
  facet normal 0 0 1
    outer loop
      vertex 97.9867 23.0932 91.2812
      vertex 98.6979 23.8172 91.2812
      vertex 98.5265 23.9695 91.2812
    endloop
  endfacet
  facet normal 0 0 1
    outer loop
      vertex 99.0153 23.6393 91.2812
      vertex 98.3994 22.7502 91.2812
      vertex 98.8122 22.5409 91.2812
    endloop
  endfacet
  facet normal 0 0 1
    outer loop
      vertex 97.5611 23.5629 91.2812
      vertex 98.5265 23.9695 91.2812
      vertex 98.2851 24.2171 91.2812
    endloop
  endfacet
  facet normal 0 0 1
    outer loop
      vertex 98.8568 23.7156 91.2812
      vertex 97.9867 23.0932 91.2812
      vertex 98.3994 22.7502 91.2812
    endloop
  endfacet
  facet normal 0 0 1
    outer loop
      vertex 97.5611 23.5629 91.2812
      vertex 98.2851 24.2171 91.2812
      vertex 97.9169 24.6551 91.2812
    endloop
  endfacet
  facet normal 0 0 1
    outer loop
      vertex 98.5265 23.9695 91.2812
      vertex 97.5611 23.5629 91.2812
      vertex 97.9867 23.0932 91.2812
    endloop
  endfacet
  facet normal 0 0 1
    outer loop
      vertex 97.0406 24.2043 91.2812
      vertex 97.9169 24.6551 91.2812
      vertex 97.3708 25.2837 91.2812
    endloop
  endfacet
  facet normal 0 0 1
    outer loop
      vertex 97.9169 24.6551 91.2812
      vertex 97.0406 24.2043 91.2812
      vertex 97.5611 23.5629 91.2812
    endloop
  endfacet
  facet normal 0 0 1
    outer loop
      vertex 96.4371 24.8268 91.2812
      vertex 97.3708 25.2837 91.2812
      vertex 96.9007 25.7477 91.2812
    endloop
  endfacet
  facet normal 0 0 1
    outer loop
      vertex 97.3708 25.2837 91.2812
      vertex 96.6976 24.6043 91.2812
      vertex 97.0406 24.2043 91.2812
    endloop
  endfacet
  facet normal 0 0 1
    outer loop
      vertex 96.1643 24.9853 91.2812
      vertex 96.9007 25.7477 91.2812
      vertex 96.4627 26.0651 91.2812
    endloop
  endfacet
  facet normal 0 0 1
    outer loop
      vertex 97.3708 25.2837 91.2812
      vertex 96.4371 24.8268 91.2812
      vertex 96.6976 24.6043 91.2812
    endloop
  endfacet
  facet normal 0 0 1
    outer loop
      vertex 96.9007 25.7477 91.2812
      vertex 96.1643 24.9853 91.2812
      vertex 96.4371 24.8268 91.2812
    endloop
  endfacet
  facet normal 0 0 1
    outer loop
      vertex 96.012 26.3061 91.2812
      vertex 96.1643 24.9853 91.2812
      vertex 96.4627 26.0651 91.2812
    endloop
  endfacet
  facet normal -0 0 1
    outer loop
      vertex 95.25 26.3061 91.2812
      vertex 96.1643 24.9853 91.2812
      vertex 96.012 26.3061 91.2812
    endloop
  endfacet
  facet normal 0 0 1
    outer loop
      vertex 96.1643 24.9853 91.2812
      vertex 95.25 26.3061 91.2812
      vertex 95.25 22.3948 91.2812
    endloop
  endfacet
  facet normal 0 0 1
    outer loop
      vertex 96.1643 24.9853 91.2812
      vertex 95.25 22.3948 91.2812
      vertex 96.1643 22.3948 91.2812
    endloop
  endfacet
  facet normal -0 0 1
    outer loop
      vertex 95.25 13.6511 91.2812
      vertex 96.393 12.5841 91.2812
      vertex 96.393 13.6511 91.2812
    endloop
  endfacet
  facet normal 0 0 1
    outer loop
      vertex 96.393 12.5841 91.2812
      vertex 95.25 13.6511 91.2812
      vertex 95.25 12.5841 91.2812
    endloop
  endfacet
  facet normal 0 0 1
    outer loop
      vertex 100.609 13.829 91.2812
      vertex 99.6439 13.6003 91.2812
      vertex 100.609 12.5841 91.2812
    endloop
  endfacet
  facet normal 0 0 1
    outer loop
      vertex 100.609 13.829 91.2812
      vertex 99.3645 13.7464 91.2812
      vertex 99.6439 13.6003 91.2812
    endloop
  endfacet
  facet normal 0 0 1
    outer loop
      vertex 100.609 13.829 91.2812
      vertex 98.9835 13.9813 91.2812
      vertex 99.3645 13.7464 91.2812
    endloop
  endfacet
  facet normal 0 0 1
    outer loop
      vertex 97.2309 16.1913 91.2812
      vertex 98.9835 13.9813 91.2812
      vertex 100.609 13.829 91.2812
    endloop
  endfacet
  facet normal 0 0 1
    outer loop
      vertex 97.2309 16.1913 91.2812
      vertex 97.2309 15.2514 91.2812
      vertex 98.9835 13.9813 91.2812
    endloop
  endfacet
  facet normal -0 0 1
    outer loop
      vertex 96.393 16.1913 91.2812
      vertex 97.2309 15.2514 91.2812
      vertex 97.2309 16.1913 91.2812
    endloop
  endfacet
  facet normal 0 0 1
    outer loop
      vertex 97.2309 15.2514 91.2812
      vertex 96.393 13.6511 91.2812
      vertex 97.2309 13.6511 91.2812
    endloop
  endfacet
  facet normal 0 0 1
    outer loop
      vertex 97.2309 13.6511 91.2812
      vertex 96.393 13.6511 91.2812
      vertex 97.2309 12.5841 91.2812
    endloop
  endfacet
  facet normal 0 0 1
    outer loop
      vertex 97.2309 15.2514 91.2812
      vertex 96.393 16.1913 91.2812
      vertex 96.393 13.6511 91.2812
    endloop
  endfacet
  facet normal 0 0 1
    outer loop
      vertex 96.393 12.5841 91.2812
      vertex 97.2309 12.5841 91.2812
      vertex 96.393 13.6511 91.2812
    endloop
  endfacet
  facet normal 0 0 1
    outer loop
      vertex 97.2309 12.5841 91.2812
      vertex 96.393 12.5841 91.2812
      vertex 97.2309 11.8221 91.2812
    endloop
  endfacet
  facet normal 0 0 1
    outer loop
      vertex 97.2309 11.8221 91.2812
      vertex 96.393 12.5841 91.2812
      vertex 96.393 11.8221 91.2812
    endloop
  endfacet
  facet normal 0 0 1
    outer loop
      vertex 99.5234 13.6255 91.2812
      vertex 100.609 12.5841 91.2812
      vertex 99.6439 13.6003 91.2812
    endloop
  endfacet
  facet normal 0 0 1
    outer loop
      vertex 99.3137 13.6511 91.2812
      vertex 100.609 12.5841 91.2812
      vertex 99.5234 13.6255 91.2812
    endloop
  endfacet
  facet normal 0 0 1
    outer loop
      vertex 97.2309 12.5841 91.2812
      vertex 99.3137 13.6511 91.2812
      vertex 97.2309 13.6511 91.2812
    endloop
  endfacet
  facet normal 0 0 1
    outer loop
      vertex 99.3137 13.6511 91.2812
      vertex 97.2309 12.5841 91.2812
      vertex 100.609 12.5841 91.2812
    endloop
  endfacet
  facet normal -0 0 1
    outer loop
      vertex 95.25 20.2581 91.2812
      vertex 97.4596 19.8259 91.2812
      vertex 95.25 21.4262 91.2812
    endloop
  endfacet
  facet normal 0 0 1
    outer loop
      vertex 97.4596 19.8259 91.2812
      vertex 95.25 20.2581 91.2812
      vertex 96.7991 19.1911 91.2812
    endloop
  endfacet
  facet normal 0 0 1
    outer loop
      vertex 97.4596 19.8259 91.2812
      vertex 99.5424 20.1561 91.2812
      vertex 99.5424 21.3502 91.2812
    endloop
  endfacet
  facet normal 0 0 1
    outer loop
      vertex 99.5424 20.1561 91.2812
      vertex 97.4596 19.8259 91.2812
      vertex 98.1456 19.1911 91.2812
    endloop
  endfacet
  facet normal 0 0 1
    outer loop
      vertex 98.1456 19.1911 91.2812
      vertex 97.4596 19.8259 91.2812
      vertex 97.4851 18.5818 91.2812
    endloop
  endfacet
  facet normal -0 0 1
    outer loop
      vertex 96.7991 19.1911 91.2812
      vertex 97.4851 18.5818 91.2812
      vertex 97.4596 19.8259 91.2812
    endloop
  endfacet
  facet normal 0 0 1
    outer loop
      vertex 95.25 18.1501 91.2812
      vertex 97.4851 18.5818 91.2812
      vertex 96.7991 19.1911 91.2812
    endloop
  endfacet
  facet normal 0 0 1
    outer loop
      vertex 97.4851 18.5818 91.2812
      vertex 95.25 18.1501 91.2812
      vertex 95.25 16.9563 91.2812
    endloop
  endfacet
  facet normal -0 0 1
    outer loop
      vertex 97.4851 18.5818 91.2812
      vertex 99.5424 18.2516 91.2812
      vertex 98.1456 19.1911 91.2812
    endloop
  endfacet
  facet normal 0 0 1
    outer loop
      vertex 99.5424 18.2516 91.2812
      vertex 97.4851 18.5818 91.2812
      vertex 99.5424 17.0323 91.2812
    endloop
  endfacet
  facet normal -1 0 0
    outer loop
      vertex 96.1643 22.3948 91.2812
      vertex 96.1643 24.9853 92.5512
      vertex 96.1643 24.9853 91.2812
    endloop
  endfacet
  facet normal -1 -0 0
    outer loop
      vertex 96.1643 24.9853 92.5512
      vertex 96.1643 22.3948 91.2812
      vertex 96.1643 22.3948 92.5512
    endloop
  endfacet
  facet normal 0.502373 0.864651 -0
    outer loop
      vertex 96.4371 24.8268 91.2812
      vertex 96.1643 24.9853 92.5512
      vertex 96.4371 24.8268 92.5512
    endloop
  endfacet
  facet normal 0.502373 0.864651 0
    outer loop
      vertex 96.1643 24.9853 92.5512
      vertex 96.4371 24.8268 91.2812
      vertex 96.1643 24.9853 91.2812
    endloop
  endfacet
  facet normal 0.649468 0.760389 -0
    outer loop
      vertex 96.6976 24.6043 91.2812
      vertex 96.4371 24.8268 92.5512
      vertex 96.6976 24.6043 92.5512
    endloop
  endfacet
  facet normal 0.649468 0.760389 0
    outer loop
      vertex 96.4371 24.8268 92.5512
      vertex 96.6976 24.6043 91.2812
      vertex 96.4371 24.8268 91.2812
    endloop
  endfacet
  facet normal 0.759123 0.650948 0
    outer loop
      vertex 97.0406 24.2043 92.5512
      vertex 96.6976 24.6043 91.2812
      vertex 96.6976 24.6043 92.5512
    endloop
  endfacet
  facet normal 0.759123 0.650948 0
    outer loop
      vertex 96.6976 24.6043 91.2812
      vertex 97.0406 24.2043 92.5512
      vertex 97.0406 24.2043 91.2812
    endloop
  endfacet
  facet normal 0.776492 0.630128 0
    outer loop
      vertex 97.5611 23.5629 92.5512
      vertex 97.0406 24.2043 91.2812
      vertex 97.0406 24.2043 92.5512
    endloop
  endfacet
  facet normal 0.776492 0.630128 0
    outer loop
      vertex 97.0406 24.2043 91.2812
      vertex 97.5611 23.5629 92.5512
      vertex 97.5611 23.5629 91.2812
    endloop
  endfacet
  facet normal 0.741038 0.671463 0
    outer loop
      vertex 97.9867 23.0932 92.5512
      vertex 97.5611 23.5629 91.2812
      vertex 97.5611 23.5629 92.5512
    endloop
  endfacet
  facet normal 0.741038 0.671463 0
    outer loop
      vertex 97.5611 23.5629 91.2812
      vertex 97.9867 23.0932 92.5512
      vertex 97.9867 23.0932 91.2812
    endloop
  endfacet
  facet normal 0.639176 0.769061 -0
    outer loop
      vertex 98.3994 22.7502 91.2812
      vertex 97.9867 23.0932 92.5512
      vertex 98.3994 22.7502 92.5512
    endloop
  endfacet
  facet normal 0.639176 0.769061 0
    outer loop
      vertex 97.9867 23.0932 92.5512
      vertex 98.3994 22.7502 91.2812
      vertex 97.9867 23.0932 91.2812
    endloop
  endfacet
  facet normal 0.452219 0.891907 -0
    outer loop
      vertex 98.8122 22.5409 91.2812
      vertex 98.3994 22.7502 92.5512
      vertex 98.8122 22.5409 92.5512
    endloop
  endfacet
  facet normal 0.452219 0.891907 0
    outer loop
      vertex 98.3994 22.7502 92.5512
      vertex 98.8122 22.5409 91.2812
      vertex 98.3994 22.7502 91.2812
    endloop
  endfacet
  facet normal 0.162782 0.986662 -0
    outer loop
      vertex 99.2377 22.4707 91.2812
      vertex 98.8122 22.5409 92.5512
      vertex 99.2377 22.4707 92.5512
    endloop
  endfacet
  facet normal 0.162782 0.986662 0
    outer loop
      vertex 98.8122 22.5409 92.5512
      vertex 99.2377 22.4707 91.2812
      vertex 98.8122 22.5409 91.2812
    endloop
  endfacet
  facet normal -0.21049 0.977596 0
    outer loop
      vertex 99.828 22.5978 91.2812
      vertex 99.2377 22.4707 92.5512
      vertex 99.828 22.5978 92.5512
    endloop
  endfacet
  facet normal -0.21049 0.977596 0
    outer loop
      vertex 99.2377 22.4707 92.5512
      vertex 99.828 22.5978 91.2812
      vertex 99.2377 22.4707 91.2812
    endloop
  endfacet
  facet normal -0.645335 0.7639 0
    outer loop
      vertex 100.279 22.9788 91.2812
      vertex 99.828 22.5978 92.5512
      vertex 100.279 22.9788 92.5512
    endloop
  endfacet
  facet normal -0.645335 0.7639 0
    outer loop
      vertex 99.828 22.5978 92.5512
      vertex 100.279 22.9788 91.2812
      vertex 99.828 22.5978 91.2812
    endloop
  endfacet
  facet normal -0.890484 0.455014 0
    outer loop
      vertex 100.279 22.9788 91.2812
      vertex 100.584 23.5757 92.5512
      vertex 100.584 23.5757 91.2812
    endloop
  endfacet
  facet normal -0.890484 0.455014 0
    outer loop
      vertex 100.584 23.5757 92.5512
      vertex 100.279 22.9788 91.2812
      vertex 100.279 22.9788 92.5512
    endloop
  endfacet
  facet normal -0.99161 0.129263 0
    outer loop
      vertex 100.584 23.5757 91.2812
      vertex 100.685 24.3505 92.5512
      vertex 100.685 24.3505 91.2812
    endloop
  endfacet
  facet normal -0.99161 0.129263 0
    outer loop
      vertex 100.685 24.3505 92.5512
      vertex 100.584 23.5757 91.2812
      vertex 100.584 23.5757 92.5512
    endloop
  endfacet
  facet normal -0.991033 -0.133619 0
    outer loop
      vertex 100.685 24.3505 91.2812
      vertex 100.584 25.0996 92.5512
      vertex 100.584 25.0996 91.2812
    endloop
  endfacet
  facet normal -0.991033 -0.133619 0
    outer loop
      vertex 100.584 25.0996 92.5512
      vertex 100.685 24.3505 91.2812
      vertex 100.685 24.3505 92.5512
    endloop
  endfacet
  facet normal -0.882293 -0.4707 0
    outer loop
      vertex 100.584 25.0996 91.2812
      vertex 100.279 25.6713 92.5512
      vertex 100.279 25.6713 91.2812
    endloop
  endfacet
  facet normal -0.882293 -0.4707 0
    outer loop
      vertex 100.279 25.6713 92.5512
      vertex 100.584 25.0996 91.2812
      vertex 100.584 25.0996 92.5512
    endloop
  endfacet
  facet normal -0.6109 -0.791708 0
    outer loop
      vertex 99.7772 26.0585 91.2812
      vertex 100.279 25.6713 92.5512
      vertex 99.7772 26.0585 92.5512
    endloop
  endfacet
  facet normal -0.6109 -0.791708 -0
    outer loop
      vertex 100.279 25.6713 92.5512
      vertex 99.7772 26.0585 91.2812
      vertex 100.279 25.6713 91.2812
    endloop
  endfacet
  facet normal -0.273601 -0.961843 0
    outer loop
      vertex 99.085 26.2554 91.2812
      vertex 99.7772 26.0585 92.5512
      vertex 99.085 26.2554 92.5512
    endloop
  endfacet
  facet normal -0.273601 -0.961843 -0
    outer loop
      vertex 99.7772 26.0585 92.5512
      vertex 99.085 26.2554 91.2812
      vertex 99.7772 26.0585 91.2812
    endloop
  endfacet
  facet normal 0.998972 -0.0453266 0
    outer loop
      vertex 99.0343 25.138 92.5512
      vertex 99.085 26.2554 91.2812
      vertex 99.085 26.2554 92.5512
    endloop
  endfacet
  facet normal 0.998972 -0.0453266 0
    outer loop
      vertex 99.085 26.2554 91.2812
      vertex 99.0343 25.138 92.5512
      vertex 99.0343 25.138 91.2812
    endloop
  endfacet
  facet normal 0.293821 0.95586 -0
    outer loop
      vertex 99.3645 25.0365 91.2812
      vertex 99.0343 25.138 92.5512
      vertex 99.3645 25.0365 92.5512
    endloop
  endfacet
  facet normal 0.293821 0.95586 0
    outer loop
      vertex 99.0343 25.138 92.5512
      vertex 99.3645 25.0365 91.2812
      vertex 99.0343 25.138 91.2812
    endloop
  endfacet
  facet normal 0.555455 0.831546 -0
    outer loop
      vertex 99.5931 24.8838 91.2812
      vertex 99.3645 25.0365 92.5512
      vertex 99.5931 24.8838 92.5512
    endloop
  endfacet
  facet normal 0.555455 0.831546 0
    outer loop
      vertex 99.3645 25.0365 92.5512
      vertex 99.5931 24.8838 91.2812
      vertex 99.3645 25.0365 91.2812
    endloop
  endfacet
  facet normal 0.824551 0.565788 0
    outer loop
      vertex 99.7455 24.6617 92.5512
      vertex 99.5931 24.8838 91.2812
      vertex 99.5931 24.8838 92.5512
    endloop
  endfacet
  facet normal 0.824551 0.565788 0
    outer loop
      vertex 99.5931 24.8838 91.2812
      vertex 99.7455 24.6617 92.5512
      vertex 99.7455 24.6617 91.2812
    endloop
  endfacet
  facet normal 0.986987 0.160798 0
    outer loop
      vertex 99.7962 24.3505 92.5512
      vertex 99.7455 24.6617 91.2812
      vertex 99.7455 24.6617 92.5512
    endloop
  endfacet
  facet normal 0.986987 0.160798 0
    outer loop
      vertex 99.7455 24.6617 91.2812
      vertex 99.7962 24.3505 92.5512
      vertex 99.7962 24.3505 91.2812
    endloop
  endfacet
  facet normal 0.991204 -0.132341 0
    outer loop
      vertex 99.7521 24.0202 92.5512
      vertex 99.7962 24.3505 91.2812
      vertex 99.7962 24.3505 92.5512
    endloop
  endfacet
  facet normal 0.991204 -0.132341 0
    outer loop
      vertex 99.7962 24.3505 91.2812
      vertex 99.7521 24.0202 92.5512
      vertex 99.7521 24.0202 91.2812
    endloop
  endfacet
  facet normal 0.863697 -0.504012 0
    outer loop
      vertex 99.6187 23.7916 92.5512
      vertex 99.7521 24.0202 91.2812
      vertex 99.7521 24.0202 92.5512
    endloop
  endfacet
  facet normal 0.863697 -0.504012 0
    outer loop
      vertex 99.7521 24.0202 91.2812
      vertex 99.6187 23.7916 92.5512
      vertex 99.6187 23.7916 91.2812
    endloop
  endfacet
  facet normal 0.586759 -0.809762 0
    outer loop
      vertex 99.4346 23.6582 91.2812
      vertex 99.6187 23.7916 92.5512
      vertex 99.4346 23.6582 92.5512
    endloop
  endfacet
  facet normal 0.586759 -0.809762 0
    outer loop
      vertex 99.6187 23.7916 92.5512
      vertex 99.4346 23.6582 91.2812
      vertex 99.6187 23.7916 91.2812
    endloop
  endfacet
  facet normal 0.17535 -0.984506 0
    outer loop
      vertex 99.187 23.6141 91.2812
      vertex 99.4346 23.6582 92.5512
      vertex 99.187 23.6141 92.5512
    endloop
  endfacet
  facet normal 0.17535 -0.984506 0
    outer loop
      vertex 99.4346 23.6582 92.5512
      vertex 99.187 23.6141 91.2812
      vertex 99.4346 23.6582 91.2812
    endloop
  endfacet
  facet normal -0.145212 -0.989401 0
    outer loop
      vertex 99.0153 23.6393 91.2812
      vertex 99.187 23.6141 92.5512
      vertex 99.0153 23.6393 92.5512
    endloop
  endfacet
  facet normal -0.145212 -0.989401 -0
    outer loop
      vertex 99.187 23.6141 92.5512
      vertex 99.0153 23.6393 91.2812
      vertex 99.187 23.6141 91.2812
    endloop
  endfacet
  facet normal -0.433747 -0.901035 0
    outer loop
      vertex 98.8568 23.7156 91.2812
      vertex 99.0153 23.6393 92.5512
      vertex 98.8568 23.7156 92.5512
    endloop
  endfacet
  facet normal -0.433747 -0.901035 -0
    outer loop
      vertex 99.0153 23.6393 92.5512
      vertex 98.8568 23.7156 91.2812
      vertex 99.0153 23.6393 91.2812
    endloop
  endfacet
  facet normal -0.538693 -0.842502 0
    outer loop
      vertex 98.6979 23.8172 91.2812
      vertex 98.8568 23.7156 92.5512
      vertex 98.6979 23.8172 92.5512
    endloop
  endfacet
  facet normal -0.538693 -0.842502 -0
    outer loop
      vertex 98.8568 23.7156 92.5512
      vertex 98.6979 23.8172 91.2812
      vertex 98.8568 23.7156 91.2812
    endloop
  endfacet
  facet normal -0.664228 -0.74753 0
    outer loop
      vertex 98.5265 23.9695 91.2812
      vertex 98.6979 23.8172 92.5512
      vertex 98.5265 23.9695 92.5512
    endloop
  endfacet
  facet normal -0.664228 -0.74753 -0
    outer loop
      vertex 98.6979 23.8172 92.5512
      vertex 98.5265 23.9695 91.2812
      vertex 98.6979 23.8172 91.2812
    endloop
  endfacet
  facet normal -0.716015 -0.698085 0
    outer loop
      vertex 98.5265 23.9695 91.2812
      vertex 98.2851 24.2171 92.5512
      vertex 98.2851 24.2171 91.2812
    endloop
  endfacet
  facet normal -0.716015 -0.698085 0
    outer loop
      vertex 98.2851 24.2171 92.5512
      vertex 98.5265 23.9695 91.2812
      vertex 98.5265 23.9695 92.5512
    endloop
  endfacet
  facet normal -0.765464 -0.643479 0
    outer loop
      vertex 98.2851 24.2171 91.2812
      vertex 97.9169 24.6551 92.5512
      vertex 97.9169 24.6551 91.2812
    endloop
  endfacet
  facet normal -0.765464 -0.643479 0
    outer loop
      vertex 97.9169 24.6551 92.5512
      vertex 98.2851 24.2171 91.2812
      vertex 98.2851 24.2171 92.5512
    endloop
  endfacet
  facet normal -0.754908 -0.655831 0
    outer loop
      vertex 97.9169 24.6551 91.2812
      vertex 97.3708 25.2837 92.5512
      vertex 97.3708 25.2837 91.2812
    endloop
  endfacet
  facet normal -0.754908 -0.655831 0
    outer loop
      vertex 97.3708 25.2837 92.5512
      vertex 97.9169 24.6551 91.2812
      vertex 97.9169 24.6551 92.5512
    endloop
  endfacet
  facet normal -0.702474 -0.711709 0
    outer loop
      vertex 96.9007 25.7477 91.2812
      vertex 97.3708 25.2837 92.5512
      vertex 96.9007 25.7477 92.5512
    endloop
  endfacet
  facet normal -0.702474 -0.711709 -0
    outer loop
      vertex 97.3708 25.2837 92.5512
      vertex 96.9007 25.7477 91.2812
      vertex 97.3708 25.2837 91.2812
    endloop
  endfacet
  facet normal -0.586786 -0.809742 0
    outer loop
      vertex 96.4627 26.0651 91.2812
      vertex 96.9007 25.7477 92.5512
      vertex 96.4627 26.0651 92.5512
    endloop
  endfacet
  facet normal -0.586786 -0.809742 -0
    outer loop
      vertex 96.9007 25.7477 92.5512
      vertex 96.4627 26.0651 91.2812
      vertex 96.9007 25.7477 91.2812
    endloop
  endfacet
  facet normal -0.471543 -0.881843 0
    outer loop
      vertex 96.012 26.3061 91.2812
      vertex 96.4627 26.0651 92.5512
      vertex 96.012 26.3061 92.5512
    endloop
  endfacet
  facet normal -0.471543 -0.881843 -0
    outer loop
      vertex 96.4627 26.0651 92.5512
      vertex 96.012 26.3061 91.2812
      vertex 96.4627 26.0651 91.2812
    endloop
  endfacet
  facet normal 0 -1 0
    outer loop
      vertex 95.25 26.3061 91.2812
      vertex 96.012 26.3061 92.5512
      vertex 95.25 26.3061 92.5512
    endloop
  endfacet
  facet normal 0 -1 -0
    outer loop
      vertex 96.012 26.3061 92.5512
      vertex 95.25 26.3061 91.2812
      vertex 96.012 26.3061 91.2812
    endloop
  endfacet
  facet normal 1 -0 0
    outer loop
      vertex 95.25 22.3948 92.5512
      vertex 95.25 26.3061 91.2812
      vertex 95.25 26.3061 92.5512
    endloop
  endfacet
  facet normal 1 0 0
    outer loop
      vertex 95.25 26.3061 91.2812
      vertex 95.25 22.3948 92.5512
      vertex 95.25 22.3948 91.2812
    endloop
  endfacet
  facet normal 0 1 -0
    outer loop
      vertex 96.1643 22.3948 91.2812
      vertex 95.25 22.3948 92.5512
      vertex 96.1643 22.3948 92.5512
    endloop
  endfacet
  facet normal 0 1 0
    outer loop
      vertex 95.25 22.3948 92.5512
      vertex 96.1643 22.3948 91.2812
      vertex 95.25 22.3948 91.2812
    endloop
  endfacet
  facet normal 1 -0 0
    outer loop
      vertex 96.393 11.8221 92.5512
      vertex 96.393 12.5841 91.2812
      vertex 96.393 12.5841 92.5512
    endloop
  endfacet
  facet normal 1 0 0
    outer loop
      vertex 96.393 12.5841 91.2812
      vertex 96.393 11.8221 92.5512
      vertex 96.393 11.8221 91.2812
    endloop
  endfacet
  facet normal 0 1 -0
    outer loop
      vertex 97.2309 11.8221 91.2812
      vertex 96.393 11.8221 92.5512
      vertex 97.2309 11.8221 92.5512
    endloop
  endfacet
  facet normal 0 1 0
    outer loop
      vertex 96.393 11.8221 92.5512
      vertex 97.2309 11.8221 91.2812
      vertex 96.393 11.8221 91.2812
    endloop
  endfacet
  facet normal -1 0 0
    outer loop
      vertex 97.2309 11.8221 91.2812
      vertex 97.2309 12.5841 92.5512
      vertex 97.2309 12.5841 91.2812
    endloop
  endfacet
  facet normal -1 -0 0
    outer loop
      vertex 97.2309 12.5841 92.5512
      vertex 97.2309 11.8221 91.2812
      vertex 97.2309 11.8221 92.5512
    endloop
  endfacet
  facet normal 0 1 -0
    outer loop
      vertex 100.609 12.5841 91.2812
      vertex 97.2309 12.5841 92.5512
      vertex 100.609 12.5841 92.5512
    endloop
  endfacet
  facet normal 0 1 0
    outer loop
      vertex 97.2309 12.5841 92.5512
      vertex 100.609 12.5841 91.2812
      vertex 97.2309 12.5841 91.2812
    endloop
  endfacet
  facet normal -1 0 0
    outer loop
      vertex 100.609 12.5841 91.2812
      vertex 100.609 13.829 92.5512
      vertex 100.609 13.829 91.2812
    endloop
  endfacet
  facet normal -1 -0 0
    outer loop
      vertex 100.609 13.829 92.5512
      vertex 100.609 12.5841 91.2812
      vertex 100.609 12.5841 92.5512
    endloop
  endfacet
  facet normal -0.573076 -0.819502 0
    outer loop
      vertex 97.2309 16.1913 91.2812
      vertex 100.609 13.829 92.5512
      vertex 97.2309 16.1913 92.5512
    endloop
  endfacet
  facet normal -0.573076 -0.819502 -0
    outer loop
      vertex 100.609 13.829 92.5512
      vertex 97.2309 16.1913 91.2812
      vertex 100.609 13.829 91.2812
    endloop
  endfacet
  facet normal 0 -1 0
    outer loop
      vertex 96.393 16.1913 91.2812
      vertex 97.2309 16.1913 92.5512
      vertex 96.393 16.1913 92.5512
    endloop
  endfacet
  facet normal 0 -1 -0
    outer loop
      vertex 97.2309 16.1913 92.5512
      vertex 96.393 16.1913 91.2812
      vertex 97.2309 16.1913 91.2812
    endloop
  endfacet
  facet normal 1 -0 0
    outer loop
      vertex 96.393 13.6511 92.5512
      vertex 96.393 16.1913 91.2812
      vertex 96.393 16.1913 92.5512
    endloop
  endfacet
  facet normal 1 0 0
    outer loop
      vertex 96.393 16.1913 91.2812
      vertex 96.393 13.6511 92.5512
      vertex 96.393 13.6511 91.2812
    endloop
  endfacet
  facet normal 0 -1 0
    outer loop
      vertex 95.25 13.6511 91.2812
      vertex 96.393 13.6511 92.5512
      vertex 95.25 13.6511 92.5512
    endloop
  endfacet
  facet normal 0 -1 -0
    outer loop
      vertex 96.393 13.6511 92.5512
      vertex 95.25 13.6511 91.2812
      vertex 96.393 13.6511 91.2812
    endloop
  endfacet
  facet normal 1 -0 0
    outer loop
      vertex 95.25 12.5841 92.5512
      vertex 95.25 13.6511 91.2812
      vertex 95.25 13.6511 92.5512
    endloop
  endfacet
  facet normal 1 0 0
    outer loop
      vertex 95.25 13.6511 91.2812
      vertex 95.25 12.5841 92.5512
      vertex 95.25 12.5841 91.2812
    endloop
  endfacet
  facet normal 0 1 -0
    outer loop
      vertex 96.393 12.5841 91.2812
      vertex 95.25 12.5841 92.5512
      vertex 96.393 12.5841 92.5512
    endloop
  endfacet
  facet normal 0 1 0
    outer loop
      vertex 95.25 12.5841 92.5512
      vertex 96.393 12.5841 91.2812
      vertex 95.25 12.5841 91.2812
    endloop
  endfacet
  facet normal 0.586806 0.809728 -0
    outer loop
      vertex 98.9835 13.9813 91.2812
      vertex 97.2309 15.2514 92.5512
      vertex 98.9835 13.9813 92.5512
    endloop
  endfacet
  facet normal 0.586806 0.809728 0
    outer loop
      vertex 97.2309 15.2514 92.5512
      vertex 98.9835 13.9813 91.2812
      vertex 97.2309 15.2514 91.2812
    endloop
  endfacet
  facet normal 0.524808 0.851221 -0
    outer loop
      vertex 99.3645 13.7464 91.2812
      vertex 98.9835 13.9813 92.5512
      vertex 99.3645 13.7464 92.5512
    endloop
  endfacet
  facet normal 0.524808 0.851221 0
    outer loop
      vertex 98.9835 13.9813 92.5512
      vertex 99.3645 13.7464 91.2812
      vertex 98.9835 13.9813 91.2812
    endloop
  endfacet
  facet normal 0.463379 0.88616 -0
    outer loop
      vertex 99.6439 13.6003 91.2812
      vertex 99.3645 13.7464 92.5512
      vertex 99.6439 13.6003 92.5512
    endloop
  endfacet
  facet normal 0.463379 0.88616 0
    outer loop
      vertex 99.3645 13.7464 92.5512
      vertex 99.6439 13.6003 91.2812
      vertex 99.3645 13.7464 91.2812
    endloop
  endfacet
  facet normal -0.2047 -0.978825 0
    outer loop
      vertex 99.5234 13.6255 91.2812
      vertex 99.6439 13.6003 92.5512
      vertex 99.5234 13.6255 92.5512
    endloop
  endfacet
  facet normal -0.2047 -0.978825 -0
    outer loop
      vertex 99.6439 13.6003 92.5512
      vertex 99.5234 13.6255 91.2812
      vertex 99.6439 13.6003 91.2812
    endloop
  endfacet
  facet normal -0.12118 -0.992631 0
    outer loop
      vertex 99.3137 13.6511 91.2812
      vertex 99.5234 13.6255 92.5512
      vertex 99.3137 13.6511 92.5512
    endloop
  endfacet
  facet normal -0.12118 -0.992631 -0
    outer loop
      vertex 99.5234 13.6255 92.5512
      vertex 99.3137 13.6511 91.2812
      vertex 99.5234 13.6255 91.2812
    endloop
  endfacet
  facet normal 0 -1 0
    outer loop
      vertex 97.2309 13.6511 91.2812
      vertex 99.3137 13.6511 92.5512
      vertex 97.2309 13.6511 92.5512
    endloop
  endfacet
  facet normal 0 -1 -0
    outer loop
      vertex 99.3137 13.6511 92.5512
      vertex 97.2309 13.6511 91.2812
      vertex 99.3137 13.6511 91.2812
    endloop
  endfacet
  facet normal -1 0 0
    outer loop
      vertex 97.2309 13.6511 91.2812
      vertex 97.2309 15.2514 92.5512
      vertex 97.2309 15.2514 91.2812
    endloop
  endfacet
  facet normal -1 -0 0
    outer loop
      vertex 97.2309 15.2514 92.5512
      vertex 97.2309 13.6511 91.2812
      vertex 97.2309 13.6511 92.5512
    endloop
  endfacet
  facet normal 0.557763 -0.83 0
    outer loop
      vertex 95.25 18.1501 91.2812
      vertex 96.7991 19.1911 92.5512
      vertex 95.25 18.1501 92.5512
    endloop
  endfacet
  facet normal 0.557763 -0.83 0
    outer loop
      vertex 96.7991 19.1911 92.5512
      vertex 95.25 18.1501 91.2812
      vertex 96.7991 19.1911 91.2812
    endloop
  endfacet
  facet normal 1 -0 0
    outer loop
      vertex 95.25 16.9563 92.5512
      vertex 95.25 18.1501 91.2812
      vertex 95.25 18.1501 92.5512
    endloop
  endfacet
  facet normal 1 0 0
    outer loop
      vertex 95.25 18.1501 91.2812
      vertex 95.25 16.9563 92.5512
      vertex 95.25 16.9563 91.2812
    endloop
  endfacet
  facet normal -0.588165 0.808741 0
    outer loop
      vertex 97.4851 18.5818 91.2812
      vertex 95.25 16.9563 92.5512
      vertex 97.4851 18.5818 92.5512
    endloop
  endfacet
  facet normal -0.588165 0.808741 0
    outer loop
      vertex 95.25 16.9563 92.5512
      vertex 97.4851 18.5818 91.2812
      vertex 95.25 16.9563 91.2812
    endloop
  endfacet
  facet normal 0.60162 0.798782 -0
    outer loop
      vertex 99.5424 17.0323 91.2812
      vertex 97.4851 18.5818 92.5512
      vertex 99.5424 17.0323 92.5512
    endloop
  endfacet
  facet normal 0.60162 0.798782 0
    outer loop
      vertex 97.4851 18.5818 92.5512
      vertex 99.5424 17.0323 91.2812
      vertex 97.4851 18.5818 91.2812
    endloop
  endfacet
  facet normal -1 0 0
    outer loop
      vertex 99.5424 17.0323 91.2812
      vertex 99.5424 18.2516 92.5512
      vertex 99.5424 18.2516 91.2812
    endloop
  endfacet
  facet normal -1 -0 0
    outer loop
      vertex 99.5424 18.2516 92.5512
      vertex 99.5424 17.0323 91.2812
      vertex 99.5424 17.0323 92.5512
    endloop
  endfacet
  facet normal -0.558109 -0.829768 0
    outer loop
      vertex 98.1456 19.1911 91.2812
      vertex 99.5424 18.2516 92.5512
      vertex 98.1456 19.1911 92.5512
    endloop
  endfacet
  facet normal -0.558109 -0.829768 -0
    outer loop
      vertex 99.5424 18.2516 92.5512
      vertex 98.1456 19.1911 91.2812
      vertex 99.5424 18.2516 91.2812
    endloop
  endfacet
  facet normal -0.568407 0.822747 0
    outer loop
      vertex 99.5424 20.1561 91.2812
      vertex 98.1456 19.1911 92.5512
      vertex 99.5424 20.1561 92.5512
    endloop
  endfacet
  facet normal -0.568407 0.822747 0
    outer loop
      vertex 98.1456 19.1911 92.5512
      vertex 99.5424 20.1561 91.2812
      vertex 98.1456 19.1911 91.2812
    endloop
  endfacet
  facet normal -1 0 0
    outer loop
      vertex 99.5424 20.1561 91.2812
      vertex 99.5424 21.3502 92.5512
      vertex 99.5424 21.3502 91.2812
    endloop
  endfacet
  facet normal -1 -0 0
    outer loop
      vertex 99.5424 21.3502 92.5512
      vertex 99.5424 20.1561 91.2812
      vertex 99.5424 20.1561 92.5512
    endloop
  endfacet
  facet normal 0.590586 -0.806975 0
    outer loop
      vertex 97.4596 19.8259 91.2812
      vertex 99.5424 21.3502 92.5512
      vertex 97.4596 19.8259 92.5512
    endloop
  endfacet
  facet normal 0.590586 -0.806975 0
    outer loop
      vertex 99.5424 21.3502 92.5512
      vertex 97.4596 19.8259 91.2812
      vertex 99.5424 21.3502 91.2812
    endloop
  endfacet
  facet normal -0.586569 -0.809899 0
    outer loop
      vertex 95.25 21.4262 91.2812
      vertex 97.4596 19.8259 92.5512
      vertex 95.25 21.4262 92.5512
    endloop
  endfacet
  facet normal -0.586569 -0.809899 -0
    outer loop
      vertex 97.4596 19.8259 92.5512
      vertex 95.25 21.4262 91.2812
      vertex 97.4596 19.8259 91.2812
    endloop
  endfacet
  facet normal 1 -0 0
    outer loop
      vertex 95.25 20.2581 92.5512
      vertex 95.25 21.4262 91.2812
      vertex 95.25 21.4262 92.5512
    endloop
  endfacet
  facet normal 1 0 0
    outer loop
      vertex 95.25 21.4262 91.2812
      vertex 95.25 20.2581 92.5512
      vertex 95.25 20.2581 91.2812
    endloop
  endfacet
  facet normal 0.567248 0.823547 -0
    outer loop
      vertex 96.7991 19.1911 91.2812
      vertex 95.25 20.2581 92.5512
      vertex 96.7991 19.1911 92.5512
    endloop
  endfacet
  facet normal 0.567248 0.823547 0
    outer loop
      vertex 95.25 20.2581 92.5512
      vertex 96.7991 19.1911 91.2812
      vertex 95.25 20.2581 91.2812
    endloop
  endfacet
endsolid OpenSCAD_Model
