solid OpenSCAD_Model
  facet normal 1 -0 0
    outer loop
      vertex 5.08 -5.08 30.607
      vertex 5.08 5.08 -2.54
      vertex 5.08 5.08 30.607
    endloop
  endfacet
  facet normal 1 0 0
    outer loop
      vertex 5.08 5.08 -2.54
      vertex 5.08 -5.08 30.607
      vertex 5.08 -5.08 -2.54
    endloop
  endfacet
  facet normal 0 0 1
    outer loop
      vertex 5.08 5.08 30.607
      vertex 4.21005 0 30.607
      vertex 5.08 -5.08 30.607
    endloop
  endfacet
  facet normal 0 0 1
    outer loop
      vertex 5.08 5.08 30.607
      vertex 4.14609 0.731067 30.607
      vertex 4.21005 0 30.607
    endloop
  endfacet
  facet normal 0 0 1
    outer loop
      vertex 5.08 5.08 30.607
      vertex 3.95615 1.43992 30.607
      vertex 4.14609 0.731067 30.607
    endloop
  endfacet
  facet normal 0 0 1
    outer loop
      vertex 5.08 5.08 30.607
      vertex 3.64601 2.10502 30.607
      vertex 3.95615 1.43992 30.607
    endloop
  endfacet
  facet normal 0 0 1
    outer loop
      vertex 5.08 5.08 30.607
      vertex 3.22509 2.70617 30.607
      vertex 3.64601 2.10502 30.607
    endloop
  endfacet
  facet normal 0 0 1
    outer loop
      vertex 5.08 5.08 30.607
      vertex 2.70617 3.22509 30.607
      vertex 3.22509 2.70617 30.607
    endloop
  endfacet
  facet normal 0 0 1
    outer loop
      vertex 5.08 5.08 30.607
      vertex 2.10502 3.64601 30.607
      vertex 2.70617 3.22509 30.607
    endloop
  endfacet
  facet normal 0 0 1
    outer loop
      vertex 5.08 5.08 30.607
      vertex 1.43992 3.95615 30.607
      vertex 2.10502 3.64601 30.607
    endloop
  endfacet
  facet normal 0 0 1
    outer loop
      vertex 5.08 5.08 30.607
      vertex 0.731067 4.14609 30.607
      vertex 1.43992 3.95615 30.607
    endloop
  endfacet
  facet normal 0 0 1
    outer loop
      vertex 5.08 5.08 30.607
      vertex 0 4.21005 30.607
      vertex 0.731067 4.14609 30.607
    endloop
  endfacet
  facet normal -0 0 1
    outer loop
      vertex -5.08 5.08 30.607
      vertex 0 4.21005 30.607
      vertex 5.08 5.08 30.607
    endloop
  endfacet
  facet normal 0 0 1
    outer loop
      vertex -4.14609 0.731067 30.607
      vertex -5.08 5.08 30.607
      vertex -4.21005 0 30.607
    endloop
  endfacet
  facet normal 0 0 1
    outer loop
      vertex -3.95615 1.43992 30.607
      vertex -5.08 5.08 30.607
      vertex -4.14609 0.731067 30.607
    endloop
  endfacet
  facet normal 0 0 1
    outer loop
      vertex -3.64601 2.10502 30.607
      vertex -5.08 5.08 30.607
      vertex -3.95615 1.43992 30.607
    endloop
  endfacet
  facet normal 0 0 1
    outer loop
      vertex -3.22509 2.70617 30.607
      vertex -5.08 5.08 30.607
      vertex -3.64601 2.10502 30.607
    endloop
  endfacet
  facet normal 0 0 1
    outer loop
      vertex -2.70617 3.22509 30.607
      vertex -5.08 5.08 30.607
      vertex -3.22509 2.70617 30.607
    endloop
  endfacet
  facet normal 0 0 1
    outer loop
      vertex -2.10502 3.64601 30.607
      vertex -5.08 5.08 30.607
      vertex -2.70617 3.22509 30.607
    endloop
  endfacet
  facet normal 0 0 1
    outer loop
      vertex -1.43992 3.95615 30.607
      vertex -5.08 5.08 30.607
      vertex -2.10502 3.64601 30.607
    endloop
  endfacet
  facet normal 0 0 1
    outer loop
      vertex -0.731067 4.14609 30.607
      vertex -5.08 5.08 30.607
      vertex -1.43992 3.95615 30.607
    endloop
  endfacet
  facet normal 0 0 1
    outer loop
      vertex 0 4.21005 30.607
      vertex -5.08 5.08 30.607
      vertex -0.731067 4.14609 30.607
    endloop
  endfacet
  facet normal -0 0 1
    outer loop
      vertex 4.14609 -0.731067 30.607
      vertex 5.08 -5.08 30.607
      vertex 4.21005 0 30.607
    endloop
  endfacet
  facet normal -0 0 1
    outer loop
      vertex 3.95615 -1.43992 30.607
      vertex 5.08 -5.08 30.607
      vertex 4.14609 -0.731067 30.607
    endloop
  endfacet
  facet normal -0 0 1
    outer loop
      vertex 3.64601 -2.10502 30.607
      vertex 5.08 -5.08 30.607
      vertex 3.95615 -1.43992 30.607
    endloop
  endfacet
  facet normal -0 0 1
    outer loop
      vertex 3.22509 -2.70617 30.607
      vertex 5.08 -5.08 30.607
      vertex 3.64601 -2.10502 30.607
    endloop
  endfacet
  facet normal -0 0 1
    outer loop
      vertex 2.70617 -3.22509 30.607
      vertex 5.08 -5.08 30.607
      vertex 3.22509 -2.70617 30.607
    endloop
  endfacet
  facet normal -0 0 1
    outer loop
      vertex 2.10502 -3.64601 30.607
      vertex 5.08 -5.08 30.607
      vertex 2.70617 -3.22509 30.607
    endloop
  endfacet
  facet normal -0 0 1
    outer loop
      vertex 1.43992 -3.95615 30.607
      vertex 5.08 -5.08 30.607
      vertex 2.10502 -3.64601 30.607
    endloop
  endfacet
  facet normal -0 0 1
    outer loop
      vertex 0.731067 -4.14609 30.607
      vertex 5.08 -5.08 30.607
      vertex 1.43992 -3.95615 30.607
    endloop
  endfacet
  facet normal -0 0 1
    outer loop
      vertex 0 -4.21005 30.607
      vertex 5.08 -5.08 30.607
      vertex 0.731067 -4.14609 30.607
    endloop
  endfacet
  facet normal 0 0 1
    outer loop
      vertex -5.08 -5.08 30.607
      vertex 0 -4.21005 30.607
      vertex -0.731067 -4.14609 30.607
    endloop
  endfacet
  facet normal 0 0 1
    outer loop
      vertex -5.08 -5.08 30.607
      vertex -4.21005 0 30.607
      vertex -5.08 5.08 30.607
    endloop
  endfacet
  facet normal 0 0 1
    outer loop
      vertex 0 -4.21005 30.607
      vertex -5.08 -5.08 30.607
      vertex 5.08 -5.08 30.607
    endloop
  endfacet
  facet normal 0 0 1
    outer loop
      vertex -1.43992 -3.95615 30.607
      vertex -5.08 -5.08 30.607
      vertex -0.731067 -4.14609 30.607
    endloop
  endfacet
  facet normal 0 0 1
    outer loop
      vertex -2.10502 -3.64601 30.607
      vertex -5.08 -5.08 30.607
      vertex -1.43992 -3.95615 30.607
    endloop
  endfacet
  facet normal 0 0 1
    outer loop
      vertex -2.70617 -3.22509 30.607
      vertex -5.08 -5.08 30.607
      vertex -2.10502 -3.64601 30.607
    endloop
  endfacet
  facet normal 0 0 1
    outer loop
      vertex -3.22509 -2.70617 30.607
      vertex -5.08 -5.08 30.607
      vertex -2.70617 -3.22509 30.607
    endloop
  endfacet
  facet normal 0 0 1
    outer loop
      vertex -3.64601 -2.10502 30.607
      vertex -5.08 -5.08 30.607
      vertex -3.22509 -2.70617 30.607
    endloop
  endfacet
  facet normal 0 0 1
    outer loop
      vertex -3.95615 -1.43992 30.607
      vertex -5.08 -5.08 30.607
      vertex -3.64601 -2.10502 30.607
    endloop
  endfacet
  facet normal 0 0 1
    outer loop
      vertex -4.14609 -0.731067 30.607
      vertex -5.08 -5.08 30.607
      vertex -3.95615 -1.43992 30.607
    endloop
  endfacet
  facet normal 0 0 1
    outer loop
      vertex -4.21005 0 30.607
      vertex -5.08 -5.08 30.607
      vertex -4.14609 -0.731067 30.607
    endloop
  endfacet
  facet normal 0 0 -1
    outer loop
      vertex 5.08 -5.08 -2.54
      vertex 0.634999 0 -2.54
      vertex 5.08 5.08 -2.54
    endloop
  endfacet
  facet normal 0 0 -1
    outer loop
      vertex 5.08 -5.08 -2.54
      vertex 0.625353 -0.110266 -2.54
      vertex 0.634999 0 -2.54
    endloop
  endfacet
  facet normal 0 0 -1
    outer loop
      vertex 5.08 -5.08 -2.54
      vertex 0.596704 -0.217182 -2.54
      vertex 0.625353 -0.110266 -2.54
    endloop
  endfacet
  facet normal 0 0 -1
    outer loop
      vertex 5.08 -5.08 -2.54
      vertex 0.549926 -0.317499 -2.54
      vertex 0.596704 -0.217182 -2.54
    endloop
  endfacet
  facet normal 0 0 -1
    outer loop
      vertex 5.08 -5.08 -2.54
      vertex 0.486438 -0.40817 -2.54
      vertex 0.549926 -0.317499 -2.54
    endloop
  endfacet
  facet normal 0 0 -1
    outer loop
      vertex 5.08 -5.08 -2.54
      vertex 0.40817 -0.486438 -2.54
      vertex 0.486438 -0.40817 -2.54
    endloop
  endfacet
  facet normal 0 0 -1
    outer loop
      vertex 5.08 -5.08 -2.54
      vertex 0.317499 -0.549926 -2.54
      vertex 0.40817 -0.486438 -2.54
    endloop
  endfacet
  facet normal 0 0 -1
    outer loop
      vertex 5.08 -5.08 -2.54
      vertex 0.217182 -0.596704 -2.54
      vertex 0.317499 -0.549926 -2.54
    endloop
  endfacet
  facet normal 0 0 -1
    outer loop
      vertex 5.08 -5.08 -2.54
      vertex 0.110266 -0.625353 -2.54
      vertex 0.217182 -0.596704 -2.54
    endloop
  endfacet
  facet normal 0 0 -1
    outer loop
      vertex 5.08 -5.08 -2.54
      vertex 0 -0.634999 -2.54
      vertex 0.110266 -0.625353 -2.54
    endloop
  endfacet
  facet normal 0 0 -1
    outer loop
      vertex -5.08 -5.08 -2.54
      vertex 0 -0.634999 -2.54
      vertex 5.08 -5.08 -2.54
    endloop
  endfacet
  facet normal -0 0 -1
    outer loop
      vertex 0 -0.634999 -2.54
      vertex -5.08 -5.08 -2.54
      vertex -0.110266 -0.625353 -2.54
    endloop
  endfacet
  facet normal -0 0 -1
    outer loop
      vertex -0.110266 -0.625353 -2.54
      vertex -5.08 -5.08 -2.54
      vertex -0.217182 -0.596704 -2.54
    endloop
  endfacet
  facet normal -0 0 -1
    outer loop
      vertex -0.217182 -0.596704 -2.54
      vertex -5.08 -5.08 -2.54
      vertex -0.317499 -0.549926 -2.54
    endloop
  endfacet
  facet normal -0 0 -1
    outer loop
      vertex -0.625353 -0.110266 -2.54
      vertex -5.08 -5.08 -2.54
      vertex -0.634999 0 -2.54
    endloop
  endfacet
  facet normal -0 0 -1
    outer loop
      vertex -0.596704 -0.217182 -2.54
      vertex -5.08 -5.08 -2.54
      vertex -0.625353 -0.110266 -2.54
    endloop
  endfacet
  facet normal -0 0 -1
    outer loop
      vertex -0.549926 -0.317499 -2.54
      vertex -5.08 -5.08 -2.54
      vertex -0.596704 -0.217182 -2.54
    endloop
  endfacet
  facet normal -0 0 -1
    outer loop
      vertex -0.486438 -0.40817 -2.54
      vertex -5.08 -5.08 -2.54
      vertex -0.549926 -0.317499 -2.54
    endloop
  endfacet
  facet normal -0 0 -1
    outer loop
      vertex -0.40817 -0.486438 -2.54
      vertex -5.08 -5.08 -2.54
      vertex -0.486438 -0.40817 -2.54
    endloop
  endfacet
  facet normal -0 0 -1
    outer loop
      vertex -0.317499 -0.549926 -2.54
      vertex -5.08 -5.08 -2.54
      vertex -0.40817 -0.486438 -2.54
    endloop
  endfacet
  facet normal 0 0 -1
    outer loop
      vertex 0.625353 0.110266 -2.54
      vertex 5.08 5.08 -2.54
      vertex 0.634999 0 -2.54
    endloop
  endfacet
  facet normal 0 0 -1
    outer loop
      vertex 0.596704 0.217182 -2.54
      vertex 5.08 5.08 -2.54
      vertex 0.625353 0.110266 -2.54
    endloop
  endfacet
  facet normal 0 0 -1
    outer loop
      vertex 0.549926 0.317499 -2.54
      vertex 5.08 5.08 -2.54
      vertex 0.596704 0.217182 -2.54
    endloop
  endfacet
  facet normal 0 0 -1
    outer loop
      vertex 0.486438 0.40817 -2.54
      vertex 5.08 5.08 -2.54
      vertex 0.549926 0.317499 -2.54
    endloop
  endfacet
  facet normal 0 0 -1
    outer loop
      vertex 0.40817 0.486438 -2.54
      vertex 5.08 5.08 -2.54
      vertex 0.486438 0.40817 -2.54
    endloop
  endfacet
  facet normal 0 0 -1
    outer loop
      vertex 0.317499 0.549926 -2.54
      vertex 5.08 5.08 -2.54
      vertex 0.40817 0.486438 -2.54
    endloop
  endfacet
  facet normal 0 0 -1
    outer loop
      vertex 0.217182 0.596704 -2.54
      vertex 5.08 5.08 -2.54
      vertex 0.317499 0.549926 -2.54
    endloop
  endfacet
  facet normal 0 0 -1
    outer loop
      vertex 0.110266 0.625353 -2.54
      vertex 5.08 5.08 -2.54
      vertex 0.217182 0.596704 -2.54
    endloop
  endfacet
  facet normal 0 0 -1
    outer loop
      vertex 0 0.634999 -2.54
      vertex 5.08 5.08 -2.54
      vertex 0.110266 0.625353 -2.54
    endloop
  endfacet
  facet normal 0 0 -1
    outer loop
      vertex -5.08 5.08 -2.54
      vertex 0 0.634999 -2.54
      vertex -0.110266 0.625353 -2.54
    endloop
  endfacet
  facet normal 0 0 -1
    outer loop
      vertex -5.08 5.08 -2.54
      vertex -0.110266 0.625353 -2.54
      vertex -0.217182 0.596704 -2.54
    endloop
  endfacet
  facet normal 0 0 -1
    outer loop
      vertex -5.08 5.08 -2.54
      vertex -0.217182 0.596704 -2.54
      vertex -0.317499 0.549926 -2.54
    endloop
  endfacet
  facet normal 0 0 -1
    outer loop
      vertex -5.08 5.08 -2.54
      vertex -0.317499 0.549926 -2.54
      vertex -0.40817 0.486438 -2.54
    endloop
  endfacet
  facet normal 0 0 -1
    outer loop
      vertex -5.08 5.08 -2.54
      vertex -0.634999 0 -2.54
      vertex -5.08 -5.08 -2.54
    endloop
  endfacet
  facet normal 0 0 -1
    outer loop
      vertex -0.634999 0 -2.54
      vertex -5.08 5.08 -2.54
      vertex -0.625353 0.110266 -2.54
    endloop
  endfacet
  facet normal 0 0 -1
    outer loop
      vertex -0.625353 0.110266 -2.54
      vertex -5.08 5.08 -2.54
      vertex -0.596704 0.217182 -2.54
    endloop
  endfacet
  facet normal 0 0 -1
    outer loop
      vertex -0.596704 0.217182 -2.54
      vertex -5.08 5.08 -2.54
      vertex -0.549926 0.317499 -2.54
    endloop
  endfacet
  facet normal 0 0 -1
    outer loop
      vertex 0 0.634999 -2.54
      vertex -5.08 5.08 -2.54
      vertex 5.08 5.08 -2.54
    endloop
  endfacet
  facet normal 0 0 -1
    outer loop
      vertex -0.486438 0.40817 -2.54
      vertex -5.08 5.08 -2.54
      vertex -0.40817 0.486438 -2.54
    endloop
  endfacet
  facet normal 0 0 -1
    outer loop
      vertex -0.549926 0.317499 -2.54
      vertex -5.08 5.08 -2.54
      vertex -0.486438 0.40817 -2.54
    endloop
  endfacet
  facet normal -1 0 0
    outer loop
      vertex -5.08 -5.08 -2.54
      vertex -5.08 5.08 30.607
      vertex -5.08 5.08 -2.54
    endloop
  endfacet
  facet normal -1 -0 0
    outer loop
      vertex -5.08 5.08 30.607
      vertex -5.08 -5.08 -2.54
      vertex -5.08 -5.08 30.607
    endloop
  endfacet
  facet normal 0 1 -0
    outer loop
      vertex 5.08 5.08 -2.54
      vertex -5.08 5.08 30.607
      vertex 5.08 5.08 30.607
    endloop
  endfacet
  facet normal 0 1 0
    outer loop
      vertex -5.08 5.08 30.607
      vertex 5.08 5.08 -2.54
      vertex -5.08 5.08 -2.54
    endloop
  endfacet
  facet normal 0 -1 0
    outer loop
      vertex -5.08 -5.08 -2.54
      vertex 5.08 -5.08 30.607
      vertex -5.08 -5.08 30.607
    endloop
  endfacet
  facet normal 0 -1 -0
    outer loop
      vertex 5.08 -5.08 30.607
      vertex -5.08 -5.08 -2.54
      vertex 5.08 -5.08 -2.54
    endloop
  endfacet
  facet normal -0.891395 0.415658 0.180672
    outer loop
      vertex 3.66251 -2.11455 17.907
      vertex 3.97405 -1.44644 17.907
      vertex 0.802892 -0.46355 0
    endloop
  endfacet
  facet normal 0.69547 -0.69547 0.180672
    outer loop
      vertex -3.23968 2.71841 17.907
      vertex -0.595928 0.710199 0
      vertex -2.71841 3.23968 17.907
    endloop
  endfacet
  facet normal 0.69547 -0.69547 0.180672
    outer loop
      vertex -0.595928 0.710199 0
      vertex -3.23968 2.71841 17.907
      vertex -0.710199 0.595928 0
    endloop
  endfacet
  facet normal -0.950029 0.254563 0.180672
    outer loop
      vertex 3.97405 -1.44644 17.907
      vertex 4.16485 -0.734375 17.907
      vertex 0.871188 -0.317086 0
    endloop
  endfacet
  facet normal -0.979801 -0.0857221 0.180673
    outer loop
      vertex 4.2291 0 17.907
      vertex 4.16485 0.734375 17.907
      vertex 0.927099 0 0
    endloop
  endfacet
  facet normal -0.9798 -0.0857232 0.180673
    outer loop
      vertex 0.927099 0 0
      vertex 4.16485 0.734375 17.907
      vertex 0.913014 0.160989 0
    endloop
  endfacet
  facet normal -0.69547 0.69547 0.180672
    outer loop
      vertex 0.595928 -0.710199 0
      vertex 3.23968 -2.71841 17.907
      vertex 0.710199 -0.595928 0
    endloop
  endfacet
  facet normal -0.69547 0.69547 0.180672
    outer loop
      vertex 3.23968 -2.71841 17.907
      vertex 0.595928 -0.710199 0
      vertex 2.71841 -3.23968 17.907
    endloop
  endfacet
  facet normal -0.254559 0.95003 0.180673
    outer loop
      vertex 0.734375 -4.16485 17.907
      vertex 0.317086 -0.871188 0
      vertex 0.160989 -0.913014 0
    endloop
  endfacet
  facet normal 0.805669 -0.564141 0.180672
    outer loop
      vertex -0.802892 0.46355 0
      vertex -0.710199 0.595928 0
      vertex -3.66251 2.11455 17.907
    endloop
  endfacet
  facet normal -0.80567 0.56414 0.180673
    outer loop
      vertex 3.23968 -2.71841 17.907
      vertex 3.66251 -2.11455 17.907
      vertex 0.710199 -0.595928 0
    endloop
  endfacet
  facet normal -0.805669 0.564141 0.180672
    outer loop
      vertex 3.66251 -2.11455 17.907
      vertex 0.802892 -0.46355 0
      vertex 0.710199 -0.595928 0
    endloop
  endfacet
  facet normal 0.254563 -0.950029 0.180672
    outer loop
      vertex -0.317086 0.871188 0
      vertex -0.734375 4.16485 17.907
      vertex -1.44644 3.97405 17.907
    endloop
  endfacet
  facet normal 0.95003 -0.254559 0.180673
    outer loop
      vertex -0.913014 0.160989 0
      vertex -0.871188 0.317086 0
      vertex -4.16485 0.734375 17.907
    endloop
  endfacet
  facet normal 0.9798 0.0857232 0.180673
    outer loop
      vertex -0.913014 -0.160989 0
      vertex -0.927099 0 0
      vertex -4.16485 -0.734375 17.907
    endloop
  endfacet
  facet normal -0.979801 0.0857221 0.180673
    outer loop
      vertex 4.16485 -0.734375 17.907
      vertex 4.2291 0 17.907
      vertex 0.927099 0 0
    endloop
  endfacet
  facet normal 0.254563 0.950029 0.180672
    outer loop
      vertex -0.734375 -4.16485 17.907
      vertex -0.317086 -0.871188 0
      vertex -1.44644 -3.97405 17.907
    endloop
  endfacet
  facet normal 0.891395 -0.415658 0.180672
    outer loop
      vertex -0.802892 0.46355 0
      vertex -3.66251 2.11455 17.907
      vertex -3.97405 1.44644 17.907
    endloop
  endfacet
  facet normal 0.0857221 0.979801 0.180673
    outer loop
      vertex 0 -4.2291 17.907
      vertex 0 -0.927099 0
      vertex -0.734375 -4.16485 17.907
    endloop
  endfacet
  facet normal -0.415658 0.891395 0.180672
    outer loop
      vertex 1.44644 -3.97405 17.907
      vertex 2.11455 -3.66251 17.907
      vertex 0.46355 -0.802892 0
    endloop
  endfacet
  facet normal 0.80567 -0.56414 0.180673
    outer loop
      vertex -0.710199 0.595928 0
      vertex -3.23968 2.71841 17.907
      vertex -3.66251 2.11455 17.907
    endloop
  endfacet
  facet normal 0.805669 0.564141 0.180672
    outer loop
      vertex -0.710199 -0.595928 0
      vertex -0.802892 -0.46355 0
      vertex -3.66251 -2.11455 17.907
    endloop
  endfacet
  facet normal 0.564141 -0.805669 0.180672
    outer loop
      vertex -0.595928 0.710199 0
      vertex -0.46355 0.802892 0
      vertex -2.11455 3.66251 17.907
    endloop
  endfacet
  facet normal -0.891396 0.415657 0.180673
    outer loop
      vertex 3.97405 -1.44644 17.907
      vertex 0.871188 -0.317086 0
      vertex 0.802892 -0.46355 0
    endloop
  endfacet
  facet normal 0.950029 0.254563 0.180672
    outer loop
      vertex -3.97405 -1.44644 17.907
      vertex -0.871188 -0.317086 0
      vertex -4.16485 -0.734375 17.907
    endloop
  endfacet
  facet normal -0.254559 -0.95003 0.180673
    outer loop
      vertex 0.317086 0.871188 0
      vertex 0.734375 4.16485 17.907
      vertex 0.160989 0.913014 0
    endloop
  endfacet
  facet normal -0.564141 0.805669 0.180672
    outer loop
      vertex 2.11455 -3.66251 17.907
      vertex 0.595928 -0.710199 0
      vertex 0.46355 -0.802892 0
    endloop
  endfacet
  facet normal -0.415657 0.891396 0.180673
    outer loop
      vertex 1.44644 -3.97405 17.907
      vertex 0.46355 -0.802892 0
      vertex 0.317086 -0.871188 0
    endloop
  endfacet
  facet normal -0.56414 0.80567 0.180673
    outer loop
      vertex 2.11455 -3.66251 17.907
      vertex 2.71841 -3.23968 17.907
      vertex 0.595928 -0.710199 0
    endloop
  endfacet
  facet normal 0.0857232 0.9798 0.180673
    outer loop
      vertex 0 -0.927099 0
      vertex -0.160989 -0.913014 0
      vertex -0.734375 -4.16485 17.907
    endloop
  endfacet
  facet normal -0.254563 0.950029 0.180672
    outer loop
      vertex 0.734375 -4.16485 17.907
      vertex 1.44644 -3.97405 17.907
      vertex 0.317086 -0.871188 0
    endloop
  endfacet
  facet normal -0.950029 -0.254563 0.180672
    outer loop
      vertex 4.16485 0.734375 17.907
      vertex 3.97405 1.44644 17.907
      vertex 0.871188 0.317086 0
    endloop
  endfacet
  facet normal 0.9798 -0.0857232 0.180673
    outer loop
      vertex -0.927099 0 0
      vertex -0.913014 0.160989 0
      vertex -4.16485 0.734375 17.907
    endloop
  endfacet
  facet normal 0.0857221 -0.979801 0.180673
    outer loop
      vertex 0 0.927099 0
      vertex 0 4.2291 17.907
      vertex -0.734375 4.16485 17.907
    endloop
  endfacet
  facet normal -0.0857232 0.9798 0.180673
    outer loop
      vertex 0.734375 -4.16485 17.907
      vertex 0.160989 -0.913014 0
      vertex 0 -0.927099 0
    endloop
  endfacet
  facet normal -0.95003 0.254559 0.180673
    outer loop
      vertex 4.16485 -0.734375 17.907
      vertex 0.913014 -0.160989 0
      vertex 0.871188 -0.317086 0
    endloop
  endfacet
  facet normal 0.979801 -0.0857221 0.180673
    outer loop
      vertex -0.927099 0 0
      vertex -4.16485 0.734375 17.907
      vertex -4.2291 0 17.907
    endloop
  endfacet
  facet normal 0.254559 -0.95003 0.180673
    outer loop
      vertex -0.317086 0.871188 0
      vertex -0.160989 0.913014 0
      vertex -0.734375 4.16485 17.907
    endloop
  endfacet
  facet normal 0.254559 0.95003 0.180673
    outer loop
      vertex -0.160989 -0.913014 0
      vertex -0.317086 -0.871188 0
      vertex -0.734375 -4.16485 17.907
    endloop
  endfacet
  facet normal -0.415657 -0.891396 0.180673
    outer loop
      vertex 0.46355 0.802892 0
      vertex 1.44644 3.97405 17.907
      vertex 0.317086 0.871188 0
    endloop
  endfacet
  facet normal -0.0857221 0.979801 0.180673
    outer loop
      vertex 0.734375 -4.16485 17.907
      vertex 0 -0.927099 0
      vertex 0 -4.2291 17.907
    endloop
  endfacet
  facet normal 0.95003 0.254559 0.180673
    outer loop
      vertex -0.871188 -0.317086 0
      vertex -0.913014 -0.160989 0
      vertex -4.16485 -0.734375 17.907
    endloop
  endfacet
  facet normal -0.95003 -0.254559 0.180673
    outer loop
      vertex 0.913014 0.160989 0
      vertex 4.16485 0.734375 17.907
      vertex 0.871188 0.317086 0
    endloop
  endfacet
  facet normal 0.891396 0.415657 0.180673
    outer loop
      vertex -0.802892 -0.46355 0
      vertex -0.871188 -0.317086 0
      vertex -3.97405 -1.44644 17.907
    endloop
  endfacet
  facet normal 0.891395 0.415658 0.180672
    outer loop
      vertex -3.66251 -2.11455 17.907
      vertex -0.802892 -0.46355 0
      vertex -3.97405 -1.44644 17.907
    endloop
  endfacet
  facet normal 0.80567 0.56414 0.180673
    outer loop
      vertex -3.23968 -2.71841 17.907
      vertex -0.710199 -0.595928 0
      vertex -3.66251 -2.11455 17.907
    endloop
  endfacet
  facet normal 0.891396 -0.415657 0.180673
    outer loop
      vertex -0.871188 0.317086 0
      vertex -0.802892 0.46355 0
      vertex -3.97405 1.44644 17.907
    endloop
  endfacet
  facet normal 0.979801 0.0857221 0.180673
    outer loop
      vertex -4.16485 -0.734375 17.907
      vertex -0.927099 0 0
      vertex -4.2291 0 17.907
    endloop
  endfacet
  facet normal -0.564141 -0.805669 0.180672
    outer loop
      vertex 0.595928 0.710199 0
      vertex 2.11455 3.66251 17.907
      vertex 0.46355 0.802892 0
    endloop
  endfacet
  facet normal -0.9798 0.0857232 0.180673
    outer loop
      vertex 4.16485 -0.734375 17.907
      vertex 0.927099 0 0
      vertex 0.913014 -0.160989 0
    endloop
  endfacet
  facet normal 0.415657 0.891396 0.180673
    outer loop
      vertex -0.317086 -0.871188 0
      vertex -0.46355 -0.802892 0
      vertex -1.44644 -3.97405 17.907
    endloop
  endfacet
  facet normal 0.950029 -0.254563 0.180672
    outer loop
      vertex -0.871188 0.317086 0
      vertex -3.97405 1.44644 17.907
      vertex -4.16485 0.734375 17.907
    endloop
  endfacet
  facet normal -0.80567 -0.56414 0.180673
    outer loop
      vertex 3.66251 2.11455 17.907
      vertex 3.23968 2.71841 17.907
      vertex 0.710199 0.595928 0
    endloop
  endfacet
  facet normal -0.891396 -0.415657 0.180673
    outer loop
      vertex 0.871188 0.317086 0
      vertex 3.97405 1.44644 17.907
      vertex 0.802892 0.46355 0
    endloop
  endfacet
  facet normal -0.254563 -0.950029 0.180672
    outer loop
      vertex 1.44644 3.97405 17.907
      vertex 0.734375 4.16485 17.907
      vertex 0.317086 0.871188 0
    endloop
  endfacet
  facet normal 0 0 1
    outer loop
      vertex 0.634999 0 0
      vertex 0.927099 0 0
      vertex 0.913014 0.160989 0
    endloop
  endfacet
  facet normal 0 0 1
    outer loop
      vertex 0.625353 0.110266 0
      vertex 0.913014 0.160989 0
      vertex 0.871188 0.317086 0
    endloop
  endfacet
  facet normal 0 0 1
    outer loop
      vertex 0.927099 0 0
      vertex 0.634999 0 0
      vertex 0.913014 -0.160989 0
    endloop
  endfacet
  facet normal 0 0 1
    outer loop
      vertex 0.596704 0.217182 0
      vertex 0.871188 0.317086 0
      vertex 0.802892 0.46355 0
    endloop
  endfacet
  facet normal -0 0 1
    outer loop
      vertex 0.625353 -0.110266 0
      vertex 0.913014 -0.160989 0
      vertex 0.634999 0 0
    endloop
  endfacet
  facet normal 0 0 1
    outer loop
      vertex 0.549926 0.317499 0
      vertex 0.802892 0.46355 0
      vertex 0.710199 0.595928 0
    endloop
  endfacet
  facet normal 0 0 1
    outer loop
      vertex 0.913014 -0.160989 0
      vertex 0.625353 -0.110266 0
      vertex 0.871188 -0.317086 0
    endloop
  endfacet
  facet normal -0 0 1
    outer loop
      vertex 0.596704 -0.217182 0
      vertex 0.871188 -0.317086 0
      vertex 0.625353 -0.110266 0
    endloop
  endfacet
  facet normal 0 0 1
    outer loop
      vertex 0.913014 0.160989 0
      vertex 0.625353 0.110266 0
      vertex 0.634999 0 0
    endloop
  endfacet
  facet normal 0 0 1
    outer loop
      vertex 0.871188 0.317086 0
      vertex 0.596704 0.217182 0
      vertex 0.625353 0.110266 0
    endloop
  endfacet
  facet normal 0 0 1
    outer loop
      vertex 0.486438 0.40817 0
      vertex 0.710199 0.595928 0
      vertex 0.595928 0.710199 0
    endloop
  endfacet
  facet normal 0 0 1
    outer loop
      vertex 0.802892 0.46355 0
      vertex 0.549926 0.317499 0
      vertex 0.596704 0.217182 0
    endloop
  endfacet
  facet normal 0 0 1
    outer loop
      vertex 0.710199 0.595928 0
      vertex 0.486438 0.40817 0
      vertex 0.549926 0.317499 0
    endloop
  endfacet
  facet normal 0 0 1
    outer loop
      vertex 0.40817 0.486438 0
      vertex 0.595928 0.710199 0
      vertex 0.46355 0.802892 0
    endloop
  endfacet
  facet normal 0 0 1
    outer loop
      vertex 0.595928 0.710199 0
      vertex 0.40817 0.486438 0
      vertex 0.486438 0.40817 0
    endloop
  endfacet
  facet normal 0 0 1
    outer loop
      vertex 0.46355 0.802892 0
      vertex 0.317499 0.549926 0
      vertex 0.40817 0.486438 0
    endloop
  endfacet
  facet normal 0 0 1
    outer loop
      vertex 0.317086 0.871188 0
      vertex 0.317499 0.549926 0
      vertex 0.46355 0.802892 0
    endloop
  endfacet
  facet normal 0 0 1
    outer loop
      vertex 0.317086 0.871188 0
      vertex 0.217182 0.596704 0
      vertex 0.317499 0.549926 0
    endloop
  endfacet
  facet normal 0 0 1
    outer loop
      vertex 0.160989 0.913014 0
      vertex 0.217182 0.596704 0
      vertex 0.317086 0.871188 0
    endloop
  endfacet
  facet normal 0 0 1
    outer loop
      vertex 0.160989 0.913014 0
      vertex 0.110266 0.625353 0
      vertex 0.217182 0.596704 0
    endloop
  endfacet
  facet normal 0 0 1
    outer loop
      vertex 0 0.927099 0
      vertex 0.110266 0.625353 0
      vertex 0.160989 0.913014 0
    endloop
  endfacet
  facet normal 0 0 1
    outer loop
      vertex 0 0.927099 0
      vertex 0 0.634999 0
      vertex 0.110266 0.625353 0
    endloop
  endfacet
  facet normal 0 0 1
    outer loop
      vertex 0 0.927099 0
      vertex -0.110266 0.625353 0
      vertex 0 0.634999 0
    endloop
  endfacet
  facet normal -0 0 1
    outer loop
      vertex -0.160989 0.913014 0
      vertex -0.110266 0.625353 0
      vertex 0 0.927099 0
    endloop
  endfacet
  facet normal 0 0 1
    outer loop
      vertex -0.160989 0.913014 0
      vertex -0.217182 0.596704 0
      vertex -0.110266 0.625353 0
    endloop
  endfacet
  facet normal -0 0 1
    outer loop
      vertex -0.317086 0.871188 0
      vertex -0.217182 0.596704 0
      vertex -0.160989 0.913014 0
    endloop
  endfacet
  facet normal 0 0 1
    outer loop
      vertex -0.317086 0.871188 0
      vertex -0.317499 0.549926 0
      vertex -0.217182 0.596704 0
    endloop
  endfacet
  facet normal -0 0 1
    outer loop
      vertex -0.46355 0.802892 0
      vertex -0.317499 0.549926 0
      vertex -0.317086 0.871188 0
    endloop
  endfacet
  facet normal 0 0 1
    outer loop
      vertex -0.317499 0.549926 0
      vertex -0.46355 0.802892 0
      vertex -0.40817 0.486438 0
    endloop
  endfacet
  facet normal -0 0 1
    outer loop
      vertex -0.595928 0.710199 0
      vertex -0.40817 0.486438 0
      vertex -0.46355 0.802892 0
    endloop
  endfacet
  facet normal 0 0 1
    outer loop
      vertex -0.40817 0.486438 0
      vertex -0.595928 0.710199 0
      vertex -0.486438 0.40817 0
    endloop
  endfacet
  facet normal -0 0 1
    outer loop
      vertex -0.710199 0.595928 0
      vertex -0.486438 0.40817 0
      vertex -0.595928 0.710199 0
    endloop
  endfacet
  facet normal 0 0 1
    outer loop
      vertex -0.486438 0.40817 0
      vertex -0.710199 0.595928 0
      vertex -0.549926 0.317499 0
    endloop
  endfacet
  facet normal -0 0 1
    outer loop
      vertex -0.802892 0.46355 0
      vertex -0.549926 0.317499 0
      vertex -0.710199 0.595928 0
    endloop
  endfacet
  facet normal 0 0 1
    outer loop
      vertex -0.549926 0.317499 0
      vertex -0.802892 0.46355 0
      vertex -0.596704 0.217182 0
    endloop
  endfacet
  facet normal -0 0 1
    outer loop
      vertex -0.871188 0.317086 0
      vertex -0.596704 0.217182 0
      vertex -0.802892 0.46355 0
    endloop
  endfacet
  facet normal 0 0 1
    outer loop
      vertex 0.871188 -0.317086 0
      vertex 0.596704 -0.217182 0
      vertex 0.802892 -0.46355 0
    endloop
  endfacet
  facet normal -0 0 1
    outer loop
      vertex 0.549926 -0.317499 0
      vertex 0.802892 -0.46355 0
      vertex 0.596704 -0.217182 0
    endloop
  endfacet
  facet normal 0 0 1
    outer loop
      vertex 0.802892 -0.46355 0
      vertex 0.549926 -0.317499 0
      vertex 0.710199 -0.595928 0
    endloop
  endfacet
  facet normal -0 0 1
    outer loop
      vertex 0.486438 -0.40817 0
      vertex 0.710199 -0.595928 0
      vertex 0.549926 -0.317499 0
    endloop
  endfacet
  facet normal 0 0 1
    outer loop
      vertex 0.710199 -0.595928 0
      vertex 0.486438 -0.40817 0
      vertex 0.595928 -0.710199 0
    endloop
  endfacet
  facet normal -0 0 1
    outer loop
      vertex 0.40817 -0.486438 0
      vertex 0.595928 -0.710199 0
      vertex 0.486438 -0.40817 0
    endloop
  endfacet
  facet normal 0 0 1
    outer loop
      vertex 0.595928 -0.710199 0
      vertex 0.40817 -0.486438 0
      vertex 0.46355 -0.802892 0
    endloop
  endfacet
  facet normal -0 0 1
    outer loop
      vertex 0.317499 -0.549926 0
      vertex 0.46355 -0.802892 0
      vertex 0.40817 -0.486438 0
    endloop
  endfacet
  facet normal 0 0 1
    outer loop
      vertex 0.317499 -0.549926 0
      vertex 0.317086 -0.871188 0
      vertex 0.46355 -0.802892 0
    endloop
  endfacet
  facet normal -0 0 1
    outer loop
      vertex 0.217182 -0.596704 0
      vertex 0.317086 -0.871188 0
      vertex 0.317499 -0.549926 0
    endloop
  endfacet
  facet normal 0 0 1
    outer loop
      vertex 0.217182 -0.596704 0
      vertex 0.160989 -0.913014 0
      vertex 0.317086 -0.871188 0
    endloop
  endfacet
  facet normal -0 0 1
    outer loop
      vertex 0.110266 -0.625353 0
      vertex 0.160989 -0.913014 0
      vertex 0.217182 -0.596704 0
    endloop
  endfacet
  facet normal -0 0 1
    outer loop
      vertex 0 -0.634999 0
      vertex 0.160989 -0.913014 0
      vertex 0.110266 -0.625353 0
    endloop
  endfacet
  facet normal 0 0 1
    outer loop
      vertex 0 -0.634999 0
      vertex 0 -0.927099 0
      vertex 0.160989 -0.913014 0
    endloop
  endfacet
  facet normal 0 0 1
    outer loop
      vertex -0.110266 -0.625353 0
      vertex 0 -0.927099 0
      vertex 0 -0.634999 0
    endloop
  endfacet
  facet normal 0 0 1
    outer loop
      vertex -0.110266 -0.625353 0
      vertex -0.160989 -0.913014 0
      vertex 0 -0.927099 0
    endloop
  endfacet
  facet normal 0 0 1
    outer loop
      vertex -0.217182 -0.596704 0
      vertex -0.160989 -0.913014 0
      vertex -0.110266 -0.625353 0
    endloop
  endfacet
  facet normal 0 0 1
    outer loop
      vertex -0.217182 -0.596704 0
      vertex -0.317086 -0.871188 0
      vertex -0.160989 -0.913014 0
    endloop
  endfacet
  facet normal 0 0 1
    outer loop
      vertex -0.317499 -0.549926 0
      vertex -0.317086 -0.871188 0
      vertex -0.217182 -0.596704 0
    endloop
  endfacet
  facet normal 0 0 1
    outer loop
      vertex -0.46355 -0.802892 0
      vertex -0.317499 -0.549926 0
      vertex -0.40817 -0.486438 0
    endloop
  endfacet
  facet normal 0 0 1
    outer loop
      vertex -0.317499 -0.549926 0
      vertex -0.46355 -0.802892 0
      vertex -0.317086 -0.871188 0
    endloop
  endfacet
  facet normal 0 0 1
    outer loop
      vertex -0.595928 -0.710199 0
      vertex -0.40817 -0.486438 0
      vertex -0.486438 -0.40817 0
    endloop
  endfacet
  facet normal 0 0 1
    outer loop
      vertex -0.710199 -0.595928 0
      vertex -0.486438 -0.40817 0
      vertex -0.549926 -0.317499 0
    endloop
  endfacet
  facet normal 0 0 1
    outer loop
      vertex -0.40817 -0.486438 0
      vertex -0.595928 -0.710199 0
      vertex -0.46355 -0.802892 0
    endloop
  endfacet
  facet normal 0 0 1
    outer loop
      vertex -0.802892 -0.46355 0
      vertex -0.549926 -0.317499 0
      vertex -0.596704 -0.217182 0
    endloop
  endfacet
  facet normal 0 0 1
    outer loop
      vertex -0.871188 -0.317086 0
      vertex -0.596704 -0.217182 0
      vertex -0.625353 -0.110266 0
    endloop
  endfacet
  facet normal 0 0 1
    outer loop
      vertex -0.913014 -0.160989 0
      vertex -0.625353 -0.110266 0
      vertex -0.634999 0 0
    endloop
  endfacet
  facet normal 0 0 1
    outer loop
      vertex -0.596704 0.217182 0
      vertex -0.871188 0.317086 0
      vertex -0.625353 0.110266 0
    endloop
  endfacet
  facet normal 0 0 1
    outer loop
      vertex -0.486438 -0.40817 0
      vertex -0.710199 -0.595928 0
      vertex -0.595928 -0.710199 0
    endloop
  endfacet
  facet normal -0 0 1
    outer loop
      vertex -0.913014 0.160989 0
      vertex -0.625353 0.110266 0
      vertex -0.871188 0.317086 0
    endloop
  endfacet
  facet normal 0 0 1
    outer loop
      vertex -0.549926 -0.317499 0
      vertex -0.802892 -0.46355 0
      vertex -0.710199 -0.595928 0
    endloop
  endfacet
  facet normal 0 0 1
    outer loop
      vertex -0.625353 0.110266 0
      vertex -0.913014 0.160989 0
      vertex -0.634999 0 0
    endloop
  endfacet
  facet normal 0 0 1
    outer loop
      vertex -0.596704 -0.217182 0
      vertex -0.871188 -0.317086 0
      vertex -0.802892 -0.46355 0
    endloop
  endfacet
  facet normal 0 0 1
    outer loop
      vertex -0.927099 0 0
      vertex -0.634999 0 0
      vertex -0.913014 0.160989 0
    endloop
  endfacet
  facet normal 0 0 1
    outer loop
      vertex -0.625353 -0.110266 0
      vertex -0.913014 -0.160989 0
      vertex -0.871188 -0.317086 0
    endloop
  endfacet
  facet normal 0 0 1
    outer loop
      vertex -0.634999 0 0
      vertex -0.927099 0 0
      vertex -0.913014 -0.160989 0
    endloop
  endfacet
  facet normal 0.69547 0.69547 0.180672
    outer loop
      vertex -3.23968 -2.71841 17.907
      vertex -0.595928 -0.710199 0
      vertex -0.710199 -0.595928 0
    endloop
  endfacet
  facet normal 0.69547 0.69547 0.180672
    outer loop
      vertex -0.595928 -0.710199 0
      vertex -3.23968 -2.71841 17.907
      vertex -2.71841 -3.23968 17.907
    endloop
  endfacet
  facet normal 0.0857232 -0.9798 0.180673
    outer loop
      vertex -0.160989 0.913014 0
      vertex 0 0.927099 0
      vertex -0.734375 4.16485 17.907
    endloop
  endfacet
  facet normal -0.0857221 -0.979801 0.180673
    outer loop
      vertex 0.734375 4.16485 17.907
      vertex 0 4.2291 17.907
      vertex 0 0.927099 0
    endloop
  endfacet
  facet normal 0.56414 -0.80567 0.180673
    outer loop
      vertex -0.595928 0.710199 0
      vertex -2.11455 3.66251 17.907
      vertex -2.71841 3.23968 17.907
    endloop
  endfacet
  facet normal -0.415658 -0.891395 0.180672
    outer loop
      vertex 2.11455 3.66251 17.907
      vertex 1.44644 3.97405 17.907
      vertex 0.46355 0.802892 0
    endloop
  endfacet
  facet normal 0 0 -1
    outer loop
      vertex 4.16485 -0.734375 17.907
      vertex 4.21005 0 17.907
      vertex 4.2291 0 17.907
    endloop
  endfacet
  facet normal 0 0 -1
    outer loop
      vertex 4.16485 -0.734375 17.907
      vertex 4.14609 -0.731067 17.907
      vertex 4.21005 0 17.907
    endloop
  endfacet
  facet normal 0 0 -1
    outer loop
      vertex 3.97405 -1.44644 17.907
      vertex 4.14609 -0.731067 17.907
      vertex 4.16485 -0.734375 17.907
    endloop
  endfacet
  facet normal 0 0 -1
    outer loop
      vertex 3.97405 -1.44644 17.907
      vertex 3.95615 -1.43992 17.907
      vertex 4.14609 -0.731067 17.907
    endloop
  endfacet
  facet normal 0 0 -1
    outer loop
      vertex 3.66251 -2.11455 17.907
      vertex 3.95615 -1.43992 17.907
      vertex 3.97405 -1.44644 17.907
    endloop
  endfacet
  facet normal 0 0 -1
    outer loop
      vertex 3.66251 -2.11455 17.907
      vertex 3.64601 -2.10502 17.907
      vertex 3.95615 -1.43992 17.907
    endloop
  endfacet
  facet normal 0 0 -1
    outer loop
      vertex 3.23968 -2.71841 17.907
      vertex 3.64601 -2.10502 17.907
      vertex 3.66251 -2.11455 17.907
    endloop
  endfacet
  facet normal 0 0 -1
    outer loop
      vertex 3.23968 -2.71841 17.907
      vertex 3.22509 -2.70617 17.907
      vertex 3.64601 -2.10502 17.907
    endloop
  endfacet
  facet normal 0 0 -1
    outer loop
      vertex 2.71841 -3.23968 17.907
      vertex 3.22509 -2.70617 17.907
      vertex 3.23968 -2.71841 17.907
    endloop
  endfacet
  facet normal 0 0 -1
    outer loop
      vertex 2.71841 -3.23968 17.907
      vertex 2.70617 -3.22509 17.907
      vertex 3.22509 -2.70617 17.907
    endloop
  endfacet
  facet normal 0 0 -1
    outer loop
      vertex 2.11455 -3.66251 17.907
      vertex 2.70617 -3.22509 17.907
      vertex 2.71841 -3.23968 17.907
    endloop
  endfacet
  facet normal 0 0 -1
    outer loop
      vertex 2.11455 -3.66251 17.907
      vertex 2.10502 -3.64601 17.907
      vertex 2.70617 -3.22509 17.907
    endloop
  endfacet
  facet normal 0 0 -1
    outer loop
      vertex 1.44644 -3.97405 17.907
      vertex 2.10502 -3.64601 17.907
      vertex 2.11455 -3.66251 17.907
    endloop
  endfacet
  facet normal 0 0 -1
    outer loop
      vertex 1.44644 -3.97405 17.907
      vertex 1.43992 -3.95615 17.907
      vertex 2.10502 -3.64601 17.907
    endloop
  endfacet
  facet normal 0 0 -1
    outer loop
      vertex 0.734375 -4.16485 17.907
      vertex 1.43992 -3.95615 17.907
      vertex 1.44644 -3.97405 17.907
    endloop
  endfacet
  facet normal 0 0 -1
    outer loop
      vertex 0.734375 -4.16485 17.907
      vertex 0.731067 -4.14609 17.907
      vertex 1.43992 -3.95615 17.907
    endloop
  endfacet
  facet normal 0 0 -1
    outer loop
      vertex 0 -4.2291 17.907
      vertex 0.731067 -4.14609 17.907
      vertex 0.734375 -4.16485 17.907
    endloop
  endfacet
  facet normal 0 0 -1
    outer loop
      vertex 0 -4.2291 17.907
      vertex 0 -4.21005 17.907
      vertex 0.731067 -4.14609 17.907
    endloop
  endfacet
  facet normal 0 0 -1
    outer loop
      vertex 0 -4.2291 17.907
      vertex -0.731067 -4.14609 17.907
      vertex 0 -4.21005 17.907
    endloop
  endfacet
  facet normal 0 0 -1
    outer loop
      vertex -0.734375 -4.16485 17.907
      vertex -0.731067 -4.14609 17.907
      vertex 0 -4.2291 17.907
    endloop
  endfacet
  facet normal 0 0 -1
    outer loop
      vertex -0.734375 -4.16485 17.907
      vertex -1.43992 -3.95615 17.907
      vertex -0.731067 -4.14609 17.907
    endloop
  endfacet
  facet normal 0 0 -1
    outer loop
      vertex -1.44644 -3.97405 17.907
      vertex -1.43992 -3.95615 17.907
      vertex -0.734375 -4.16485 17.907
    endloop
  endfacet
  facet normal 0 0 -1
    outer loop
      vertex -1.44644 -3.97405 17.907
      vertex -2.10502 -3.64601 17.907
      vertex -1.43992 -3.95615 17.907
    endloop
  endfacet
  facet normal 0 0 -1
    outer loop
      vertex -2.11455 -3.66251 17.907
      vertex -2.10502 -3.64601 17.907
      vertex -1.44644 -3.97405 17.907
    endloop
  endfacet
  facet normal 0 0 -1
    outer loop
      vertex -2.11455 -3.66251 17.907
      vertex -2.70617 -3.22509 17.907
      vertex -2.10502 -3.64601 17.907
    endloop
  endfacet
  facet normal 0 0 -1
    outer loop
      vertex -2.71841 -3.23968 17.907
      vertex -2.70617 -3.22509 17.907
      vertex -2.11455 -3.66251 17.907
    endloop
  endfacet
  facet normal 0 0 -1
    outer loop
      vertex -2.71841 -3.23968 17.907
      vertex -3.22509 -2.70617 17.907
      vertex -2.70617 -3.22509 17.907
    endloop
  endfacet
  facet normal 0 0 -1
    outer loop
      vertex -3.23968 -2.71841 17.907
      vertex -3.22509 -2.70617 17.907
      vertex -2.71841 -3.23968 17.907
    endloop
  endfacet
  facet normal 0 0 -1
    outer loop
      vertex -3.23968 -2.71841 17.907
      vertex -3.64601 -2.10502 17.907
      vertex -3.22509 -2.70617 17.907
    endloop
  endfacet
  facet normal 0 0 -1
    outer loop
      vertex -3.66251 -2.11455 17.907
      vertex -3.64601 -2.10502 17.907
      vertex -3.23968 -2.71841 17.907
    endloop
  endfacet
  facet normal 0 0 -1
    outer loop
      vertex -3.66251 -2.11455 17.907
      vertex -3.95615 -1.43992 17.907
      vertex -3.64601 -2.10502 17.907
    endloop
  endfacet
  facet normal 0 0 -1
    outer loop
      vertex -3.97405 -1.44644 17.907
      vertex -3.95615 -1.43992 17.907
      vertex -3.66251 -2.11455 17.907
    endloop
  endfacet
  facet normal 0 0 -1
    outer loop
      vertex -3.97405 -1.44644 17.907
      vertex -4.14609 -0.731067 17.907
      vertex -3.95615 -1.43992 17.907
    endloop
  endfacet
  facet normal 0 0 -1
    outer loop
      vertex -4.16485 -0.734375 17.907
      vertex -4.14609 -0.731067 17.907
      vertex -3.97405 -1.44644 17.907
    endloop
  endfacet
  facet normal 0 0 -1
    outer loop
      vertex -4.16485 -0.734375 17.907
      vertex -4.21005 0 17.907
      vertex -4.14609 -0.731067 17.907
    endloop
  endfacet
  facet normal -0 -0 -1
    outer loop
      vertex -4.21005 0 17.907
      vertex -4.16485 -0.734375 17.907
      vertex -4.2291 0 17.907
    endloop
  endfacet
  facet normal 0 0 -1
    outer loop
      vertex 4.21005 0 17.907
      vertex 4.16485 0.734375 17.907
      vertex 4.2291 0 17.907
    endloop
  endfacet
  facet normal 0 0 -1
    outer loop
      vertex 4.14609 0.731067 17.907
      vertex 4.16485 0.734375 17.907
      vertex 4.21005 0 17.907
    endloop
  endfacet
  facet normal 0 0 -1
    outer loop
      vertex 4.14609 0.731067 17.907
      vertex 3.97405 1.44644 17.907
      vertex 4.16485 0.734375 17.907
    endloop
  endfacet
  facet normal 0 0 -1
    outer loop
      vertex 3.95615 1.43992 17.907
      vertex 3.97405 1.44644 17.907
      vertex 4.14609 0.731067 17.907
    endloop
  endfacet
  facet normal 0 0 -1
    outer loop
      vertex 3.95615 1.43992 17.907
      vertex 3.66251 2.11455 17.907
      vertex 3.97405 1.44644 17.907
    endloop
  endfacet
  facet normal 0 0 -1
    outer loop
      vertex 3.64601 2.10502 17.907
      vertex 3.66251 2.11455 17.907
      vertex 3.95615 1.43992 17.907
    endloop
  endfacet
  facet normal 0 0 -1
    outer loop
      vertex 3.64601 2.10502 17.907
      vertex 3.23968 2.71841 17.907
      vertex 3.66251 2.11455 17.907
    endloop
  endfacet
  facet normal 0 0 -1
    outer loop
      vertex 3.22509 2.70617 17.907
      vertex 3.23968 2.71841 17.907
      vertex 3.64601 2.10502 17.907
    endloop
  endfacet
  facet normal 0 0 -1
    outer loop
      vertex 3.22509 2.70617 17.907
      vertex 2.71841 3.23968 17.907
      vertex 3.23968 2.71841 17.907
    endloop
  endfacet
  facet normal 0 0 -1
    outer loop
      vertex 2.70617 3.22509 17.907
      vertex 2.71841 3.23968 17.907
      vertex 3.22509 2.70617 17.907
    endloop
  endfacet
  facet normal 0 0 -1
    outer loop
      vertex 2.70617 3.22509 17.907
      vertex 2.11455 3.66251 17.907
      vertex 2.71841 3.23968 17.907
    endloop
  endfacet
  facet normal 0 0 -1
    outer loop
      vertex 2.10502 3.64601 17.907
      vertex 2.11455 3.66251 17.907
      vertex 2.70617 3.22509 17.907
    endloop
  endfacet
  facet normal 0 0 -1
    outer loop
      vertex 2.10502 3.64601 17.907
      vertex 1.44644 3.97405 17.907
      vertex 2.11455 3.66251 17.907
    endloop
  endfacet
  facet normal 0 0 -1
    outer loop
      vertex 1.43992 3.95615 17.907
      vertex 1.44644 3.97405 17.907
      vertex 2.10502 3.64601 17.907
    endloop
  endfacet
  facet normal 0 0 -1
    outer loop
      vertex 1.43992 3.95615 17.907
      vertex 0.734375 4.16485 17.907
      vertex 1.44644 3.97405 17.907
    endloop
  endfacet
  facet normal 0 0 -1
    outer loop
      vertex 0.731067 4.14609 17.907
      vertex 0.734375 4.16485 17.907
      vertex 1.43992 3.95615 17.907
    endloop
  endfacet
  facet normal 0 0 -1
    outer loop
      vertex 0 4.21005 17.907
      vertex 0.734375 4.16485 17.907
      vertex 0.731067 4.14609 17.907
    endloop
  endfacet
  facet normal 0 0 -1
    outer loop
      vertex 0 4.21005 17.907
      vertex 0 4.2291 17.907
      vertex 0.734375 4.16485 17.907
    endloop
  endfacet
  facet normal 0 0 -1
    outer loop
      vertex -0.731067 4.14609 17.907
      vertex 0 4.2291 17.907
      vertex 0 4.21005 17.907
    endloop
  endfacet
  facet normal 0 0 -1
    outer loop
      vertex -0.731067 4.14609 17.907
      vertex -0.734375 4.16485 17.907
      vertex 0 4.2291 17.907
    endloop
  endfacet
  facet normal 0 0 -1
    outer loop
      vertex -1.43992 3.95615 17.907
      vertex -0.734375 4.16485 17.907
      vertex -0.731067 4.14609 17.907
    endloop
  endfacet
  facet normal 0 0 -1
    outer loop
      vertex -1.43992 3.95615 17.907
      vertex -1.44644 3.97405 17.907
      vertex -0.734375 4.16485 17.907
    endloop
  endfacet
  facet normal 0 0 -1
    outer loop
      vertex -2.10502 3.64601 17.907
      vertex -1.44644 3.97405 17.907
      vertex -1.43992 3.95615 17.907
    endloop
  endfacet
  facet normal 0 0 -1
    outer loop
      vertex -2.10502 3.64601 17.907
      vertex -2.11455 3.66251 17.907
      vertex -1.44644 3.97405 17.907
    endloop
  endfacet
  facet normal 0 0 -1
    outer loop
      vertex -2.70617 3.22509 17.907
      vertex -2.11455 3.66251 17.907
      vertex -2.10502 3.64601 17.907
    endloop
  endfacet
  facet normal 0 0 -1
    outer loop
      vertex -2.70617 3.22509 17.907
      vertex -2.71841 3.23968 17.907
      vertex -2.11455 3.66251 17.907
    endloop
  endfacet
  facet normal 0 0 -1
    outer loop
      vertex -3.22509 2.70617 17.907
      vertex -2.71841 3.23968 17.907
      vertex -2.70617 3.22509 17.907
    endloop
  endfacet
  facet normal 0 0 -1
    outer loop
      vertex -3.22509 2.70617 17.907
      vertex -3.23968 2.71841 17.907
      vertex -2.71841 3.23968 17.907
    endloop
  endfacet
  facet normal 0 0 -1
    outer loop
      vertex -3.64601 2.10502 17.907
      vertex -3.23968 2.71841 17.907
      vertex -3.22509 2.70617 17.907
    endloop
  endfacet
  facet normal 0 0 -1
    outer loop
      vertex -3.64601 2.10502 17.907
      vertex -3.66251 2.11455 17.907
      vertex -3.23968 2.71841 17.907
    endloop
  endfacet
  facet normal 0 0 -1
    outer loop
      vertex -3.95615 1.43992 17.907
      vertex -3.66251 2.11455 17.907
      vertex -3.64601 2.10502 17.907
    endloop
  endfacet
  facet normal 0 0 -1
    outer loop
      vertex -3.95615 1.43992 17.907
      vertex -3.97405 1.44644 17.907
      vertex -3.66251 2.11455 17.907
    endloop
  endfacet
  facet normal 0 0 -1
    outer loop
      vertex -4.14609 0.731067 17.907
      vertex -3.97405 1.44644 17.907
      vertex -3.95615 1.43992 17.907
    endloop
  endfacet
  facet normal 0 0 -1
    outer loop
      vertex -4.14609 0.731067 17.907
      vertex -4.16485 0.734375 17.907
      vertex -3.97405 1.44644 17.907
    endloop
  endfacet
  facet normal 0 0 -1
    outer loop
      vertex -4.21005 0 17.907
      vertex -4.16485 0.734375 17.907
      vertex -4.14609 0.731067 17.907
    endloop
  endfacet
  facet normal 0 0 -1
    outer loop
      vertex -4.16485 0.734375 17.907
      vertex -4.21005 0 17.907
      vertex -4.2291 0 17.907
    endloop
  endfacet
  facet normal 0.415658 0.891395 0.180672
    outer loop
      vertex -1.44644 -3.97405 17.907
      vertex -0.46355 -0.802892 0
      vertex -2.11455 -3.66251 17.907
    endloop
  endfacet
  facet normal -0.0857232 -0.9798 0.180673
    outer loop
      vertex 0.160989 0.913014 0
      vertex 0.734375 4.16485 17.907
      vertex 0 0.927099 0
    endloop
  endfacet
  facet normal 0.415658 -0.891395 0.180672
    outer loop
      vertex -0.46355 0.802892 0
      vertex -1.44644 3.97405 17.907
      vertex -2.11455 3.66251 17.907
    endloop
  endfacet
  facet normal 0.415657 -0.891396 0.180673
    outer loop
      vertex -0.46355 0.802892 0
      vertex -0.317086 0.871188 0
      vertex -1.44644 3.97405 17.907
    endloop
  endfacet
  facet normal 0.564141 0.805669 0.180672
    outer loop
      vertex -0.46355 -0.802892 0
      vertex -0.595928 -0.710199 0
      vertex -2.11455 -3.66251 17.907
    endloop
  endfacet
  facet normal 0.56414 0.80567 0.180673
    outer loop
      vertex -2.11455 -3.66251 17.907
      vertex -0.595928 -0.710199 0
      vertex -2.71841 -3.23968 17.907
    endloop
  endfacet
  facet normal -0.805669 -0.564141 0.180672
    outer loop
      vertex 0.802892 0.46355 0
      vertex 3.66251 2.11455 17.907
      vertex 0.710199 0.595928 0
    endloop
  endfacet
  facet normal -0.891395 -0.415658 0.180672
    outer loop
      vertex 3.97405 1.44644 17.907
      vertex 3.66251 2.11455 17.907
      vertex 0.802892 0.46355 0
    endloop
  endfacet
  facet normal -0.56414 -0.80567 0.180673
    outer loop
      vertex 2.71841 3.23968 17.907
      vertex 2.11455 3.66251 17.907
      vertex 0.595928 0.710199 0
    endloop
  endfacet
  facet normal -0.69547 -0.69547 0.180672
    outer loop
      vertex 0.595928 0.710199 0
      vertex 3.23968 2.71841 17.907
      vertex 2.71841 3.23968 17.907
    endloop
  endfacet
  facet normal -0.69547 -0.69547 0.180672
    outer loop
      vertex 3.23968 2.71841 17.907
      vertex 0.595928 0.710199 0
      vertex 0.710199 0.595928 0
    endloop
  endfacet
  facet normal -0.0871556 0.996195 0
    outer loop
      vertex 0.731067 -4.14609 17.907
      vertex 0 -4.21005 30.607
      vertex 0.731067 -4.14609 30.607
    endloop
  endfacet
  facet normal -0.0871556 0.996195 0
    outer loop
      vertex 0 -4.21005 30.607
      vertex 0.731067 -4.14609 17.907
      vertex 0 -4.21005 17.907
    endloop
  endfacet
  facet normal -0.965925 -0.258823 0
    outer loop
      vertex 4.14609 0.731067 17.907
      vertex 3.95615 1.43992 30.607
      vertex 3.95615 1.43992 17.907
    endloop
  endfacet
  facet normal -0.965925 -0.258823 0
    outer loop
      vertex 3.95615 1.43992 30.607
      vertex 4.14609 0.731067 17.907
      vertex 4.14609 0.731067 30.607
    endloop
  endfacet
  facet normal -0.996195 -0.0871556 0
    outer loop
      vertex 4.21005 0 17.907
      vertex 4.14609 0.731067 30.607
      vertex 4.14609 0.731067 17.907
    endloop
  endfacet
  facet normal -0.996195 -0.0871556 0
    outer loop
      vertex 4.14609 0.731067 30.607
      vertex 4.21005 0 17.907
      vertex 4.21005 0 30.607
    endloop
  endfacet
  facet normal -0.906308 -0.422617 0
    outer loop
      vertex 3.95615 1.43992 17.907
      vertex 3.64601 2.10502 30.607
      vertex 3.64601 2.10502 17.907
    endloop
  endfacet
  facet normal -0.906308 -0.422617 0
    outer loop
      vertex 3.64601 2.10502 30.607
      vertex 3.95615 1.43992 17.907
      vertex 3.95615 1.43992 30.607
    endloop
  endfacet
  facet normal -0.819158 -0.573568 0
    outer loop
      vertex 3.64601 2.10502 17.907
      vertex 3.22509 2.70617 30.607
      vertex 3.22509 2.70617 17.907
    endloop
  endfacet
  facet normal -0.819158 -0.573568 0
    outer loop
      vertex 3.22509 2.70617 30.607
      vertex 3.64601 2.10502 17.907
      vertex 3.64601 2.10502 30.607
    endloop
  endfacet
  facet normal -0.707107 -0.707107 0
    outer loop
      vertex 3.22509 2.70617 17.907
      vertex 2.70617 3.22509 30.607
      vertex 2.70617 3.22509 17.907
    endloop
  endfacet
  facet normal -0.707107 -0.707107 0
    outer loop
      vertex 2.70617 3.22509 30.607
      vertex 3.22509 2.70617 17.907
      vertex 3.22509 2.70617 30.607
    endloop
  endfacet
  facet normal -0.965925 0.258823 0
    outer loop
      vertex 3.95615 -1.43992 17.907
      vertex 4.14609 -0.731067 30.607
      vertex 4.14609 -0.731067 17.907
    endloop
  endfacet
  facet normal -0.965925 0.258823 0
    outer loop
      vertex 4.14609 -0.731067 30.607
      vertex 3.95615 -1.43992 17.907
      vertex 3.95615 -1.43992 30.607
    endloop
  endfacet
  facet normal 0.422617 -0.906308 0
    outer loop
      vertex -2.10502 3.64601 17.907
      vertex -1.43992 3.95615 30.607
      vertex -2.10502 3.64601 30.607
    endloop
  endfacet
  facet normal 0.422617 -0.906308 0
    outer loop
      vertex -1.43992 3.95615 30.607
      vertex -2.10502 3.64601 17.907
      vertex -1.43992 3.95615 17.907
    endloop
  endfacet
  facet normal -0.258823 0.965925 0
    outer loop
      vertex 1.43992 -3.95615 17.907
      vertex 0.731067 -4.14609 30.607
      vertex 1.43992 -3.95615 30.607
    endloop
  endfacet
  facet normal -0.258823 0.965925 0
    outer loop
      vertex 0.731067 -4.14609 30.607
      vertex 1.43992 -3.95615 17.907
      vertex 0.731067 -4.14609 17.907
    endloop
  endfacet
  facet normal 0.0871556 -0.996195 0
    outer loop
      vertex -0.731067 4.14609 17.907
      vertex 0 4.21005 30.607
      vertex -0.731067 4.14609 30.607
    endloop
  endfacet
  facet normal 0.0871556 -0.996195 0
    outer loop
      vertex 0 4.21005 30.607
      vertex -0.731067 4.14609 17.907
      vertex 0 4.21005 17.907
    endloop
  endfacet
  facet normal 0.906308 -0.422617 0
    outer loop
      vertex -3.95615 1.43992 30.607
      vertex -3.64601 2.10502 17.907
      vertex -3.64601 2.10502 30.607
    endloop
  endfacet
  facet normal 0.906308 -0.422617 0
    outer loop
      vertex -3.64601 2.10502 17.907
      vertex -3.95615 1.43992 30.607
      vertex -3.95615 1.43992 17.907
    endloop
  endfacet
  facet normal 0.996195 0.0871556 0
    outer loop
      vertex -4.14609 -0.731067 30.607
      vertex -4.21005 0 17.907
      vertex -4.21005 0 30.607
    endloop
  endfacet
  facet normal 0.996195 0.0871556 0
    outer loop
      vertex -4.21005 0 17.907
      vertex -4.14609 -0.731067 30.607
      vertex -4.14609 -0.731067 17.907
    endloop
  endfacet
  facet normal -0.819158 0.573568 0
    outer loop
      vertex 3.22509 -2.70617 17.907
      vertex 3.64601 -2.10502 30.607
      vertex 3.64601 -2.10502 17.907
    endloop
  endfacet
  facet normal -0.819158 0.573568 0
    outer loop
      vertex 3.64601 -2.10502 30.607
      vertex 3.22509 -2.70617 17.907
      vertex 3.22509 -2.70617 30.607
    endloop
  endfacet
  facet normal 0.965925 -0.258823 0
    outer loop
      vertex -4.14609 0.731067 30.607
      vertex -3.95615 1.43992 17.907
      vertex -3.95615 1.43992 30.607
    endloop
  endfacet
  facet normal 0.965925 -0.258823 0
    outer loop
      vertex -3.95615 1.43992 17.907
      vertex -4.14609 0.731067 30.607
      vertex -4.14609 0.731067 17.907
    endloop
  endfacet
  facet normal -0.906308 0.422617 0
    outer loop
      vertex 3.64601 -2.10502 17.907
      vertex 3.95615 -1.43992 30.607
      vertex 3.95615 -1.43992 17.907
    endloop
  endfacet
  facet normal -0.906308 0.422617 0
    outer loop
      vertex 3.95615 -1.43992 30.607
      vertex 3.64601 -2.10502 17.907
      vertex 3.64601 -2.10502 30.607
    endloop
  endfacet
  facet normal -0.422617 -0.906308 0
    outer loop
      vertex 1.43992 3.95615 17.907
      vertex 2.10502 3.64601 30.607
      vertex 1.43992 3.95615 30.607
    endloop
  endfacet
  facet normal -0.422617 -0.906308 -0
    outer loop
      vertex 2.10502 3.64601 30.607
      vertex 1.43992 3.95615 17.907
      vertex 2.10502 3.64601 17.907
    endloop
  endfacet
  facet normal 0.965925 0.258823 0
    outer loop
      vertex -3.95615 -1.43992 30.607
      vertex -4.14609 -0.731067 17.907
      vertex -4.14609 -0.731067 30.607
    endloop
  endfacet
  facet normal 0.965925 0.258823 0
    outer loop
      vertex -4.14609 -0.731067 17.907
      vertex -3.95615 -1.43992 30.607
      vertex -3.95615 -1.43992 17.907
    endloop
  endfacet
  facet normal -0.996195 0.0871556 0
    outer loop
      vertex 4.14609 -0.731067 17.907
      vertex 4.21005 0 30.607
      vertex 4.21005 0 17.907
    endloop
  endfacet
  facet normal -0.996195 0.0871556 0
    outer loop
      vertex 4.21005 0 30.607
      vertex 4.14609 -0.731067 17.907
      vertex 4.14609 -0.731067 30.607
    endloop
  endfacet
  facet normal -0.573568 0.819158 0
    outer loop
      vertex 2.70617 -3.22509 17.907
      vertex 2.10502 -3.64601 30.607
      vertex 2.70617 -3.22509 30.607
    endloop
  endfacet
  facet normal -0.573568 0.819158 0
    outer loop
      vertex 2.10502 -3.64601 30.607
      vertex 2.70617 -3.22509 17.907
      vertex 2.10502 -3.64601 17.907
    endloop
  endfacet
  facet normal 0.573568 -0.819158 0
    outer loop
      vertex -2.70617 3.22509 17.907
      vertex -2.10502 3.64601 30.607
      vertex -2.70617 3.22509 30.607
    endloop
  endfacet
  facet normal 0.573568 -0.819158 0
    outer loop
      vertex -2.10502 3.64601 30.607
      vertex -2.70617 3.22509 17.907
      vertex -2.10502 3.64601 17.907
    endloop
  endfacet
  facet normal -0.573568 -0.819158 0
    outer loop
      vertex 2.10502 3.64601 17.907
      vertex 2.70617 3.22509 30.607
      vertex 2.10502 3.64601 30.607
    endloop
  endfacet
  facet normal -0.573568 -0.819158 -0
    outer loop
      vertex 2.70617 3.22509 30.607
      vertex 2.10502 3.64601 17.907
      vertex 2.70617 3.22509 17.907
    endloop
  endfacet
  facet normal 0.258823 -0.965925 0
    outer loop
      vertex -1.43992 3.95615 17.907
      vertex -0.731067 4.14609 30.607
      vertex -1.43992 3.95615 30.607
    endloop
  endfacet
  facet normal 0.258823 -0.965925 0
    outer loop
      vertex -0.731067 4.14609 30.607
      vertex -1.43992 3.95615 17.907
      vertex -0.731067 4.14609 17.907
    endloop
  endfacet
  facet normal 0.422617 0.906308 -0
    outer loop
      vertex -1.43992 -3.95615 17.907
      vertex -2.10502 -3.64601 30.607
      vertex -1.43992 -3.95615 30.607
    endloop
  endfacet
  facet normal 0.422617 0.906308 0
    outer loop
      vertex -2.10502 -3.64601 30.607
      vertex -1.43992 -3.95615 17.907
      vertex -2.10502 -3.64601 17.907
    endloop
  endfacet
  facet normal 0.707107 -0.707107 0
    outer loop
      vertex -3.22509 2.70617 30.607
      vertex -2.70617 3.22509 17.907
      vertex -2.70617 3.22509 30.607
    endloop
  endfacet
  facet normal 0.707107 -0.707107 0
    outer loop
      vertex -2.70617 3.22509 17.907
      vertex -3.22509 2.70617 30.607
      vertex -3.22509 2.70617 17.907
    endloop
  endfacet
  facet normal 0.906308 0.422617 0
    outer loop
      vertex -3.64601 -2.10502 30.607
      vertex -3.95615 -1.43992 17.907
      vertex -3.95615 -1.43992 30.607
    endloop
  endfacet
  facet normal 0.906308 0.422617 0
    outer loop
      vertex -3.95615 -1.43992 17.907
      vertex -3.64601 -2.10502 30.607
      vertex -3.64601 -2.10502 17.907
    endloop
  endfacet
  facet normal -0.0871556 -0.996195 0
    outer loop
      vertex 0 4.21005 17.907
      vertex 0.731067 4.14609 30.607
      vertex 0 4.21005 30.607
    endloop
  endfacet
  facet normal -0.0871556 -0.996195 -0
    outer loop
      vertex 0.731067 4.14609 30.607
      vertex 0 4.21005 17.907
      vertex 0.731067 4.14609 17.907
    endloop
  endfacet
  facet normal 0.996195 -0.0871556 0
    outer loop
      vertex -4.21005 0 30.607
      vertex -4.14609 0.731067 17.907
      vertex -4.14609 0.731067 30.607
    endloop
  endfacet
  facet normal 0.996195 -0.0871556 0
    outer loop
      vertex -4.14609 0.731067 17.907
      vertex -4.21005 0 30.607
      vertex -4.21005 0 17.907
    endloop
  endfacet
  facet normal 0.819158 0.573568 0
    outer loop
      vertex -3.22509 -2.70617 30.607
      vertex -3.64601 -2.10502 17.907
      vertex -3.64601 -2.10502 30.607
    endloop
  endfacet
  facet normal 0.819158 0.573568 0
    outer loop
      vertex -3.64601 -2.10502 17.907
      vertex -3.22509 -2.70617 30.607
      vertex -3.22509 -2.70617 17.907
    endloop
  endfacet
  facet normal -0.707107 0.707107 0
    outer loop
      vertex 2.70617 -3.22509 17.907
      vertex 3.22509 -2.70617 30.607
      vertex 3.22509 -2.70617 17.907
    endloop
  endfacet
  facet normal -0.707107 0.707107 0
    outer loop
      vertex 3.22509 -2.70617 30.607
      vertex 2.70617 -3.22509 17.907
      vertex 2.70617 -3.22509 30.607
    endloop
  endfacet
  facet normal 0.707107 0.707107 0
    outer loop
      vertex -2.70617 -3.22509 30.607
      vertex -3.22509 -2.70617 17.907
      vertex -3.22509 -2.70617 30.607
    endloop
  endfacet
  facet normal 0.707107 0.707107 0
    outer loop
      vertex -3.22509 -2.70617 17.907
      vertex -2.70617 -3.22509 30.607
      vertex -2.70617 -3.22509 17.907
    endloop
  endfacet
  facet normal -0.422617 0.906308 0
    outer loop
      vertex 2.10502 -3.64601 17.907
      vertex 1.43992 -3.95615 30.607
      vertex 2.10502 -3.64601 30.607
    endloop
  endfacet
  facet normal -0.422617 0.906308 0
    outer loop
      vertex 1.43992 -3.95615 30.607
      vertex 2.10502 -3.64601 17.907
      vertex 1.43992 -3.95615 17.907
    endloop
  endfacet
  facet normal 0.819158 -0.573568 0
    outer loop
      vertex -3.64601 2.10502 30.607
      vertex -3.22509 2.70617 17.907
      vertex -3.22509 2.70617 30.607
    endloop
  endfacet
  facet normal 0.819158 -0.573568 0
    outer loop
      vertex -3.22509 2.70617 17.907
      vertex -3.64601 2.10502 30.607
      vertex -3.64601 2.10502 17.907
    endloop
  endfacet
  facet normal -0.258823 -0.965925 0
    outer loop
      vertex 0.731067 4.14609 17.907
      vertex 1.43992 3.95615 30.607
      vertex 0.731067 4.14609 30.607
    endloop
  endfacet
  facet normal -0.258823 -0.965925 -0
    outer loop
      vertex 1.43992 3.95615 30.607
      vertex 0.731067 4.14609 17.907
      vertex 1.43992 3.95615 17.907
    endloop
  endfacet
  facet normal 0.0871556 0.996195 -0
    outer loop
      vertex 0 -4.21005 17.907
      vertex -0.731067 -4.14609 30.607
      vertex 0 -4.21005 30.607
    endloop
  endfacet
  facet normal 0.0871556 0.996195 0
    outer loop
      vertex -0.731067 -4.14609 30.607
      vertex 0 -4.21005 17.907
      vertex -0.731067 -4.14609 17.907
    endloop
  endfacet
  facet normal 0.258823 0.965925 -0
    outer loop
      vertex -0.731067 -4.14609 17.907
      vertex -1.43992 -3.95615 30.607
      vertex -0.731067 -4.14609 30.607
    endloop
  endfacet
  facet normal 0.258823 0.965925 0
    outer loop
      vertex -1.43992 -3.95615 30.607
      vertex -0.731067 -4.14609 17.907
      vertex -1.43992 -3.95615 17.907
    endloop
  endfacet
  facet normal 0.573568 0.819158 -0
    outer loop
      vertex -2.10502 -3.64601 17.907
      vertex -2.70617 -3.22509 30.607
      vertex -2.10502 -3.64601 30.607
    endloop
  endfacet
  facet normal 0.573568 0.819158 0
    outer loop
      vertex -2.70617 -3.22509 30.607
      vertex -2.10502 -3.64601 17.907
      vertex -2.70617 -3.22509 17.907
    endloop
  endfacet
  facet normal 0.258827 -0.965924 0
    outer loop
      vertex -0.217182 0.596704 -2.54
      vertex -0.110266 0.625353 0
      vertex -0.217182 0.596704 0
    endloop
  endfacet
  facet normal 0.258827 -0.965924 0
    outer loop
      vertex -0.110266 0.625353 0
      vertex -0.217182 0.596704 -2.54
      vertex -0.110266 0.625353 -2.54
    endloop
  endfacet
  facet normal -0.965924 -0.258827 0
    outer loop
      vertex 0.625353 0.110266 -2.54
      vertex 0.596704 0.217182 0
      vertex 0.596704 0.217182 -2.54
    endloop
  endfacet
  facet normal -0.965924 -0.258827 0
    outer loop
      vertex 0.596704 0.217182 0
      vertex 0.625353 0.110266 -2.54
      vertex 0.625353 0.110266 0
    endloop
  endfacet
  facet normal -0.996196 -0.0871466 0
    outer loop
      vertex 0.634999 0 -2.54
      vertex 0.625353 0.110266 0
      vertex 0.625353 0.110266 -2.54
    endloop
  endfacet
  facet normal -0.996196 -0.0871466 0
    outer loop
      vertex 0.625353 0.110266 0
      vertex 0.634999 0 -2.54
      vertex 0.634999 0 0
    endloop
  endfacet
  facet normal -0.90631 -0.422614 0
    outer loop
      vertex 0.596704 0.217182 -2.54
      vertex 0.549926 0.317499 0
      vertex 0.549926 0.317499 -2.54
    endloop
  endfacet
  facet normal -0.90631 -0.422614 0
    outer loop
      vertex 0.549926 0.317499 0
      vertex 0.596704 0.217182 -2.54
      vertex 0.596704 0.217182 0
    endloop
  endfacet
  facet normal -0.0871466 0.996196 0
    outer loop
      vertex 0.110266 -0.625353 -2.54
      vertex 0 -0.634999 0
      vertex 0.110266 -0.625353 0
    endloop
  endfacet
  facet normal -0.0871466 0.996196 0
    outer loop
      vertex 0 -0.634999 0
      vertex 0.110266 -0.625353 -2.54
      vertex 0 -0.634999 -2.54
    endloop
  endfacet
  facet normal 0.996196 0.0871466 0
    outer loop
      vertex -0.625353 -0.110266 0
      vertex -0.634999 0 -2.54
      vertex -0.634999 0 0
    endloop
  endfacet
  facet normal 0.996196 0.0871466 0
    outer loop
      vertex -0.634999 0 -2.54
      vertex -0.625353 -0.110266 0
      vertex -0.625353 -0.110266 -2.54
    endloop
  endfacet
  facet normal -0.996196 0.0871466 0
    outer loop
      vertex 0.625353 -0.110266 -2.54
      vertex 0.634999 0 0
      vertex 0.634999 0 -2.54
    endloop
  endfacet
  facet normal -0.996196 0.0871466 0
    outer loop
      vertex 0.634999 0 0
      vertex 0.625353 -0.110266 -2.54
      vertex 0.625353 -0.110266 0
    endloop
  endfacet
  facet normal -0.819154 -0.573573 0
    outer loop
      vertex 0.549926 0.317499 -2.54
      vertex 0.486438 0.40817 0
      vertex 0.486438 0.40817 -2.54
    endloop
  endfacet
  facet normal -0.819154 -0.573573 0
    outer loop
      vertex 0.486438 0.40817 0
      vertex 0.549926 0.317499 -2.54
      vertex 0.549926 0.317499 0
    endloop
  endfacet
  facet normal 0.707107 -0.707107 0
    outer loop
      vertex -0.486438 0.40817 0
      vertex -0.40817 0.486438 -2.54
      vertex -0.40817 0.486438 0
    endloop
  endfacet
  facet normal 0.707107 -0.707107 0
    outer loop
      vertex -0.40817 0.486438 -2.54
      vertex -0.486438 0.40817 0
      vertex -0.486438 0.40817 -2.54
    endloop
  endfacet
  facet normal -0.422614 0.90631 0
    outer loop
      vertex 0.317499 -0.549926 -2.54
      vertex 0.217182 -0.596704 0
      vertex 0.317499 -0.549926 0
    endloop
  endfacet
  facet normal -0.422614 0.90631 0
    outer loop
      vertex 0.217182 -0.596704 0
      vertex 0.317499 -0.549926 -2.54
      vertex 0.217182 -0.596704 -2.54
    endloop
  endfacet
  facet normal 0.422614 0.90631 -0
    outer loop
      vertex -0.217182 -0.596704 -2.54
      vertex -0.317499 -0.549926 0
      vertex -0.217182 -0.596704 0
    endloop
  endfacet
  facet normal 0.422614 0.90631 0
    outer loop
      vertex -0.317499 -0.549926 0
      vertex -0.217182 -0.596704 -2.54
      vertex -0.317499 -0.549926 -2.54
    endloop
  endfacet
  facet normal -0.819154 0.573573 0
    outer loop
      vertex 0.486438 -0.40817 -2.54
      vertex 0.549926 -0.317499 0
      vertex 0.549926 -0.317499 -2.54
    endloop
  endfacet
  facet normal -0.819154 0.573573 0
    outer loop
      vertex 0.549926 -0.317499 0
      vertex 0.486438 -0.40817 -2.54
      vertex 0.486438 -0.40817 0
    endloop
  endfacet
  facet normal -0.965924 0.258827 0
    outer loop
      vertex 0.596704 -0.217182 -2.54
      vertex 0.625353 -0.110266 0
      vertex 0.625353 -0.110266 -2.54
    endloop
  endfacet
  facet normal -0.965924 0.258827 0
    outer loop
      vertex 0.625353 -0.110266 0
      vertex 0.596704 -0.217182 -2.54
      vertex 0.596704 -0.217182 0
    endloop
  endfacet
  facet normal 0.573573 -0.819154 0
    outer loop
      vertex -0.40817 0.486438 -2.54
      vertex -0.317499 0.549926 0
      vertex -0.40817 0.486438 0
    endloop
  endfacet
  facet normal 0.573573 -0.819154 0
    outer loop
      vertex -0.317499 0.549926 0
      vertex -0.40817 0.486438 -2.54
      vertex -0.317499 0.549926 -2.54
    endloop
  endfacet
  facet normal 0.965924 0.258827 0
    outer loop
      vertex -0.596704 -0.217182 0
      vertex -0.625353 -0.110266 -2.54
      vertex -0.625353 -0.110266 0
    endloop
  endfacet
  facet normal 0.965924 0.258827 0
    outer loop
      vertex -0.625353 -0.110266 -2.54
      vertex -0.596704 -0.217182 0
      vertex -0.596704 -0.217182 -2.54
    endloop
  endfacet
  facet normal -0.707107 0.707107 0
    outer loop
      vertex 0.40817 -0.486438 -2.54
      vertex 0.486438 -0.40817 0
      vertex 0.486438 -0.40817 -2.54
    endloop
  endfacet
  facet normal -0.707107 0.707107 0
    outer loop
      vertex 0.486438 -0.40817 0
      vertex 0.40817 -0.486438 -2.54
      vertex 0.40817 -0.486438 0
    endloop
  endfacet
  facet normal 0.422614 -0.90631 0
    outer loop
      vertex -0.317499 0.549926 -2.54
      vertex -0.217182 0.596704 0
      vertex -0.317499 0.549926 0
    endloop
  endfacet
  facet normal 0.422614 -0.90631 0
    outer loop
      vertex -0.217182 0.596704 0
      vertex -0.317499 0.549926 -2.54
      vertex -0.217182 0.596704 -2.54
    endloop
  endfacet
  facet normal -0.0871466 -0.996196 0
    outer loop
      vertex 0 0.634999 -2.54
      vertex 0.110266 0.625353 0
      vertex 0 0.634999 0
    endloop
  endfacet
  facet normal -0.0871466 -0.996196 -0
    outer loop
      vertex 0.110266 0.625353 0
      vertex 0 0.634999 -2.54
      vertex 0.110266 0.625353 -2.54
    endloop
  endfacet
  facet normal 0.90631 0.422614 0
    outer loop
      vertex -0.549926 -0.317499 0
      vertex -0.596704 -0.217182 -2.54
      vertex -0.596704 -0.217182 0
    endloop
  endfacet
  facet normal 0.90631 0.422614 0
    outer loop
      vertex -0.596704 -0.217182 -2.54
      vertex -0.549926 -0.317499 0
      vertex -0.549926 -0.317499 -2.54
    endloop
  endfacet
  facet normal -0.258827 -0.965924 0
    outer loop
      vertex 0.110266 0.625353 -2.54
      vertex 0.217182 0.596704 0
      vertex 0.110266 0.625353 0
    endloop
  endfacet
  facet normal -0.258827 -0.965924 -0
    outer loop
      vertex 0.217182 0.596704 0
      vertex 0.110266 0.625353 -2.54
      vertex 0.217182 0.596704 -2.54
    endloop
  endfacet
  facet normal 0.819154 0.573573 0
    outer loop
      vertex -0.486438 -0.40817 0
      vertex -0.549926 -0.317499 -2.54
      vertex -0.549926 -0.317499 0
    endloop
  endfacet
  facet normal 0.819154 0.573573 0
    outer loop
      vertex -0.549926 -0.317499 -2.54
      vertex -0.486438 -0.40817 0
      vertex -0.486438 -0.40817 -2.54
    endloop
  endfacet
  facet normal -0.573573 -0.819154 0
    outer loop
      vertex 0.317499 0.549926 -2.54
      vertex 0.40817 0.486438 0
      vertex 0.317499 0.549926 0
    endloop
  endfacet
  facet normal -0.573573 -0.819154 -0
    outer loop
      vertex 0.40817 0.486438 0
      vertex 0.317499 0.549926 -2.54
      vertex 0.40817 0.486438 -2.54
    endloop
  endfacet
  facet normal 0.258827 0.965924 -0
    outer loop
      vertex -0.110266 -0.625353 -2.54
      vertex -0.217182 -0.596704 0
      vertex -0.110266 -0.625353 0
    endloop
  endfacet
  facet normal 0.258827 0.965924 0
    outer loop
      vertex -0.217182 -0.596704 0
      vertex -0.110266 -0.625353 -2.54
      vertex -0.217182 -0.596704 -2.54
    endloop
  endfacet
  facet normal -0.258827 0.965924 0
    outer loop
      vertex 0.217182 -0.596704 -2.54
      vertex 0.110266 -0.625353 0
      vertex 0.217182 -0.596704 0
    endloop
  endfacet
  facet normal -0.258827 0.965924 0
    outer loop
      vertex 0.110266 -0.625353 0
      vertex 0.217182 -0.596704 -2.54
      vertex 0.110266 -0.625353 -2.54
    endloop
  endfacet
  facet normal -0.90631 0.422614 0
    outer loop
      vertex 0.549926 -0.317499 -2.54
      vertex 0.596704 -0.217182 0
      vertex 0.596704 -0.217182 -2.54
    endloop
  endfacet
  facet normal -0.90631 0.422614 0
    outer loop
      vertex 0.596704 -0.217182 0
      vertex 0.549926 -0.317499 -2.54
      vertex 0.549926 -0.317499 0
    endloop
  endfacet
  facet normal -0.707107 -0.707107 0
    outer loop
      vertex 0.486438 0.40817 -2.54
      vertex 0.40817 0.486438 0
      vertex 0.40817 0.486438 -2.54
    endloop
  endfacet
  facet normal -0.707107 -0.707107 0
    outer loop
      vertex 0.40817 0.486438 0
      vertex 0.486438 0.40817 -2.54
      vertex 0.486438 0.40817 0
    endloop
  endfacet
  facet normal 0.90631 -0.422614 0
    outer loop
      vertex -0.596704 0.217182 0
      vertex -0.549926 0.317499 -2.54
      vertex -0.549926 0.317499 0
    endloop
  endfacet
  facet normal 0.90631 -0.422614 0
    outer loop
      vertex -0.549926 0.317499 -2.54
      vertex -0.596704 0.217182 0
      vertex -0.596704 0.217182 -2.54
    endloop
  endfacet
  facet normal 0.573573 0.819154 -0
    outer loop
      vertex -0.317499 -0.549926 -2.54
      vertex -0.40817 -0.486438 0
      vertex -0.317499 -0.549926 0
    endloop
  endfacet
  facet normal 0.573573 0.819154 0
    outer loop
      vertex -0.40817 -0.486438 0
      vertex -0.317499 -0.549926 -2.54
      vertex -0.40817 -0.486438 -2.54
    endloop
  endfacet
  facet normal 0.819154 -0.573573 0
    outer loop
      vertex -0.549926 0.317499 0
      vertex -0.486438 0.40817 -2.54
      vertex -0.486438 0.40817 0
    endloop
  endfacet
  facet normal 0.819154 -0.573573 0
    outer loop
      vertex -0.486438 0.40817 -2.54
      vertex -0.549926 0.317499 0
      vertex -0.549926 0.317499 -2.54
    endloop
  endfacet
  facet normal -0.422614 -0.90631 0
    outer loop
      vertex 0.217182 0.596704 -2.54
      vertex 0.317499 0.549926 0
      vertex 0.217182 0.596704 0
    endloop
  endfacet
  facet normal -0.422614 -0.90631 -0
    outer loop
      vertex 0.317499 0.549926 0
      vertex 0.217182 0.596704 -2.54
      vertex 0.317499 0.549926 -2.54
    endloop
  endfacet
  facet normal 0.965924 -0.258827 0
    outer loop
      vertex -0.625353 0.110266 0
      vertex -0.596704 0.217182 -2.54
      vertex -0.596704 0.217182 0
    endloop
  endfacet
  facet normal 0.965924 -0.258827 0
    outer loop
      vertex -0.596704 0.217182 -2.54
      vertex -0.625353 0.110266 0
      vertex -0.625353 0.110266 -2.54
    endloop
  endfacet
  facet normal 0.0871466 -0.996196 0
    outer loop
      vertex -0.110266 0.625353 -2.54
      vertex 0 0.634999 0
      vertex -0.110266 0.625353 0
    endloop
  endfacet
  facet normal 0.0871466 -0.996196 0
    outer loop
      vertex 0 0.634999 0
      vertex -0.110266 0.625353 -2.54
      vertex 0 0.634999 -2.54
    endloop
  endfacet
  facet normal -0.573573 0.819154 0
    outer loop
      vertex 0.40817 -0.486438 -2.54
      vertex 0.317499 -0.549926 0
      vertex 0.40817 -0.486438 0
    endloop
  endfacet
  facet normal -0.573573 0.819154 0
    outer loop
      vertex 0.317499 -0.549926 0
      vertex 0.40817 -0.486438 -2.54
      vertex 0.317499 -0.549926 -2.54
    endloop
  endfacet
  facet normal 0.0871466 0.996196 -0
    outer loop
      vertex 0 -0.634999 -2.54
      vertex -0.110266 -0.625353 0
      vertex 0 -0.634999 0
    endloop
  endfacet
  facet normal 0.0871466 0.996196 0
    outer loop
      vertex -0.110266 -0.625353 0
      vertex 0 -0.634999 -2.54
      vertex -0.110266 -0.625353 -2.54
    endloop
  endfacet
  facet normal 0.996196 -0.0871466 0
    outer loop
      vertex -0.634999 0 0
      vertex -0.625353 0.110266 -2.54
      vertex -0.625353 0.110266 0
    endloop
  endfacet
  facet normal 0.996196 -0.0871466 0
    outer loop
      vertex -0.625353 0.110266 -2.54
      vertex -0.634999 0 0
      vertex -0.634999 0 -2.54
    endloop
  endfacet
  facet normal 0.707107 0.707107 0
    outer loop
      vertex -0.40817 -0.486438 0
      vertex -0.486438 -0.40817 -2.54
      vertex -0.486438 -0.40817 0
    endloop
  endfacet
  facet normal 0.707107 0.707107 0
    outer loop
      vertex -0.486438 -0.40817 -2.54
      vertex -0.40817 -0.486438 0
      vertex -0.40817 -0.486438 -2.54
    endloop
  endfacet
endsolid OpenSCAD_Model
