solid OpenSCAD_Model
  facet normal 1 -0 0
    outer loop
      vertex 302 0 0.2
      vertex 302 263 0
      vertex 302 263 0.2
    endloop
  endfacet
  facet normal 1 0 0
    outer loop
      vertex 302 263 0
      vertex 302 0 0.2
      vertex 302 0 0
    endloop
  endfacet
  facet normal 0 0 1
    outer loop
      vertex 30 30 0.2
      vertex 1 30 0.2
      vertex 30 1 0.2
    endloop
  endfacet
  facet normal 0 0 1
    outer loop
      vertex 166 30 0.2
      vertex 136 30 0.2
      vertex 166 1 0.2
    endloop
  endfacet
  facet normal -0 0 1
    outer loop
      vertex 272 133.5 0.2
      vertex 301 103.5 0.2
      vertex 301 133.5 0.2
    endloop
  endfacet
  facet normal 0 0 1
    outer loop
      vertex 301 103.5 0.2
      vertex 272 133.5 0.2
      vertex 272 103.5 0.2
    endloop
  endfacet
  facet normal 0 0 1
    outer loop
      vertex 301 133.5 0.2
      vertex 302 263 0.2
      vertex 301 233 0.2
    endloop
  endfacet
  facet normal 0 0 1
    outer loop
      vertex 302 263 0.2
      vertex 272 262 0.2
      vertex 301 233 0.2
    endloop
  endfacet
  facet normal 0 0 1
    outer loop
      vertex 302 263 0.2
      vertex 166 262 0.2
      vertex 272 262 0.2
    endloop
  endfacet
  facet normal 0 0 1
    outer loop
      vertex 166 262 0.2
      vertex 136 262 0.2
      vertex 166 233 0.2
    endloop
  endfacet
  facet normal 0 0 1
    outer loop
      vertex 302 263 0.2
      vertex 136 262 0.2
      vertex 166 262 0.2
    endloop
  endfacet
  facet normal -0 0 1
    outer loop
      vertex 0 263 0.2
      vertex 136 262 0.2
      vertex 302 263 0.2
    endloop
  endfacet
  facet normal 0 0 1
    outer loop
      vertex 30 262 0.2
      vertex 1 233 0.2
      vertex 30 233 0.2
    endloop
  endfacet
  facet normal 0 0 1
    outer loop
      vertex 0 263 0.2
      vertex 1 133.5 0.2
      vertex 1 233 0.2
    endloop
  endfacet
  facet normal 0 0 1
    outer loop
      vertex 1 133.5 0.2
      vertex 0 263 0.2
      vertex 1 103.5 0.2
    endloop
  endfacet
  facet normal 0 0 1
    outer loop
      vertex 0 0 0.2
      vertex 1 103.5 0.2
      vertex 0 263 0.2
    endloop
  endfacet
  facet normal 0 0 1
    outer loop
      vertex 30 262 0.2
      vertex 0 263 0.2
      vertex 1 233 0.2
    endloop
  endfacet
  facet normal 0 0 1
    outer loop
      vertex 136 262 0.2
      vertex 0 263 0.2
      vertex 30 262 0.2
    endloop
  endfacet
  facet normal 0 0 1
    outer loop
      vertex 302 263 0.2
      vertex 301 133.5 0.2
      vertex 302 0 0.2
    endloop
  endfacet
  facet normal -0 0 1
    outer loop
      vertex 301 103.5 0.2
      vertex 302 0 0.2
      vertex 301 133.5 0.2
    endloop
  endfacet
  facet normal -0 0 1
    outer loop
      vertex 301 30 0.2
      vertex 302 0 0.2
      vertex 301 103.5 0.2
    endloop
  endfacet
  facet normal 0 0 1
    outer loop
      vertex 272 1 0.2
      vertex 301 30 0.2
      vertex 272 30 0.2
    endloop
  endfacet
  facet normal 0 0 1
    outer loop
      vertex 301 30 0.2
      vertex 272 1 0.2
      vertex 302 0 0.2
    endloop
  endfacet
  facet normal -0 0 1
    outer loop
      vertex 166 1 0.2
      vertex 302 0 0.2
      vertex 272 1 0.2
    endloop
  endfacet
  facet normal 0 0 1
    outer loop
      vertex 136 1 0.2
      vertex 166 1 0.2
      vertex 136 30 0.2
    endloop
  endfacet
  facet normal -0 0 1
    outer loop
      vertex 136 1 0.2
      vertex 302 0 0.2
      vertex 166 1 0.2
    endloop
  endfacet
  facet normal 0 0 1
    outer loop
      vertex 0 0 0.2
      vertex 136 1 0.2
      vertex 30 1 0.2
    endloop
  endfacet
  facet normal 0 0 1
    outer loop
      vertex 136 1 0.2
      vertex 0 0 0.2
      vertex 302 0 0.2
    endloop
  endfacet
  facet normal 0 0 1
    outer loop
      vertex 1 30 0.2
      vertex 0 0 0.2
      vertex 30 1 0.2
    endloop
  endfacet
  facet normal 0 0 1
    outer loop
      vertex 1 103.5 0.2
      vertex 0 0 0.2
      vertex 1 30 0.2
    endloop
  endfacet
  facet normal 0 0 1
    outer loop
      vertex 301 233 0.2
      vertex 272 262 0.2
      vertex 272 233 0.2
    endloop
  endfacet
  facet normal 0 0 1
    outer loop
      vertex 166 233 0.2
      vertex 136 262 0.2
      vertex 136 233 0.2
    endloop
  endfacet
  facet normal -0 0 1
    outer loop
      vertex 1 133.5 0.2
      vertex 30 103.5 0.2
      vertex 30 133.5 0.2
    endloop
  endfacet
  facet normal 0 0 1
    outer loop
      vertex 30 103.5 0.2
      vertex 1 133.5 0.2
      vertex 1 103.5 0.2
    endloop
  endfacet
  facet normal 0 0 -1
    outer loop
      vertex 30 233 0
      vertex 1 233 0
      vertex 30 262 0
    endloop
  endfacet
  facet normal 0 0 -1
    outer loop
      vertex 166 233 0
      vertex 136 233 0
      vertex 166 262 0
    endloop
  endfacet
  facet normal 0 0 -1
    outer loop
      vertex 272 103.5 0
      vertex 301 133.5 0
      vertex 301 103.5 0
    endloop
  endfacet
  facet normal -0 0 -1
    outer loop
      vertex 301 133.5 0
      vertex 272 103.5 0
      vertex 272 133.5 0
    endloop
  endfacet
  facet normal 0 0 -1
    outer loop
      vertex 301 103.5 0
      vertex 302 0 0
      vertex 301 30 0
    endloop
  endfacet
  facet normal 0 0 -1
    outer loop
      vertex 302 0 0
      vertex 272 1 0
      vertex 301 30 0
    endloop
  endfacet
  facet normal 0 0 -1
    outer loop
      vertex 302 0 0
      vertex 166 1 0
      vertex 272 1 0
    endloop
  endfacet
  facet normal 0 0 -1
    outer loop
      vertex 166 1 0
      vertex 136 1 0
      vertex 166 30 0
    endloop
  endfacet
  facet normal 0 0 -1
    outer loop
      vertex 302 0 0
      vertex 136 1 0
      vertex 166 1 0
    endloop
  endfacet
  facet normal 0 0 -1
    outer loop
      vertex 0 0 0
      vertex 136 1 0
      vertex 302 0 0
    endloop
  endfacet
  facet normal 0 0 -1
    outer loop
      vertex 30 1 0
      vertex 1 30 0
      vertex 30 30 0
    endloop
  endfacet
  facet normal 0 0 -1
    outer loop
      vertex 0 0 0
      vertex 1 103.5 0
      vertex 1 30 0
    endloop
  endfacet
  facet normal -0 0 -1
    outer loop
      vertex 1 103.5 0
      vertex 0 0 0
      vertex 1 133.5 0
    endloop
  endfacet
  facet normal 0 0 -1
    outer loop
      vertex 0 263 0
      vertex 1 133.5 0
      vertex 0 0 0
    endloop
  endfacet
  facet normal -0 0 -1
    outer loop
      vertex 30 1 0
      vertex 0 0 0
      vertex 1 30 0
    endloop
  endfacet
  facet normal -0 0 -1
    outer loop
      vertex 136 1 0
      vertex 0 0 0
      vertex 30 1 0
    endloop
  endfacet
  facet normal 0 0 -1
    outer loop
      vertex 302 0 0
      vertex 301 103.5 0
      vertex 302 263 0
    endloop
  endfacet
  facet normal 0 0 -1
    outer loop
      vertex 301 133.5 0
      vertex 302 263 0
      vertex 301 103.5 0
    endloop
  endfacet
  facet normal 0 0 -1
    outer loop
      vertex 301 233 0
      vertex 302 263 0
      vertex 301 133.5 0
    endloop
  endfacet
  facet normal 0 0 -1
    outer loop
      vertex 272 262 0
      vertex 301 233 0
      vertex 272 233 0
    endloop
  endfacet
  facet normal 0 0 -1
    outer loop
      vertex 301 233 0
      vertex 272 262 0
      vertex 302 263 0
    endloop
  endfacet
  facet normal 0 0 -1
    outer loop
      vertex 166 262 0
      vertex 302 263 0
      vertex 272 262 0
    endloop
  endfacet
  facet normal 0 0 -1
    outer loop
      vertex 136 262 0
      vertex 166 262 0
      vertex 136 233 0
    endloop
  endfacet
  facet normal 0 0 -1
    outer loop
      vertex 136 262 0
      vertex 302 263 0
      vertex 166 262 0
    endloop
  endfacet
  facet normal 0 0 -1
    outer loop
      vertex 0 263 0
      vertex 136 262 0
      vertex 30 262 0
    endloop
  endfacet
  facet normal 0 0 -1
    outer loop
      vertex 136 262 0
      vertex 0 263 0
      vertex 302 263 0
    endloop
  endfacet
  facet normal 0 0 -1
    outer loop
      vertex 1 233 0
      vertex 0 263 0
      vertex 30 262 0
    endloop
  endfacet
  facet normal 0 0 -1
    outer loop
      vertex 1 133.5 0
      vertex 0 263 0
      vertex 1 233 0
    endloop
  endfacet
  facet normal -0 0 -1
    outer loop
      vertex 301 30 0
      vertex 272 1 0
      vertex 272 30 0
    endloop
  endfacet
  facet normal -0 0 -1
    outer loop
      vertex 166 30 0
      vertex 136 1 0
      vertex 136 30 0
    endloop
  endfacet
  facet normal 0 0 -1
    outer loop
      vertex 1 103.5 0
      vertex 30 133.5 0
      vertex 30 103.5 0
    endloop
  endfacet
  facet normal -0 0 -1
    outer loop
      vertex 30 133.5 0
      vertex 1 103.5 0
      vertex 1 133.5 0
    endloop
  endfacet
  facet normal -1 0 0
    outer loop
      vertex 0 0 0
      vertex 0 263 0.2
      vertex 0 263 0
    endloop
  endfacet
  facet normal -1 -0 0
    outer loop
      vertex 0 263 0.2
      vertex 0 0 0
      vertex 0 0 0.2
    endloop
  endfacet
  facet normal 0 1 -0
    outer loop
      vertex 302 263 0
      vertex 0 263 0.2
      vertex 302 263 0.2
    endloop
  endfacet
  facet normal 0 1 0
    outer loop
      vertex 0 263 0.2
      vertex 302 263 0
      vertex 0 263 0
    endloop
  endfacet
  facet normal 0 -1 0
    outer loop
      vertex 0 0 0
      vertex 302 0 0.2
      vertex 0 0 0.2
    endloop
  endfacet
  facet normal 0 -1 -0
    outer loop
      vertex 302 0 0.2
      vertex 0 0 0
      vertex 302 0 0
    endloop
  endfacet
  facet normal -1 0 0
    outer loop
      vertex 301 30 0
      vertex 301 103.5 0.2
      vertex 301 103.5 0
    endloop
  endfacet
  facet normal -1 -0 0
    outer loop
      vertex 301 103.5 0.2
      vertex 301 30 0
      vertex 301 30 0.2
    endloop
  endfacet
  facet normal -1 0 0
    outer loop
      vertex 301 133.5 0
      vertex 301 233 0.2
      vertex 301 233 0
    endloop
  endfacet
  facet normal -1 -0 0
    outer loop
      vertex 301 233 0.2
      vertex 301 133.5 0
      vertex 301 133.5 0.2
    endloop
  endfacet
  facet normal 1 -0 0
    outer loop
      vertex 1 30 0.2
      vertex 1 103.5 0
      vertex 1 103.5 0.2
    endloop
  endfacet
  facet normal 1 0 0
    outer loop
      vertex 1 103.5 0
      vertex 1 30 0.2
      vertex 1 30 0
    endloop
  endfacet
  facet normal 1 -0 0
    outer loop
      vertex 1 133.5 0.2
      vertex 1 233 0
      vertex 1 233 0.2
    endloop
  endfacet
  facet normal 1 0 0
    outer loop
      vertex 1 233 0
      vertex 1 133.5 0.2
      vertex 1 133.5 0
    endloop
  endfacet
  facet normal 0 -1 0
    outer loop
      vertex 30 262 0
      vertex 136 262 0.2
      vertex 30 262 0.2
    endloop
  endfacet
  facet normal 0 -1 -0
    outer loop
      vertex 136 262 0.2
      vertex 30 262 0
      vertex 136 262 0
    endloop
  endfacet
  facet normal 0 -1 0
    outer loop
      vertex 166 262 0
      vertex 272 262 0.2
      vertex 166 262 0.2
    endloop
  endfacet
  facet normal 0 -1 -0
    outer loop
      vertex 272 262 0.2
      vertex 166 262 0
      vertex 272 262 0
    endloop
  endfacet
  facet normal 0 1 -0
    outer loop
      vertex 136 1 0
      vertex 30 1 0.2
      vertex 136 1 0.2
    endloop
  endfacet
  facet normal 0 1 0
    outer loop
      vertex 30 1 0.2
      vertex 136 1 0
      vertex 30 1 0
    endloop
  endfacet
  facet normal 0 1 -0
    outer loop
      vertex 272 1 0
      vertex 166 1 0.2
      vertex 272 1 0.2
    endloop
  endfacet
  facet normal 0 1 0
    outer loop
      vertex 166 1 0.2
      vertex 272 1 0
      vertex 166 1 0
    endloop
  endfacet
  facet normal 1 -0 0
    outer loop
      vertex 30 1 0.2
      vertex 30 30 0
      vertex 30 30 0.2
    endloop
  endfacet
  facet normal 1 0 0
    outer loop
      vertex 30 30 0
      vertex 30 1 0.2
      vertex 30 1 0
    endloop
  endfacet
  facet normal 0 1 -0
    outer loop
      vertex 30 30 0
      vertex 1 30 0.2
      vertex 30 30 0.2
    endloop
  endfacet
  facet normal 0 1 0
    outer loop
      vertex 1 30 0.2
      vertex 30 30 0
      vertex 1 30 0
    endloop
  endfacet
  facet normal -1 0 0
    outer loop
      vertex 272 1 0
      vertex 272 30 0.2
      vertex 272 30 0
    endloop
  endfacet
  facet normal -1 -0 0
    outer loop
      vertex 272 30 0.2
      vertex 272 1 0
      vertex 272 1 0.2
    endloop
  endfacet
  facet normal 0 1 -0
    outer loop
      vertex 301 30 0
      vertex 272 30 0.2
      vertex 301 30 0.2
    endloop
  endfacet
  facet normal 0 1 0
    outer loop
      vertex 272 30 0.2
      vertex 301 30 0
      vertex 272 30 0
    endloop
  endfacet
  facet normal 1 -0 0
    outer loop
      vertex 30 233 0.2
      vertex 30 262 0
      vertex 30 262 0.2
    endloop
  endfacet
  facet normal 1 0 0
    outer loop
      vertex 30 262 0
      vertex 30 233 0.2
      vertex 30 233 0
    endloop
  endfacet
  facet normal 0 -1 0
    outer loop
      vertex 1 233 0
      vertex 30 233 0.2
      vertex 1 233 0.2
    endloop
  endfacet
  facet normal 0 -1 -0
    outer loop
      vertex 30 233 0.2
      vertex 1 233 0
      vertex 30 233 0
    endloop
  endfacet
  facet normal -1 0 0
    outer loop
      vertex 272 233 0
      vertex 272 262 0.2
      vertex 272 262 0
    endloop
  endfacet
  facet normal -1 -0 0
    outer loop
      vertex 272 262 0.2
      vertex 272 233 0
      vertex 272 233 0.2
    endloop
  endfacet
  facet normal 0 -1 0
    outer loop
      vertex 272 233 0
      vertex 301 233 0.2
      vertex 272 233 0.2
    endloop
  endfacet
  facet normal 0 -1 -0
    outer loop
      vertex 301 233 0.2
      vertex 272 233 0
      vertex 301 233 0
    endloop
  endfacet
  facet normal 1 -0 0
    outer loop
      vertex 30 103.5 0.2
      vertex 30 133.5 0
      vertex 30 133.5 0.2
    endloop
  endfacet
  facet normal 1 0 0
    outer loop
      vertex 30 133.5 0
      vertex 30 103.5 0.2
      vertex 30 103.5 0
    endloop
  endfacet
  facet normal 0 1 -0
    outer loop
      vertex 30 133.5 0
      vertex 1 133.5 0.2
      vertex 30 133.5 0.2
    endloop
  endfacet
  facet normal 0 1 0
    outer loop
      vertex 1 133.5 0.2
      vertex 30 133.5 0
      vertex 1 133.5 0
    endloop
  endfacet
  facet normal 0 -1 0
    outer loop
      vertex 1 103.5 0
      vertex 30 103.5 0.2
      vertex 1 103.5 0.2
    endloop
  endfacet
  facet normal 0 -1 -0
    outer loop
      vertex 30 103.5 0.2
      vertex 1 103.5 0
      vertex 30 103.5 0
    endloop
  endfacet
  facet normal 1 -0 0
    outer loop
      vertex 166 1 0.2
      vertex 166 30 0
      vertex 166 30 0.2
    endloop
  endfacet
  facet normal 1 0 0
    outer loop
      vertex 166 30 0
      vertex 166 1 0.2
      vertex 166 1 0
    endloop
  endfacet
  facet normal -1 0 0
    outer loop
      vertex 136 1 0
      vertex 136 30 0.2
      vertex 136 30 0
    endloop
  endfacet
  facet normal -1 -0 0
    outer loop
      vertex 136 30 0.2
      vertex 136 1 0
      vertex 136 1 0.2
    endloop
  endfacet
  facet normal 0 1 -0
    outer loop
      vertex 166 30 0
      vertex 136 30 0.2
      vertex 166 30 0.2
    endloop
  endfacet
  facet normal 0 1 0
    outer loop
      vertex 136 30 0.2
      vertex 166 30 0
      vertex 136 30 0
    endloop
  endfacet
  facet normal -1 0 0
    outer loop
      vertex 272 103.5 0
      vertex 272 133.5 0.2
      vertex 272 133.5 0
    endloop
  endfacet
  facet normal -1 -0 0
    outer loop
      vertex 272 133.5 0.2
      vertex 272 103.5 0
      vertex 272 103.5 0.2
    endloop
  endfacet
  facet normal 0 1 -0
    outer loop
      vertex 301 133.5 0
      vertex 272 133.5 0.2
      vertex 301 133.5 0.2
    endloop
  endfacet
  facet normal 0 1 0
    outer loop
      vertex 272 133.5 0.2
      vertex 301 133.5 0
      vertex 272 133.5 0
    endloop
  endfacet
  facet normal 0 -1 0
    outer loop
      vertex 272 103.5 0
      vertex 301 103.5 0.2
      vertex 272 103.5 0.2
    endloop
  endfacet
  facet normal 0 -1 -0
    outer loop
      vertex 301 103.5 0.2
      vertex 272 103.5 0
      vertex 301 103.5 0
    endloop
  endfacet
  facet normal 1 -0 0
    outer loop
      vertex 166 233 0.2
      vertex 166 262 0
      vertex 166 262 0.2
    endloop
  endfacet
  facet normal 1 0 0
    outer loop
      vertex 166 262 0
      vertex 166 233 0.2
      vertex 166 233 0
    endloop
  endfacet
  facet normal -1 0 0
    outer loop
      vertex 136 233 0
      vertex 136 262 0.2
      vertex 136 262 0
    endloop
  endfacet
  facet normal -1 -0 0
    outer loop
      vertex 136 262 0.2
      vertex 136 233 0
      vertex 136 233 0.2
    endloop
  endfacet
  facet normal 0 -1 0
    outer loop
      vertex 136 233 0
      vertex 166 233 0.2
      vertex 136 233 0.2
    endloop
  endfacet
  facet normal 0 -1 -0
    outer loop
      vertex 166 233 0.2
      vertex 136 233 0
      vertex 166 233 0
    endloop
  endfacet
endsolid OpenSCAD_Model
