solid OpenSCAD_Model
  facet normal 1 -0 0
    outer loop
      vertex 302 0 0.2
      vertex 302 268 0
      vertex 302 268 0.2
    endloop
  endfacet
  facet normal 1 0 0
    outer loop
      vertex 302 268 0
      vertex 302 0 0.2
      vertex 302 0 0
    endloop
  endfacet
  facet normal 0 0 1
    outer loop
      vertex 30 30 0.2
      vertex 1 30 0.2
      vertex 30 1 0.2
    endloop
  endfacet
  facet normal 0 0 1
    outer loop
      vertex 166 30 0.2
      vertex 136 30 0.2
      vertex 166 1 0.2
    endloop
  endfacet
  facet normal -0 0 1
    outer loop
      vertex 272 136 0.2
      vertex 301 106 0.2
      vertex 301 136 0.2
    endloop
  endfacet
  facet normal 0 0 1
    outer loop
      vertex 301 106 0.2
      vertex 272 136 0.2
      vertex 272 106 0.2
    endloop
  endfacet
  facet normal 0 0 1
    outer loop
      vertex 301 136 0.2
      vertex 302 268 0.2
      vertex 301 238 0.2
    endloop
  endfacet
  facet normal 0 0 1
    outer loop
      vertex 302 268 0.2
      vertex 272 267 0.2
      vertex 301 238 0.2
    endloop
  endfacet
  facet normal 0 0 1
    outer loop
      vertex 302 268 0.2
      vertex 166 267 0.2
      vertex 272 267 0.2
    endloop
  endfacet
  facet normal 0 0 1
    outer loop
      vertex 166 267 0.2
      vertex 136 267 0.2
      vertex 166 238 0.2
    endloop
  endfacet
  facet normal 0 0 1
    outer loop
      vertex 302 268 0.2
      vertex 136 267 0.2
      vertex 166 267 0.2
    endloop
  endfacet
  facet normal -0 0 1
    outer loop
      vertex 0 268 0.2
      vertex 136 267 0.2
      vertex 302 268 0.2
    endloop
  endfacet
  facet normal 0 0 1
    outer loop
      vertex 30 267 0.2
      vertex 1 238 0.2
      vertex 30 238 0.2
    endloop
  endfacet
  facet normal 0 0 1
    outer loop
      vertex 0 268 0.2
      vertex 1 136 0.2
      vertex 1 238 0.2
    endloop
  endfacet
  facet normal 0 0 1
    outer loop
      vertex 1 136 0.2
      vertex 0 268 0.2
      vertex 1 106 0.2
    endloop
  endfacet
  facet normal 0 0 1
    outer loop
      vertex 0 0 0.2
      vertex 1 106 0.2
      vertex 0 268 0.2
    endloop
  endfacet
  facet normal 0 0 1
    outer loop
      vertex 30 267 0.2
      vertex 0 268 0.2
      vertex 1 238 0.2
    endloop
  endfacet
  facet normal 0 0 1
    outer loop
      vertex 136 267 0.2
      vertex 0 268 0.2
      vertex 30 267 0.2
    endloop
  endfacet
  facet normal 0 0 1
    outer loop
      vertex 302 268 0.2
      vertex 301 136 0.2
      vertex 302 0 0.2
    endloop
  endfacet
  facet normal -0 0 1
    outer loop
      vertex 301 106 0.2
      vertex 302 0 0.2
      vertex 301 136 0.2
    endloop
  endfacet
  facet normal -0 0 1
    outer loop
      vertex 301 30 0.2
      vertex 302 0 0.2
      vertex 301 106 0.2
    endloop
  endfacet
  facet normal 0 0 1
    outer loop
      vertex 272 1 0.2
      vertex 301 30 0.2
      vertex 272 30 0.2
    endloop
  endfacet
  facet normal 0 0 1
    outer loop
      vertex 301 30 0.2
      vertex 272 1 0.2
      vertex 302 0 0.2
    endloop
  endfacet
  facet normal -0 0 1
    outer loop
      vertex 166 1 0.2
      vertex 302 0 0.2
      vertex 272 1 0.2
    endloop
  endfacet
  facet normal 0 0 1
    outer loop
      vertex 136 1 0.2
      vertex 166 1 0.2
      vertex 136 30 0.2
    endloop
  endfacet
  facet normal -0 0 1
    outer loop
      vertex 136 1 0.2
      vertex 302 0 0.2
      vertex 166 1 0.2
    endloop
  endfacet
  facet normal 0 0 1
    outer loop
      vertex 0 0 0.2
      vertex 136 1 0.2
      vertex 30 1 0.2
    endloop
  endfacet
  facet normal 0 0 1
    outer loop
      vertex 136 1 0.2
      vertex 0 0 0.2
      vertex 302 0 0.2
    endloop
  endfacet
  facet normal 0 0 1
    outer loop
      vertex 1 30 0.2
      vertex 0 0 0.2
      vertex 30 1 0.2
    endloop
  endfacet
  facet normal 0 0 1
    outer loop
      vertex 1 106 0.2
      vertex 0 0 0.2
      vertex 1 30 0.2
    endloop
  endfacet
  facet normal 0 0 1
    outer loop
      vertex 301 238 0.2
      vertex 272 267 0.2
      vertex 272 238 0.2
    endloop
  endfacet
  facet normal 0 0 1
    outer loop
      vertex 166 238 0.2
      vertex 136 267 0.2
      vertex 136 238 0.2
    endloop
  endfacet
  facet normal -0 0 1
    outer loop
      vertex 1 136 0.2
      vertex 30 106 0.2
      vertex 30 136 0.2
    endloop
  endfacet
  facet normal 0 0 1
    outer loop
      vertex 30 106 0.2
      vertex 1 136 0.2
      vertex 1 106 0.2
    endloop
  endfacet
  facet normal 0 0 -1
    outer loop
      vertex 30 238 0
      vertex 1 238 0
      vertex 30 267 0
    endloop
  endfacet
  facet normal 0 0 -1
    outer loop
      vertex 166 238 0
      vertex 136 238 0
      vertex 166 267 0
    endloop
  endfacet
  facet normal 0 0 -1
    outer loop
      vertex 272 106 0
      vertex 301 136 0
      vertex 301 106 0
    endloop
  endfacet
  facet normal -0 0 -1
    outer loop
      vertex 301 136 0
      vertex 272 106 0
      vertex 272 136 0
    endloop
  endfacet
  facet normal 0 0 -1
    outer loop
      vertex 301 106 0
      vertex 302 0 0
      vertex 301 30 0
    endloop
  endfacet
  facet normal 0 0 -1
    outer loop
      vertex 302 0 0
      vertex 272 1 0
      vertex 301 30 0
    endloop
  endfacet
  facet normal 0 0 -1
    outer loop
      vertex 302 0 0
      vertex 166 1 0
      vertex 272 1 0
    endloop
  endfacet
  facet normal 0 0 -1
    outer loop
      vertex 166 1 0
      vertex 136 1 0
      vertex 166 30 0
    endloop
  endfacet
  facet normal 0 0 -1
    outer loop
      vertex 302 0 0
      vertex 136 1 0
      vertex 166 1 0
    endloop
  endfacet
  facet normal 0 0 -1
    outer loop
      vertex 0 0 0
      vertex 136 1 0
      vertex 302 0 0
    endloop
  endfacet
  facet normal 0 0 -1
    outer loop
      vertex 30 1 0
      vertex 1 30 0
      vertex 30 30 0
    endloop
  endfacet
  facet normal 0 0 -1
    outer loop
      vertex 0 0 0
      vertex 1 106 0
      vertex 1 30 0
    endloop
  endfacet
  facet normal -0 0 -1
    outer loop
      vertex 1 106 0
      vertex 0 0 0
      vertex 1 136 0
    endloop
  endfacet
  facet normal 0 0 -1
    outer loop
      vertex 0 268 0
      vertex 1 136 0
      vertex 0 0 0
    endloop
  endfacet
  facet normal -0 0 -1
    outer loop
      vertex 30 1 0
      vertex 0 0 0
      vertex 1 30 0
    endloop
  endfacet
  facet normal -0 0 -1
    outer loop
      vertex 136 1 0
      vertex 0 0 0
      vertex 30 1 0
    endloop
  endfacet
  facet normal 0 0 -1
    outer loop
      vertex 302 0 0
      vertex 301 106 0
      vertex 302 268 0
    endloop
  endfacet
  facet normal 0 0 -1
    outer loop
      vertex 301 136 0
      vertex 302 268 0
      vertex 301 106 0
    endloop
  endfacet
  facet normal 0 0 -1
    outer loop
      vertex 301 238 0
      vertex 302 268 0
      vertex 301 136 0
    endloop
  endfacet
  facet normal 0 0 -1
    outer loop
      vertex 272 267 0
      vertex 301 238 0
      vertex 272 238 0
    endloop
  endfacet
  facet normal 0 0 -1
    outer loop
      vertex 301 238 0
      vertex 272 267 0
      vertex 302 268 0
    endloop
  endfacet
  facet normal 0 0 -1
    outer loop
      vertex 166 267 0
      vertex 302 268 0
      vertex 272 267 0
    endloop
  endfacet
  facet normal 0 0 -1
    outer loop
      vertex 136 267 0
      vertex 166 267 0
      vertex 136 238 0
    endloop
  endfacet
  facet normal 0 0 -1
    outer loop
      vertex 136 267 0
      vertex 302 268 0
      vertex 166 267 0
    endloop
  endfacet
  facet normal 0 0 -1
    outer loop
      vertex 0 268 0
      vertex 136 267 0
      vertex 30 267 0
    endloop
  endfacet
  facet normal 0 0 -1
    outer loop
      vertex 136 267 0
      vertex 0 268 0
      vertex 302 268 0
    endloop
  endfacet
  facet normal 0 0 -1
    outer loop
      vertex 1 238 0
      vertex 0 268 0
      vertex 30 267 0
    endloop
  endfacet
  facet normal 0 0 -1
    outer loop
      vertex 1 136 0
      vertex 0 268 0
      vertex 1 238 0
    endloop
  endfacet
  facet normal -0 0 -1
    outer loop
      vertex 301 30 0
      vertex 272 1 0
      vertex 272 30 0
    endloop
  endfacet
  facet normal -0 0 -1
    outer loop
      vertex 166 30 0
      vertex 136 1 0
      vertex 136 30 0
    endloop
  endfacet
  facet normal 0 0 -1
    outer loop
      vertex 1 106 0
      vertex 30 136 0
      vertex 30 106 0
    endloop
  endfacet
  facet normal -0 0 -1
    outer loop
      vertex 30 136 0
      vertex 1 106 0
      vertex 1 136 0
    endloop
  endfacet
  facet normal -1 0 0
    outer loop
      vertex 0 0 0
      vertex 0 268 0.2
      vertex 0 268 0
    endloop
  endfacet
  facet normal -1 -0 0
    outer loop
      vertex 0 268 0.2
      vertex 0 0 0
      vertex 0 0 0.2
    endloop
  endfacet
  facet normal 0 1 -0
    outer loop
      vertex 302 268 0
      vertex 0 268 0.2
      vertex 302 268 0.2
    endloop
  endfacet
  facet normal 0 1 0
    outer loop
      vertex 0 268 0.2
      vertex 302 268 0
      vertex 0 268 0
    endloop
  endfacet
  facet normal 0 -1 0
    outer loop
      vertex 0 0 0
      vertex 302 0 0.2
      vertex 0 0 0.2
    endloop
  endfacet
  facet normal 0 -1 -0
    outer loop
      vertex 302 0 0.2
      vertex 0 0 0
      vertex 302 0 0
    endloop
  endfacet
  facet normal -1 0 0
    outer loop
      vertex 301 30 0
      vertex 301 106 0.2
      vertex 301 106 0
    endloop
  endfacet
  facet normal -1 -0 0
    outer loop
      vertex 301 106 0.2
      vertex 301 30 0
      vertex 301 30 0.2
    endloop
  endfacet
  facet normal -1 0 0
    outer loop
      vertex 301 136 0
      vertex 301 238 0.2
      vertex 301 238 0
    endloop
  endfacet
  facet normal -1 -0 0
    outer loop
      vertex 301 238 0.2
      vertex 301 136 0
      vertex 301 136 0.2
    endloop
  endfacet
  facet normal 1 -0 0
    outer loop
      vertex 1 30 0.2
      vertex 1 106 0
      vertex 1 106 0.2
    endloop
  endfacet
  facet normal 1 0 0
    outer loop
      vertex 1 106 0
      vertex 1 30 0.2
      vertex 1 30 0
    endloop
  endfacet
  facet normal 1 -0 0
    outer loop
      vertex 1 136 0.2
      vertex 1 238 0
      vertex 1 238 0.2
    endloop
  endfacet
  facet normal 1 0 0
    outer loop
      vertex 1 238 0
      vertex 1 136 0.2
      vertex 1 136 0
    endloop
  endfacet
  facet normal 0 -1 0
    outer loop
      vertex 30 267 0
      vertex 136 267 0.2
      vertex 30 267 0.2
    endloop
  endfacet
  facet normal 0 -1 -0
    outer loop
      vertex 136 267 0.2
      vertex 30 267 0
      vertex 136 267 0
    endloop
  endfacet
  facet normal 0 -1 0
    outer loop
      vertex 166 267 0
      vertex 272 267 0.2
      vertex 166 267 0.2
    endloop
  endfacet
  facet normal 0 -1 -0
    outer loop
      vertex 272 267 0.2
      vertex 166 267 0
      vertex 272 267 0
    endloop
  endfacet
  facet normal 0 1 -0
    outer loop
      vertex 136 1 0
      vertex 30 1 0.2
      vertex 136 1 0.2
    endloop
  endfacet
  facet normal 0 1 0
    outer loop
      vertex 30 1 0.2
      vertex 136 1 0
      vertex 30 1 0
    endloop
  endfacet
  facet normal 0 1 -0
    outer loop
      vertex 272 1 0
      vertex 166 1 0.2
      vertex 272 1 0.2
    endloop
  endfacet
  facet normal 0 1 0
    outer loop
      vertex 166 1 0.2
      vertex 272 1 0
      vertex 166 1 0
    endloop
  endfacet
  facet normal 1 -0 0
    outer loop
      vertex 30 1 0.2
      vertex 30 30 0
      vertex 30 30 0.2
    endloop
  endfacet
  facet normal 1 0 0
    outer loop
      vertex 30 30 0
      vertex 30 1 0.2
      vertex 30 1 0
    endloop
  endfacet
  facet normal 0 1 -0
    outer loop
      vertex 30 30 0
      vertex 1 30 0.2
      vertex 30 30 0.2
    endloop
  endfacet
  facet normal 0 1 0
    outer loop
      vertex 1 30 0.2
      vertex 30 30 0
      vertex 1 30 0
    endloop
  endfacet
  facet normal -1 0 0
    outer loop
      vertex 272 1 0
      vertex 272 30 0.2
      vertex 272 30 0
    endloop
  endfacet
  facet normal -1 -0 0
    outer loop
      vertex 272 30 0.2
      vertex 272 1 0
      vertex 272 1 0.2
    endloop
  endfacet
  facet normal 0 1 -0
    outer loop
      vertex 301 30 0
      vertex 272 30 0.2
      vertex 301 30 0.2
    endloop
  endfacet
  facet normal 0 1 0
    outer loop
      vertex 272 30 0.2
      vertex 301 30 0
      vertex 272 30 0
    endloop
  endfacet
  facet normal 1 -0 0
    outer loop
      vertex 30 238 0.2
      vertex 30 267 0
      vertex 30 267 0.2
    endloop
  endfacet
  facet normal 1 0 0
    outer loop
      vertex 30 267 0
      vertex 30 238 0.2
      vertex 30 238 0
    endloop
  endfacet
  facet normal 0 -1 0
    outer loop
      vertex 1 238 0
      vertex 30 238 0.2
      vertex 1 238 0.2
    endloop
  endfacet
  facet normal 0 -1 -0
    outer loop
      vertex 30 238 0.2
      vertex 1 238 0
      vertex 30 238 0
    endloop
  endfacet
  facet normal -1 0 0
    outer loop
      vertex 272 238 0
      vertex 272 267 0.2
      vertex 272 267 0
    endloop
  endfacet
  facet normal -1 -0 0
    outer loop
      vertex 272 267 0.2
      vertex 272 238 0
      vertex 272 238 0.2
    endloop
  endfacet
  facet normal 0 -1 0
    outer loop
      vertex 272 238 0
      vertex 301 238 0.2
      vertex 272 238 0.2
    endloop
  endfacet
  facet normal 0 -1 -0
    outer loop
      vertex 301 238 0.2
      vertex 272 238 0
      vertex 301 238 0
    endloop
  endfacet
  facet normal 1 -0 0
    outer loop
      vertex 30 106 0.2
      vertex 30 136 0
      vertex 30 136 0.2
    endloop
  endfacet
  facet normal 1 0 0
    outer loop
      vertex 30 136 0
      vertex 30 106 0.2
      vertex 30 106 0
    endloop
  endfacet
  facet normal 0 1 -0
    outer loop
      vertex 30 136 0
      vertex 1 136 0.2
      vertex 30 136 0.2
    endloop
  endfacet
  facet normal 0 1 0
    outer loop
      vertex 1 136 0.2
      vertex 30 136 0
      vertex 1 136 0
    endloop
  endfacet
  facet normal 0 -1 0
    outer loop
      vertex 1 106 0
      vertex 30 106 0.2
      vertex 1 106 0.2
    endloop
  endfacet
  facet normal 0 -1 -0
    outer loop
      vertex 30 106 0.2
      vertex 1 106 0
      vertex 30 106 0
    endloop
  endfacet
  facet normal 1 -0 0
    outer loop
      vertex 166 1 0.2
      vertex 166 30 0
      vertex 166 30 0.2
    endloop
  endfacet
  facet normal 1 0 0
    outer loop
      vertex 166 30 0
      vertex 166 1 0.2
      vertex 166 1 0
    endloop
  endfacet
  facet normal -1 0 0
    outer loop
      vertex 136 1 0
      vertex 136 30 0.2
      vertex 136 30 0
    endloop
  endfacet
  facet normal -1 -0 0
    outer loop
      vertex 136 30 0.2
      vertex 136 1 0
      vertex 136 1 0.2
    endloop
  endfacet
  facet normal 0 1 -0
    outer loop
      vertex 166 30 0
      vertex 136 30 0.2
      vertex 166 30 0.2
    endloop
  endfacet
  facet normal 0 1 0
    outer loop
      vertex 136 30 0.2
      vertex 166 30 0
      vertex 136 30 0
    endloop
  endfacet
  facet normal -1 0 0
    outer loop
      vertex 272 106 0
      vertex 272 136 0.2
      vertex 272 136 0
    endloop
  endfacet
  facet normal -1 -0 0
    outer loop
      vertex 272 136 0.2
      vertex 272 106 0
      vertex 272 106 0.2
    endloop
  endfacet
  facet normal 0 1 -0
    outer loop
      vertex 301 136 0
      vertex 272 136 0.2
      vertex 301 136 0.2
    endloop
  endfacet
  facet normal 0 1 0
    outer loop
      vertex 272 136 0.2
      vertex 301 136 0
      vertex 272 136 0
    endloop
  endfacet
  facet normal 0 -1 0
    outer loop
      vertex 272 106 0
      vertex 301 106 0.2
      vertex 272 106 0.2
    endloop
  endfacet
  facet normal 0 -1 -0
    outer loop
      vertex 301 106 0.2
      vertex 272 106 0
      vertex 301 106 0
    endloop
  endfacet
  facet normal 1 -0 0
    outer loop
      vertex 166 238 0.2
      vertex 166 267 0
      vertex 166 267 0.2
    endloop
  endfacet
  facet normal 1 0 0
    outer loop
      vertex 166 267 0
      vertex 166 238 0.2
      vertex 166 238 0
    endloop
  endfacet
  facet normal -1 0 0
    outer loop
      vertex 136 238 0
      vertex 136 267 0.2
      vertex 136 267 0
    endloop
  endfacet
  facet normal -1 -0 0
    outer loop
      vertex 136 267 0.2
      vertex 136 238 0
      vertex 136 238 0.2
    endloop
  endfacet
  facet normal 0 -1 0
    outer loop
      vertex 136 238 0
      vertex 166 238 0.2
      vertex 136 238 0.2
    endloop
  endfacet
  facet normal 0 -1 -0
    outer loop
      vertex 166 238 0.2
      vertex 136 238 0
      vertex 166 238 0
    endloop
  endfacet
endsolid OpenSCAD_Model
