solid OpenSCAD_Model
  facet normal 1 -0 0
    outer loop
      vertex 296 0 0.2
      vertex 296 284 0
      vertex 296 284 0.2
    endloop
  endfacet
  facet normal 1 0 0
    outer loop
      vertex 296 284 0
      vertex 296 0 0.2
      vertex 296 0 0
    endloop
  endfacet
  facet normal 0 0 1
    outer loop
      vertex 30 30 0.2
      vertex 1 30 0.2
      vertex 30 1 0.2
    endloop
  endfacet
  facet normal 0 0 1
    outer loop
      vertex 163 30 0.2
      vertex 133 30 0.2
      vertex 163 1 0.2
    endloop
  endfacet
  facet normal -0 0 1
    outer loop
      vertex 266 144 0.2
      vertex 295 114 0.2
      vertex 295 144 0.2
    endloop
  endfacet
  facet normal 0 0 1
    outer loop
      vertex 295 114 0.2
      vertex 266 144 0.2
      vertex 266 114 0.2
    endloop
  endfacet
  facet normal 0 0 1
    outer loop
      vertex 295 144 0.2
      vertex 296 284 0.2
      vertex 295 254 0.2
    endloop
  endfacet
  facet normal 0 0 1
    outer loop
      vertex 296 284 0.2
      vertex 266 283 0.2
      vertex 295 254 0.2
    endloop
  endfacet
  facet normal 0 0 1
    outer loop
      vertex 296 284 0.2
      vertex 163 283 0.2
      vertex 266 283 0.2
    endloop
  endfacet
  facet normal 0 0 1
    outer loop
      vertex 163 283 0.2
      vertex 133 283 0.2
      vertex 163 254 0.2
    endloop
  endfacet
  facet normal 0 0 1
    outer loop
      vertex 296 284 0.2
      vertex 133 283 0.2
      vertex 163 283 0.2
    endloop
  endfacet
  facet normal -0 0 1
    outer loop
      vertex 0 284 0.2
      vertex 133 283 0.2
      vertex 296 284 0.2
    endloop
  endfacet
  facet normal 0 0 1
    outer loop
      vertex 30 283 0.2
      vertex 1 254 0.2
      vertex 30 254 0.2
    endloop
  endfacet
  facet normal 0 0 1
    outer loop
      vertex 0 284 0.2
      vertex 1 144 0.2
      vertex 1 254 0.2
    endloop
  endfacet
  facet normal 0 0 1
    outer loop
      vertex 1 144 0.2
      vertex 0 284 0.2
      vertex 1 114 0.2
    endloop
  endfacet
  facet normal 0 0 1
    outer loop
      vertex 0 0 0.2
      vertex 1 114 0.2
      vertex 0 284 0.2
    endloop
  endfacet
  facet normal 0 0 1
    outer loop
      vertex 30 283 0.2
      vertex 0 284 0.2
      vertex 1 254 0.2
    endloop
  endfacet
  facet normal 0 0 1
    outer loop
      vertex 133 283 0.2
      vertex 0 284 0.2
      vertex 30 283 0.2
    endloop
  endfacet
  facet normal 0 0 1
    outer loop
      vertex 296 284 0.2
      vertex 295 144 0.2
      vertex 296 0 0.2
    endloop
  endfacet
  facet normal -0 0 1
    outer loop
      vertex 295 114 0.2
      vertex 296 0 0.2
      vertex 295 144 0.2
    endloop
  endfacet
  facet normal -0 0 1
    outer loop
      vertex 295 30 0.2
      vertex 296 0 0.2
      vertex 295 114 0.2
    endloop
  endfacet
  facet normal 0 0 1
    outer loop
      vertex 266 1 0.2
      vertex 295 30 0.2
      vertex 266 30 0.2
    endloop
  endfacet
  facet normal 0 0 1
    outer loop
      vertex 295 30 0.2
      vertex 266 1 0.2
      vertex 296 0 0.2
    endloop
  endfacet
  facet normal -0 0 1
    outer loop
      vertex 163 1 0.2
      vertex 296 0 0.2
      vertex 266 1 0.2
    endloop
  endfacet
  facet normal 0 0 1
    outer loop
      vertex 133 1 0.2
      vertex 163 1 0.2
      vertex 133 30 0.2
    endloop
  endfacet
  facet normal -0 0 1
    outer loop
      vertex 133 1 0.2
      vertex 296 0 0.2
      vertex 163 1 0.2
    endloop
  endfacet
  facet normal 0 0 1
    outer loop
      vertex 0 0 0.2
      vertex 133 1 0.2
      vertex 30 1 0.2
    endloop
  endfacet
  facet normal 0 0 1
    outer loop
      vertex 133 1 0.2
      vertex 0 0 0.2
      vertex 296 0 0.2
    endloop
  endfacet
  facet normal 0 0 1
    outer loop
      vertex 1 30 0.2
      vertex 0 0 0.2
      vertex 30 1 0.2
    endloop
  endfacet
  facet normal 0 0 1
    outer loop
      vertex 1 114 0.2
      vertex 0 0 0.2
      vertex 1 30 0.2
    endloop
  endfacet
  facet normal 0 0 1
    outer loop
      vertex 295 254 0.2
      vertex 266 283 0.2
      vertex 266 254 0.2
    endloop
  endfacet
  facet normal 0 0 1
    outer loop
      vertex 163 254 0.2
      vertex 133 283 0.2
      vertex 133 254 0.2
    endloop
  endfacet
  facet normal -0 0 1
    outer loop
      vertex 1 144 0.2
      vertex 30 114 0.2
      vertex 30 144 0.2
    endloop
  endfacet
  facet normal 0 0 1
    outer loop
      vertex 30 114 0.2
      vertex 1 144 0.2
      vertex 1 114 0.2
    endloop
  endfacet
  facet normal 0 0 -1
    outer loop
      vertex 30 254 0
      vertex 1 254 0
      vertex 30 283 0
    endloop
  endfacet
  facet normal 0 0 -1
    outer loop
      vertex 163 254 0
      vertex 133 254 0
      vertex 163 283 0
    endloop
  endfacet
  facet normal 0 0 -1
    outer loop
      vertex 266 114 0
      vertex 295 144 0
      vertex 295 114 0
    endloop
  endfacet
  facet normal -0 0 -1
    outer loop
      vertex 295 144 0
      vertex 266 114 0
      vertex 266 144 0
    endloop
  endfacet
  facet normal 0 0 -1
    outer loop
      vertex 295 114 0
      vertex 296 0 0
      vertex 295 30 0
    endloop
  endfacet
  facet normal 0 0 -1
    outer loop
      vertex 296 0 0
      vertex 266 1 0
      vertex 295 30 0
    endloop
  endfacet
  facet normal 0 0 -1
    outer loop
      vertex 296 0 0
      vertex 163 1 0
      vertex 266 1 0
    endloop
  endfacet
  facet normal 0 0 -1
    outer loop
      vertex 163 1 0
      vertex 133 1 0
      vertex 163 30 0
    endloop
  endfacet
  facet normal 0 0 -1
    outer loop
      vertex 296 0 0
      vertex 133 1 0
      vertex 163 1 0
    endloop
  endfacet
  facet normal 0 0 -1
    outer loop
      vertex 0 0 0
      vertex 133 1 0
      vertex 296 0 0
    endloop
  endfacet
  facet normal 0 0 -1
    outer loop
      vertex 30 1 0
      vertex 1 30 0
      vertex 30 30 0
    endloop
  endfacet
  facet normal 0 0 -1
    outer loop
      vertex 0 0 0
      vertex 1 114 0
      vertex 1 30 0
    endloop
  endfacet
  facet normal -0 0 -1
    outer loop
      vertex 1 114 0
      vertex 0 0 0
      vertex 1 144 0
    endloop
  endfacet
  facet normal 0 0 -1
    outer loop
      vertex 0 284 0
      vertex 1 144 0
      vertex 0 0 0
    endloop
  endfacet
  facet normal -0 0 -1
    outer loop
      vertex 30 1 0
      vertex 0 0 0
      vertex 1 30 0
    endloop
  endfacet
  facet normal -0 0 -1
    outer loop
      vertex 133 1 0
      vertex 0 0 0
      vertex 30 1 0
    endloop
  endfacet
  facet normal 0 0 -1
    outer loop
      vertex 296 0 0
      vertex 295 114 0
      vertex 296 284 0
    endloop
  endfacet
  facet normal 0 0 -1
    outer loop
      vertex 295 144 0
      vertex 296 284 0
      vertex 295 114 0
    endloop
  endfacet
  facet normal 0 0 -1
    outer loop
      vertex 295 254 0
      vertex 296 284 0
      vertex 295 144 0
    endloop
  endfacet
  facet normal 0 0 -1
    outer loop
      vertex 266 283 0
      vertex 295 254 0
      vertex 266 254 0
    endloop
  endfacet
  facet normal 0 0 -1
    outer loop
      vertex 295 254 0
      vertex 266 283 0
      vertex 296 284 0
    endloop
  endfacet
  facet normal 0 0 -1
    outer loop
      vertex 163 283 0
      vertex 296 284 0
      vertex 266 283 0
    endloop
  endfacet
  facet normal 0 0 -1
    outer loop
      vertex 133 283 0
      vertex 163 283 0
      vertex 133 254 0
    endloop
  endfacet
  facet normal 0 0 -1
    outer loop
      vertex 133 283 0
      vertex 296 284 0
      vertex 163 283 0
    endloop
  endfacet
  facet normal 0 0 -1
    outer loop
      vertex 0 284 0
      vertex 133 283 0
      vertex 30 283 0
    endloop
  endfacet
  facet normal 0 0 -1
    outer loop
      vertex 133 283 0
      vertex 0 284 0
      vertex 296 284 0
    endloop
  endfacet
  facet normal 0 0 -1
    outer loop
      vertex 1 254 0
      vertex 0 284 0
      vertex 30 283 0
    endloop
  endfacet
  facet normal 0 0 -1
    outer loop
      vertex 1 144 0
      vertex 0 284 0
      vertex 1 254 0
    endloop
  endfacet
  facet normal -0 0 -1
    outer loop
      vertex 295 30 0
      vertex 266 1 0
      vertex 266 30 0
    endloop
  endfacet
  facet normal -0 0 -1
    outer loop
      vertex 163 30 0
      vertex 133 1 0
      vertex 133 30 0
    endloop
  endfacet
  facet normal 0 0 -1
    outer loop
      vertex 1 114 0
      vertex 30 144 0
      vertex 30 114 0
    endloop
  endfacet
  facet normal -0 0 -1
    outer loop
      vertex 30 144 0
      vertex 1 114 0
      vertex 1 144 0
    endloop
  endfacet
  facet normal -1 0 0
    outer loop
      vertex 0 0 0
      vertex 0 284 0.2
      vertex 0 284 0
    endloop
  endfacet
  facet normal -1 -0 0
    outer loop
      vertex 0 284 0.2
      vertex 0 0 0
      vertex 0 0 0.2
    endloop
  endfacet
  facet normal 0 1 -0
    outer loop
      vertex 296 284 0
      vertex 0 284 0.2
      vertex 296 284 0.2
    endloop
  endfacet
  facet normal 0 1 0
    outer loop
      vertex 0 284 0.2
      vertex 296 284 0
      vertex 0 284 0
    endloop
  endfacet
  facet normal 0 -1 0
    outer loop
      vertex 0 0 0
      vertex 296 0 0.2
      vertex 0 0 0.2
    endloop
  endfacet
  facet normal 0 -1 -0
    outer loop
      vertex 296 0 0.2
      vertex 0 0 0
      vertex 296 0 0
    endloop
  endfacet
  facet normal -1 0 0
    outer loop
      vertex 295 30 0
      vertex 295 114 0.2
      vertex 295 114 0
    endloop
  endfacet
  facet normal -1 -0 0
    outer loop
      vertex 295 114 0.2
      vertex 295 30 0
      vertex 295 30 0.2
    endloop
  endfacet
  facet normal -1 0 0
    outer loop
      vertex 295 144 0
      vertex 295 254 0.2
      vertex 295 254 0
    endloop
  endfacet
  facet normal -1 -0 0
    outer loop
      vertex 295 254 0.2
      vertex 295 144 0
      vertex 295 144 0.2
    endloop
  endfacet
  facet normal 1 -0 0
    outer loop
      vertex 1 30 0.2
      vertex 1 114 0
      vertex 1 114 0.2
    endloop
  endfacet
  facet normal 1 0 0
    outer loop
      vertex 1 114 0
      vertex 1 30 0.2
      vertex 1 30 0
    endloop
  endfacet
  facet normal 1 -0 0
    outer loop
      vertex 1 144 0.2
      vertex 1 254 0
      vertex 1 254 0.2
    endloop
  endfacet
  facet normal 1 0 0
    outer loop
      vertex 1 254 0
      vertex 1 144 0.2
      vertex 1 144 0
    endloop
  endfacet
  facet normal 0 -1 0
    outer loop
      vertex 30 283 0
      vertex 133 283 0.2
      vertex 30 283 0.2
    endloop
  endfacet
  facet normal 0 -1 -0
    outer loop
      vertex 133 283 0.2
      vertex 30 283 0
      vertex 133 283 0
    endloop
  endfacet
  facet normal 0 -1 0
    outer loop
      vertex 163 283 0
      vertex 266 283 0.2
      vertex 163 283 0.2
    endloop
  endfacet
  facet normal 0 -1 -0
    outer loop
      vertex 266 283 0.2
      vertex 163 283 0
      vertex 266 283 0
    endloop
  endfacet
  facet normal 0 1 -0
    outer loop
      vertex 133 1 0
      vertex 30 1 0.2
      vertex 133 1 0.2
    endloop
  endfacet
  facet normal 0 1 0
    outer loop
      vertex 30 1 0.2
      vertex 133 1 0
      vertex 30 1 0
    endloop
  endfacet
  facet normal 0 1 -0
    outer loop
      vertex 266 1 0
      vertex 163 1 0.2
      vertex 266 1 0.2
    endloop
  endfacet
  facet normal 0 1 0
    outer loop
      vertex 163 1 0.2
      vertex 266 1 0
      vertex 163 1 0
    endloop
  endfacet
  facet normal 1 -0 0
    outer loop
      vertex 30 1 0.2
      vertex 30 30 0
      vertex 30 30 0.2
    endloop
  endfacet
  facet normal 1 0 0
    outer loop
      vertex 30 30 0
      vertex 30 1 0.2
      vertex 30 1 0
    endloop
  endfacet
  facet normal 0 1 -0
    outer loop
      vertex 30 30 0
      vertex 1 30 0.2
      vertex 30 30 0.2
    endloop
  endfacet
  facet normal 0 1 0
    outer loop
      vertex 1 30 0.2
      vertex 30 30 0
      vertex 1 30 0
    endloop
  endfacet
  facet normal -1 0 0
    outer loop
      vertex 266 1 0
      vertex 266 30 0.2
      vertex 266 30 0
    endloop
  endfacet
  facet normal -1 -0 0
    outer loop
      vertex 266 30 0.2
      vertex 266 1 0
      vertex 266 1 0.2
    endloop
  endfacet
  facet normal 0 1 -0
    outer loop
      vertex 295 30 0
      vertex 266 30 0.2
      vertex 295 30 0.2
    endloop
  endfacet
  facet normal 0 1 0
    outer loop
      vertex 266 30 0.2
      vertex 295 30 0
      vertex 266 30 0
    endloop
  endfacet
  facet normal 1 -0 0
    outer loop
      vertex 30 254 0.2
      vertex 30 283 0
      vertex 30 283 0.2
    endloop
  endfacet
  facet normal 1 0 0
    outer loop
      vertex 30 283 0
      vertex 30 254 0.2
      vertex 30 254 0
    endloop
  endfacet
  facet normal 0 -1 0
    outer loop
      vertex 1 254 0
      vertex 30 254 0.2
      vertex 1 254 0.2
    endloop
  endfacet
  facet normal 0 -1 -0
    outer loop
      vertex 30 254 0.2
      vertex 1 254 0
      vertex 30 254 0
    endloop
  endfacet
  facet normal -1 0 0
    outer loop
      vertex 266 254 0
      vertex 266 283 0.2
      vertex 266 283 0
    endloop
  endfacet
  facet normal -1 -0 0
    outer loop
      vertex 266 283 0.2
      vertex 266 254 0
      vertex 266 254 0.2
    endloop
  endfacet
  facet normal 0 -1 0
    outer loop
      vertex 266 254 0
      vertex 295 254 0.2
      vertex 266 254 0.2
    endloop
  endfacet
  facet normal 0 -1 -0
    outer loop
      vertex 295 254 0.2
      vertex 266 254 0
      vertex 295 254 0
    endloop
  endfacet
  facet normal 1 -0 0
    outer loop
      vertex 30 114 0.2
      vertex 30 144 0
      vertex 30 144 0.2
    endloop
  endfacet
  facet normal 1 0 0
    outer loop
      vertex 30 144 0
      vertex 30 114 0.2
      vertex 30 114 0
    endloop
  endfacet
  facet normal 0 1 -0
    outer loop
      vertex 30 144 0
      vertex 1 144 0.2
      vertex 30 144 0.2
    endloop
  endfacet
  facet normal 0 1 0
    outer loop
      vertex 1 144 0.2
      vertex 30 144 0
      vertex 1 144 0
    endloop
  endfacet
  facet normal 0 -1 0
    outer loop
      vertex 1 114 0
      vertex 30 114 0.2
      vertex 1 114 0.2
    endloop
  endfacet
  facet normal 0 -1 -0
    outer loop
      vertex 30 114 0.2
      vertex 1 114 0
      vertex 30 114 0
    endloop
  endfacet
  facet normal 1 -0 0
    outer loop
      vertex 163 1 0.2
      vertex 163 30 0
      vertex 163 30 0.2
    endloop
  endfacet
  facet normal 1 0 0
    outer loop
      vertex 163 30 0
      vertex 163 1 0.2
      vertex 163 1 0
    endloop
  endfacet
  facet normal -1 0 0
    outer loop
      vertex 133 1 0
      vertex 133 30 0.2
      vertex 133 30 0
    endloop
  endfacet
  facet normal -1 -0 0
    outer loop
      vertex 133 30 0.2
      vertex 133 1 0
      vertex 133 1 0.2
    endloop
  endfacet
  facet normal 0 1 -0
    outer loop
      vertex 163 30 0
      vertex 133 30 0.2
      vertex 163 30 0.2
    endloop
  endfacet
  facet normal 0 1 0
    outer loop
      vertex 133 30 0.2
      vertex 163 30 0
      vertex 133 30 0
    endloop
  endfacet
  facet normal -1 0 0
    outer loop
      vertex 266 114 0
      vertex 266 144 0.2
      vertex 266 144 0
    endloop
  endfacet
  facet normal -1 -0 0
    outer loop
      vertex 266 144 0.2
      vertex 266 114 0
      vertex 266 114 0.2
    endloop
  endfacet
  facet normal 0 1 -0
    outer loop
      vertex 295 144 0
      vertex 266 144 0.2
      vertex 295 144 0.2
    endloop
  endfacet
  facet normal 0 1 0
    outer loop
      vertex 266 144 0.2
      vertex 295 144 0
      vertex 266 144 0
    endloop
  endfacet
  facet normal 0 -1 0
    outer loop
      vertex 266 114 0
      vertex 295 114 0.2
      vertex 266 114 0.2
    endloop
  endfacet
  facet normal 0 -1 -0
    outer loop
      vertex 295 114 0.2
      vertex 266 114 0
      vertex 295 114 0
    endloop
  endfacet
  facet normal 1 -0 0
    outer loop
      vertex 163 254 0.2
      vertex 163 283 0
      vertex 163 283 0.2
    endloop
  endfacet
  facet normal 1 0 0
    outer loop
      vertex 163 283 0
      vertex 163 254 0.2
      vertex 163 254 0
    endloop
  endfacet
  facet normal -1 0 0
    outer loop
      vertex 133 254 0
      vertex 133 283 0.2
      vertex 133 283 0
    endloop
  endfacet
  facet normal -1 -0 0
    outer loop
      vertex 133 283 0.2
      vertex 133 254 0
      vertex 133 254 0.2
    endloop
  endfacet
  facet normal 0 -1 0
    outer loop
      vertex 133 254 0
      vertex 163 254 0.2
      vertex 133 254 0.2
    endloop
  endfacet
  facet normal 0 -1 -0
    outer loop
      vertex 163 254 0.2
      vertex 133 254 0
      vertex 163 254 0
    endloop
  endfacet
endsolid OpenSCAD_Model
